<?xml version="1.0" standalone="no"?>
<!DOCTYPE svg PUBLIC "-//W3C//DTD SVG 1.1//EN" "http://www.w3.org/Graphics/SVG/1.1/DTD/svg11.dtd" >
<svg>
<metadata>
Created by FontForge 20090914 at Wed May 15 12:53:10 2019
 By www-data
Copyright 2014-2017 Indian Type Foundry (info@indiantypefoundry.com)
</metadata>
<defs>
<font id="Poppins-SemiBold" horiz-adv-x="309" >
  <font-face 
    font-family="Poppins SemiBold"
    font-weight="600"
    font-stretch="normal"
    units-per-em="1000"
    panose-1="0 0 7 0 0 0 0 0 0 0"
    ascent="800"
    descent="-200"
    x-height="554"
    cap-height="706"
    bbox="-543 -593.001 2512 1091"
    underline-thickness="50"
    underline-position="-50"
    unicode-range="U+000D-U+FB02"
  />
<missing-glyph horiz-adv-x="500" 
d="M500 700v-700h-500v700h500zM80 650l170 -255l170 255h-340zM220 350l-170 255v-510zM450 605l-170 -255l170 -255v510zM250 305l-170 -255h340z" />
    <glyph glyph-name=".notdef" horiz-adv-x="500" 
d="M500 700v-700h-500v700h500zM80 650l170 -255l170 255h-340zM220 350l-170 255v-510zM450 605l-170 -255l170 -255v510zM250 305l-170 -255h340z" />
    <glyph glyph-name="NULL" horiz-adv-x="0" 
 />
    <glyph glyph-name="NULL" horiz-adv-x="0" 
 />
    <glyph glyph-name="CR" unicode="&#xd;" horiz-adv-x="218" 
 />
    <glyph glyph-name="space" unicode=" " horiz-adv-x="218" 
 />
    <glyph glyph-name="exclam" unicode="!" horiz-adv-x="351" 
d="M259 735l-18 -500h-119l-18 500h155zM258 147v-147h-152v147h152z" />
    <glyph glyph-name="quotedbl" unicode="&#x22;" horiz-adv-x="372" 
d="M160 799l-10 -213h-95l-12 213h117zM329 799l-10 -213h-95l-12 213h117z" />
    <glyph glyph-name="numbersign" unicode="#" horiz-adv-x="857" 
d="M675 439l-30 -137h129v-128h-156l-37 -174h-131l37 174h-184l-37 -174h-131l37 174h-150v128h177l30 137h-146v128h173l37 173h131l-37 -173h184l37 173h131l-37 -173h133v-128h-160zM544 439h-184l-30 -137h184z" />
    <glyph glyph-name="dollar" unicode="$" horiz-adv-x="613" 
d="M349 407c47.333 -14.667 85.998 -29.001 115.998 -43.001s55.5 -34.833 76.5 -62.5s31.5 -63.834 31.5 -108.501c0 -36 -9.33301 -69.167 -28 -99.5s-46.667 -54.666 -84 -72.999s-82.666 -27.5 -135.999 -27.5h-1v-80h-38v82c-69.333 6 -125.833 27.5 -169.5 64.5
s-67.834 85.167 -72.501 144.5h150c2.66699 -24 12 -45.167 28 -63.5s37.333 -30.166 64 -35.499v196l-20 6c-48 14 -86.833 27.833 -116.5 41.5s-55 34.334 -76 62.001s-31.5 64.167 -31.5 109.5c0 39.333 10.5 73.666 31.5 102.999s50 52 87 68s78.833 24.333 125.5 25v84
h38v-85c69.333 -4.66699 124.5 -24.834 165.5 -60.501s64.167 -81.167 69.5 -136.5h-152c-3.33301 22 -12.166 40.833 -26.499 56.5s-33.166 25.834 -56.499 30.501v-190zM216.998 467.499c16 -15 38.999 -28.167 68.999 -39.5v180c-29.333 -1.33301 -52.166 -9 -68.499 -23
s-24.5 -33.667 -24.5 -59c0 -24 8 -43.5 24 -58.5zM395.997 126.499c17.333 16.333 26 37.5 26 63.5c0 24.667 -8.5 44.5 -25.5 59.5s-41.167 27.833 -72.5 38.5v-187c30.667 0.666992 54.667 9.16699 72 25.5z" />
    <glyph glyph-name="percent" unicode="%" horiz-adv-x="749" 
d="M301.5 674.5c29.667 -28.333 44.5 -67.5 44.5 -117.5s-14.833 -89.167 -44.5 -117.5s-67.834 -42.5 -114.501 -42.5s-84.834 14.167 -114.501 42.5s-44.5 67.5 -44.5 117.5s14.833 89.167 44.5 117.5s67.834 42.5 114.501 42.5s84.834 -14.167 114.501 -42.5zM639 708
l-393 -708h-136l393 708h136zM140 502.5c11.333 -13.667 26.666 -20.5 45.999 -20.5s35 6.83301 47 20.5s18 31.834 18 54.501s-6 40.834 -18 54.501s-27.667 20.5 -47 20.5s-34.666 -6.83301 -45.999 -20.5s-17 -31.834 -17 -54.501s5.66699 -40.834 17 -54.501zM677 268.5
c29.333 -28.333 44 -67.5 44 -117.5s-14.667 -89.167 -44 -117.5s-67.333 -42.5 -114 -42.5s-84.834 14.167 -114.501 42.5s-44.5 67.5 -44.5 117.5s14.833 89.167 44.5 117.5s67.834 42.5 114.501 42.5s84.667 -14.167 114 -42.5zM516 95.5
c11.333 -13.667 26.666 -20.5 45.999 -20.5s35 6.83301 47 20.5s18 32.167 18 55.5c0 22.667 -6 41 -18 55s-27.667 21 -47 21s-34.666 -6.83301 -45.999 -20.5s-17 -32.167 -17 -55.5s5.66699 -41.833 17 -55.5z" />
    <glyph glyph-name="ampersand" unicode="&#x26;" horiz-adv-x="689" 
d="M543 0l-107.996 125.999c-5.33301 -13.333 -10 -23.666 -14 -30.999c-12 -30.667 -33 -55.334 -63 -74.001s-65 -28 -105 -28c-44.667 0 -83.834 9.33301 -117.501 28s-59.5 44.167 -77.5 76.5s-27 69.166 -27 110.499c0 40.667 7.83301 76.334 23.5 107.001
s37 54.5 64 71.5s57.167 26.167 90.5 27.5l-12 18c-13.333 18.667 -23.666 37.167 -30.999 55.5s-11 38.833 -11 61.5c0 28.667 7.5 55.5 22.5 80.5s37.333 45.167 67 60.5s65.167 23 106.5 23c59.333 0 105.166 -13.333 137.499 -40s53.166 -61 62.499 -103
c6.66699 -20 10 -41.333 10 -64l-1 -19h-131c0 16.667 -0.666992 28 -2 34c-0.666992 24 -7.33398 42.5 -20.001 55.5s-30.334 19.5 -53.001 19.5c-20.667 0 -37 -6 -49 -18s-18 -26.667 -18 -44c0 -15.333 3 -28.666 9 -39.999s16 -25.333 30 -42l359 -452h-142z
M324.504 137.499c18.333 17.667 27.499 40.502 27.499 68.502c0 29.333 -10.5 53.666 -31.5 72.999s-45.833 29 -74.5 29c-27.333 0 -49.833 -8.33301 -67.5 -25s-26.5 -40.334 -26.5 -71.001s9.83301 -55.167 29.5 -73.5s43.834 -27.5 72.501 -27.5
s52.167 8.83301 70.5 26.5z" />
    <glyph glyph-name="quotesingle" unicode="'" horiz-adv-x="207" 
d="M164 799l-13 -213h-95l-13 213h121z" />
    <glyph glyph-name="parenleft" unicode="(" horiz-adv-x="400" 
d="M106 745c49.333 101.333 114.333 183.336 195 246.003h137v-14c-180 -148.667 -270 -340.334 -270 -575.001s90 -426.334 270 -575.001v-13h-137c-80.667 62.667 -145.667 144.5 -195 245.5s-74 215.167 -74 342.5s24.667 241.666 74 342.999z" />
    <glyph glyph-name="parenright" unicode=")" horiz-adv-x="402" 
d="M296 59c-49.333 -101.333 -114.333 -183.002 -195 -245.002h-137v13c180 148.667 270 340.334 270 575.001s-90 426.334 -270 575.001v14h137c80.667 -62.667 145.667 -144.5 195 -245.5s74 -215.167 74 -342.5c0 -128 -24.667 -242.667 -74 -344z" />
    <glyph glyph-name="asterisk" unicode="*" horiz-adv-x="508" 
d="M398 687l50 -91l-131 -47l131 -46l-53 -94l-107 90l23 -139h-104l22 139l-108 -91l-55 95l131 47l-129 46l51 91l110 -88l-23 139h105l-23 -139z" />
    <glyph glyph-name="plus" unicode="+" horiz-adv-x="566" 
d="M538 291h-187v-190h-136v190h-187v129h187v191h136v-191h187v-129z" />
    <glyph glyph-name="comma" unicode="," horiz-adv-x="214" 
d="M177 -18c0 -41.333 -10.833 -75.332 -32.5 -101.999s-55.167 -40 -100.5 -40v54c17.333 0 30 4.16699 38 12.5s12 23.166 12 44.499v10h-64v130h123c16 -36 24 -72.333 24 -109z" />
    <glyph glyph-name="hyphen" unicode="-" horiz-adv-x="523" 
d="M423 415v-117h-425v117h425z" />
    <glyph glyph-name="period" unicode="." horiz-adv-x="211" 
d="M181 147v-147h-152v147h152z" />
    <glyph glyph-name="slash" unicode="/" horiz-adv-x="383" 
d="M397 947l-271 -1128h-136l271 1128h136z" />
    <glyph glyph-name="zero" unicode="0" horiz-adv-x="632" 
d="M317 0c95.333 0 164 32 206 96s63 151.667 63 263c0 110.667 -21 198 -63 262s-110.667 96 -206 96c-180 0 -270 -119.333 -270 -358c0 -239.333 90 -359 270 -359zM420.5 191.5c-17.667 -39 -52.167 -58.5 -103.5 -58.5c-52 0 -86.833 19.5 -104.5 58.5
s-26.5 94.833 -26.5 167.5c0 72 8.83301 127.5 26.5 166.5s52.5 58.5 104.5 58.5c51.333 0 85.833 -19.5 103.5 -58.5s26.5 -94.5 26.5 -166.5c0 -72.667 -8.83301 -128.5 -26.5 -167.5z" />
    <glyph glyph-name="one" unicode="1" horiz-adv-x="330" 
d="M12 574v132h254v-706h-148v574h-106z" />
    <glyph glyph-name="two" unicode="2" horiz-adv-x="566" 
d="M376 501c0 31.333 -7.5 56.002 -22.5 74.002s-38.5 27 -70.5 27c-66 0 -101 -45 -105 -135h-137c4 83.333 29.333 146.5 76 189.5s105.667 64.5 177 64.5c72.667 0 128.5 -18.833 167.5 -56.5s58.5 -87.834 58.5 -150.501c0 -49.333 -14.5 -98.833 -43.5 -148.5
s-65.833 -95.334 -110.5 -137.001s-91.667 -77.5 -141 -107.5h309v-115h-497v105c226 156.667 339 286.667 339 390z" />
    <glyph glyph-name="three" unicode="3" horiz-adv-x="599" 
d="M424.5 708c34.333 -16.667 60.3379 -39.667 78.0049 -69s26.5 -62 26.5 -98c0 -45.333 -12.333 -82.5 -37 -111.5s-57.334 -46.833 -98.001 -53.5v-5c98.667 -29.333 148 -87.333 148 -174c0 -60.667 -20.333 -109.834 -61 -147.501s-98 -56.5 -172 -56.5
c-78.667 0 -141.334 19.5 -188.001 58.5s-72.667 97.833 -78 176.5h138c3.33301 -36 15.166 -64.5 35.499 -85.5s49.166 -31.5 86.499 -31.5c32 0 57 8.83301 75 26.5s27 40.834 27 69.501c0 34 -13 60 -39 78s-64.333 27 -115 27h-29v115h29c93.333 -1.33301 140 31 140 97
c0 28.667 -8.33301 51.167 -25 67.5s-39.334 24.5 -68.001 24.5c-30 0 -54.667 -9.5 -74 -28.5s-30.333 -45.5 -33 -79.5h-138c4 72 27.333 127.5 70 166.5s102 58.5 178 58.5c48 0 89.167 -8.33301 123.5 -25z" />
    <glyph glyph-name="four" unicode="4" horiz-adv-x="652" 
d="M39 142v117l338 455h151v-450h92v-122h-92v-142h-142v142h-347zM397 549l-214 -285h214v285z" />
    <glyph glyph-name="five" unicode="5" horiz-adv-x="633" 
d="M552 596l-334.997 -0.000976562v-178c15.333 18 36.5 32.5 63.5 43.5s56.833 16.5 89.5 16.5c48.667 0 89.167 -10.5 121.5 -31.5s56.333 -49 72 -84s23.5 -73.833 23.5 -116.5c0 -75.333 -21.167 -135.666 -63.5 -180.999s-102.833 -68 -181.5 -68
c-51.333 0 -96 9.16699 -134 27.5s-67.667 44 -89 77s-33 71.5 -35 115.5h137c5.33301 -30 17.666 -53.833 36.999 -71.5s45 -26.5 77 -26.5c38.667 0 67.5 11.833 86.5 35.5s28.5 55.167 28.5 94.5c0 37.333 -10 66.333 -30 87s-48.333 31 -85 31
c-26.667 0 -49.334 -5.83301 -68.001 -17.5s-32.334 -27.167 -41.001 -46.5h-137v417h463v-124z" />
    <glyph glyph-name="six" unicode="6" horiz-adv-x="625" 
d="M315 618c-46.667 0 -80.667 -20.5 -102 -61.5s-30.666 -105.167 -27.999 -192.5c10.667 32 31.5 57.5 62.5 76.5s67.167 28.5 108.5 28.5c68 0 121.5 -20.5 160.5 -61.5s58.5 -99.167 58.5 -174.5c0 -46.667 -9.33301 -88 -28 -124s-46.5 -64.333 -83.5 -85
s-81.833 -31 -134.5 -31c-102.667 0 -173.334 31.833 -212.001 95.5s-58 151.5 -58 263.5c0 128.667 20.833 224 62.5 286s109.167 93 202.5 93c71.333 0 126 -20.333 164 -61s59.667 -92.667 65 -156h-132c-10.667 69.333 -46 104 -106 104zM229.5 150.5
c21.667 -24.333 53.502 -36.501 95.502 -36.501c36 0 64.667 10.667 86 32s32 51 32 89c0 40 -10.833 70.667 -32.5 92s-50.834 32 -87.501 32c-34.667 0 -64.334 -10 -89.001 -30s-37 -48.667 -37 -86s10.833 -68.166 32.5 -92.499z" />
    <glyph glyph-name="seven" unicode="7" horiz-adv-x="508" 
d="M486 607l-258 -607h-146l261 591h-327v121h470v-105z" />
    <glyph glyph-name="eight" unicode="8" horiz-adv-x="637" 
d="M96.5 640c19 29.333 47.3301 53.001 84.9971 71.001s83.167 27 136.5 27s98.833 -9 136.5 -27s66 -41.667 85 -71s28.5 -61 28.5 -95c0 -38.667 -9.33301 -71.5 -28 -98.5s-46.667 -47.167 -84 -60.5c42 -16 74.167 -39.167 96.5 -69.5s33.5 -67.166 33.5 -110.499
c0 -46.667 -11.667 -86.834 -35 -120.501s-55.166 -59.167 -95.499 -76.5s-86.166 -26 -137.499 -26s-97.166 8.66699 -137.499 26s-72 42.833 -95 76.5s-34.5 73.834 -34.5 120.501c0 43.333 11.167 80.166 33.5 110.499s54.5 53.5 96.5 69.5
c-37.333 13.333 -65.5 33.666 -84.5 60.999s-28.5 60 -28.5 98c0 34 9.5 65.667 28.5 95zM236.997 448.001c20 -17.333 46.999 -26 80.999 -26c34.667 0 62 8.66699 82 26s30 42 30 74s-10.167 56.833 -30.5 74.5s-47.5 26.5 -81.5 26.5
c-33.333 0 -60.166 -8.83301 -80.499 -26.5s-30.5 -42.5 -30.5 -74.5s10 -56.667 30 -74zM222.996 130.001c23.333 -20.667 55 -31 95 -31s71.833 10.333 95.5 31s35.5 48.667 35.5 84c0 36 -12.167 63.5 -36.5 82.5s-55.833 28.5 -94.5 28.5
c-38 0 -69.167 -9.5 -93.5 -28.5s-36.5 -46.5 -36.5 -82.5c0 -35.333 11.667 -63.333 35 -84z" />
    <glyph glyph-name="nine" unicode="9" horiz-adv-x="604" 
d="M304 106c46.667 0 80.332 20.5 100.999 61.5s29.667 105.167 27 192.5c-10.667 -32 -31.5 -57.5 -62.5 -76.5s-67.167 -28.5 -108.5 -28.5c-68 0 -121.5 20.5 -160.5 61.5s-58.5 99.167 -58.5 174.5c0 46 9.33301 87.167 28 123.5s46.5 64.833 83.5 85.5
s81.833 31 134.5 31c102.667 0 173.334 -31.167 212.001 -93.5s58 -148.833 58 -259.5c0 -126 -19.5 -221.667 -58.5 -287s-104.167 -98 -195.5 -98c-48.667 0 -90.5 9.66699 -125.5 29s-62 45.5 -81 78.5s-30.167 69.5 -33.5 109.5h132
c10.667 -69.333 46.667 -104 108 -104zM387.498 573.5c-21.667 24.333 -53.501 36.502 -95.501 36.502c-36 0 -64.667 -10.667 -86 -32s-32 -51 -32 -89c0 -40 10.833 -70.833 32.5 -92.5s50.834 -32.5 87.501 -32.5c34 0 63.5 10.167 88.5 30.5s37.5 49.166 37.5 86.499
s-10.833 68.166 -32.5 92.499z" />
    <glyph glyph-name="colon" unicode=":" horiz-adv-x="244" 
d="M202 563v-147h-152v147h152zM202 147v-147h-152v147h152z" />
    <glyph glyph-name="semicolon" unicode=";" horiz-adv-x="316" 
d="M243 558v-147h-152v147h152zM244 -18c0 -41.333 -10.833 -75.332 -32.5 -101.999s-55.167 -40 -100.5 -40v54c17.333 0 30 4.16699 38 12.5s12 23.166 12 44.499v10h-64v130h123c16 -36 24 -72.333 24 -109z" />
    <glyph glyph-name="less" unicode="&#x3c;" horiz-adv-x="451" 
d="M246 132l-218 224l218 225h177l-219 -225l219 -224h-177z" />
    <glyph glyph-name="equal" unicode="=" horiz-adv-x="601" 
d="M573 539v-128h-545v128h545zM573 300v-127h-545v127h545z" />
    <glyph glyph-name="greater" unicode="&#x3e;" horiz-adv-x="451" 
d="M28 581h176l219 -225l-219 -224h-176l218 224z" />
    <glyph glyph-name="question" unicode="?" horiz-adv-x="516" 
d="M426 694c41.333 -36 61.998 -87 61.998 -153c0 -66.667 -21.167 -117.667 -63.5 -153s-99.166 -53.666 -170.499 -54.999v-101h-133v193h57c54 0 96 8.16699 126 24.5s45 46.5 45 90.5c0 29.333 -8.33301 52.166 -25 68.499s-39 24.5 -67 24.5
c-30.667 0 -55 -8.83301 -73 -26.5s-27 -40.5 -27 -68.5h-133c-1.33301 40 7.33398 75.833 26.001 107.5s46.167 56.667 82.5 75s79.5 27.5 129.5 27.5c68 0 122.667 -18 164 -54zM264.998 147v-147h-152v147h152z" />
    <glyph glyph-name="at" unicode="@" horiz-adv-x="1221" 
d="M949.5 754.5c77 -36.333 136.004 -89.002 177.004 -158.002s61.5 -151.5 61.5 -247.5c0 -66 -13.167 -126.333 -39.5 -181s-61.5 -97.667 -105.5 -129s-91.333 -47 -142 -47c-44.667 0 -80.834 10.333 -108.501 31s-43.5 53 -47.5 97
c-22.667 -41.333 -50.834 -73 -84.501 -95s-74.5 -33 -122.5 -33c-41.333 0 -77.833 9.83301 -109.5 29.5s-56.334 47.334 -74.001 83.001s-26.5 76.834 -26.5 123.501c0 14.667 0.333008 25.667 1 33c4 57.333 20.167 108.833 48.5 154.5s65.666 81.334 111.999 107.001
s97.5 38.5 153.5 38.5c72.667 0 130.5 -19.5 173.5 -58.5s64.5 -91.833 64.5 -158.5c0 -14 -1 -28.667 -3 -44l-16 -108c-1.33301 -12 -2 -20 -2 -24c0 -19.333 4.16699 -33 12.5 -41s21.166 -12 38.499 -12c23.333 0 45.166 8.83301 65.499 26.5s36.833 43.667 49.5 78
s19 75.833 19 124.5c0 70 -15 131.333 -45 184s-74.167 93.5 -132.5 122.5s-129.5 43.5 -213.5 43.5c-98.667 0 -183.5 -20.333 -254.5 -61s-124.833 -96.334 -161.5 -167.001s-55 -149.667 -55 -237c0 -121.333 35.833 -215.166 107.5 -281.499s176.167 -99.5 313.5 -99.5
l-26 -115c-113.333 1.33301 -209.666 21.666 -288.999 60.999s-139.666 95.833 -180.999 169.5s-62 162.167 -62 265.5c0 115.333 27.667 216.833 83 304.5s130.833 155.5 226.5 203.5s202.167 72 319.5 72c106 0 197.5 -18.167 274.5 -54.5zM710.004 405.498
c-22.667 22.333 -53 33.5 -91 33.5c-28 0 -53.833 -7.5 -77.5 -22.5s-42.5 -36.833 -56.5 -65.5s-21 -62.667 -21 -102c0 -42.667 11.5 -75.667 34.5 -99s52.167 -35 87.5 -35c27.333 0 53 7.5 77 22.5s43.5 37 58.5 66s22.5 64.167 22.5 105.5
c0 42 -11.333 74.167 -34 96.5z" />
    <glyph glyph-name="A" unicode="A" horiz-adv-x="704" 
d="M494 142h-283l-50 -142h-149l260 698h161l259 -698h-149zM456 249l-104 298l-104 -298h208z" />
    <glyph glyph-name="B" unicode="B" horiz-adv-x="634" 
d="M560.5 303.5c25.667 -31.667 38.5 -68.833 38.5 -111.5c0 -59.333 -19.833 -106.166 -59.5 -140.499s-97.167 -51.5 -172.5 -51.5h-303v706h297c71.333 0 126.166 -15.667 164.499 -47s57.5 -75.333 57.5 -132c0 -44 -11.5 -80 -34.5 -108s-53.167 -46.333 -90.5 -55
c42.667 -8.66699 76.834 -28.834 102.501 -60.501zM205 410.001h127.001c35.333 0 62.166 7.83301 80.499 23.5s27.5 38.167 27.5 67.5s-9 52 -27 68s-45.667 24 -83 24h-125v-183zM425.001 139.501c20 16.333 29.999 40.167 29.999 71.5s-10.167 55.5 -30.5 72.5
s-49.166 25.5 -86.499 25.5h-133v-194h134c37.333 0 66 8.16699 86 24.5z" />
    <glyph glyph-name="C" unicode="C" horiz-adv-x="759" 
d="M602 645c58 -45.333 96.334 -106.997 115.001 -184.997h-148c-15.333 38 -39.166 68 -71.499 90s-71.166 33 -116.499 33c-37.333 0 -71 -9.33301 -101 -28s-53.333 -45.334 -70 -80.001s-25 -75.334 -25 -122.001c0 -46 8.33301 -86.333 25 -121s40 -61.334 70 -80.001
s63.667 -28 101 -28c45.333 0 84.166 11 116.499 33s56.166 52 71.499 90h148c-18.667 -78 -57 -139.667 -115 -185s-131 -68 -219 -68c-67.333 0 -126.833 15.167 -178.5 45.5s-91.667 72.833 -120 127.5s-42.5 116.667 -42.5 186c0 70 14.167 132.333 42.5 187
s68.166 97.167 119.499 127.5s111 45.5 179 45.5c88 0 161 -22.667 219 -68z" />
    <glyph glyph-name="D" unicode="D" horiz-adv-x="727" 
d="M641 169c-29.333 -53.333 -71.833 -94.833 -127.5 -124.5s-121.834 -44.5 -198.501 -44.5h-251v706h251c76.667 0 142.834 -14.5 198.501 -43.5s98.167 -70 127.5 -123s44 -114.833 44 -185.5c0 -70 -14.667 -131.667 -44 -185zM479.5 186c41.667 40 62.5 96 62.5 168
c0 72.667 -20.833 129 -62.5 169s-100.5 60 -176.5 60h-98v-457h98c76 0 134.833 20 176.5 60z" />
    <glyph glyph-name="E" unicode="E" horiz-adv-x="525" 
d="M205 594v-183h250v-108h-250v-190h280v-113h-421v706h421v-112h-280z" />
    <glyph glyph-name="F" unicode="F" horiz-adv-x="533" 
d="M502 706v-112h-297v-189h238v-108h-238v-297h-141v706h438z" />
    <glyph glyph-name="G" unicode="G" horiz-adv-x="768" 
d="M605 649.5c56.667 -42.333 92.9971 -99.4971 108.997 -171.497h-148c-14 32 -36.167 57.5 -66.5 76.5s-66.166 28.5 -107.499 28.5c-40.667 0 -76.667 -9.33301 -108 -28s-55.666 -45.334 -72.999 -80.001s-26 -75.334 -26 -122.001c0 -74 19.833 -131.667 59.5 -173
s93.834 -62 162.501 -62c50.667 0 94.167 15 130.5 45s59.833 71.667 70.5 125h-239v101h357v-136c-10 -46.667 -29.5 -89.667 -58.5 -129s-67 -70.833 -114 -94.5s-100.833 -35.5 -161.5 -35.5c-69.333 0 -130.5 15.167 -183.5 45.5s-94 72.666 -123 126.999
s-43.5 116.5 -43.5 186.5s14.5 132.167 43.5 186.5s69.833 96.833 122.5 127.5s113.667 46 183 46c86 0 157.333 -21.167 214 -63.5z" />
    <glyph glyph-name="H" unicode="H" horiz-adv-x="713" 
d="M649 706v-706h-142v307h-302v-307h-141v706h141v-286h302v286h142z" />
    <glyph glyph-name="I" unicode="I" horiz-adv-x="269" 
d="M205 706v-706h-141v706h141z" />
    <glyph glyph-name="J" unicode="J" horiz-adv-x="524" 
d="M465 706v-498c0 -68 -18.833 -120.833 -56.5 -158.5s-89.834 -56.5 -156.501 -56.5c-72 0 -129 20.667 -171 62s-63 100.333 -63 177h139c0 -36 7.5 -63.667 22.5 -83s37.167 -29 66.5 -29c26.667 0 46.334 7.83301 59.001 23.5s19 37.167 19 64.5v498h141z" />
    <glyph glyph-name="K" unicode="K" horiz-adv-x="651" 
d="M338 359l299 -359h-171l-261 323v-323h-141v706h141v-317l262 317h170z" />
    <glyph glyph-name="L" unicode="L" horiz-adv-x="462" 
d="M205 108h237v-108h-378v706h141v-598z" />
    <glyph glyph-name="M" unicode="M" horiz-adv-x="889" 
d="M825 698v-698h-140v487l-179 -487h-122l-179 485v-485h-141v698h171l212 -525l208 525h170z" />
    <glyph glyph-name="N" unicode="N" horiz-adv-x="726" 
d="M662 0h-141l-316 480v-480h-141v706h141l316 -484v484h141v-706z" />
    <glyph glyph-name="O" unicode="O" horiz-adv-x="790" 
d="M574.5 670c53.667 -30.667 96 -73.5 127 -128.5s46.5 -117.167 46.5 -186.5s-15.5 -131.666 -46.5 -186.999s-73.333 -98.333 -127 -129s-113.5 -46 -179.5 -46s-125.833 15.333 -179.5 46s-96 73.667 -127 129s-46.5 117.666 -46.5 186.999s15.5 131.5 46.5 186.5
s73.333 97.833 127 128.5s113.5 46 179.5 46s125.833 -15.333 179.5 -46zM286 558c-31.333 -18.667 -55.833 -45.5 -73.5 -80.5s-26.5 -75.833 -26.5 -122.5s8.83301 -87.5 26.5 -122.5s42.167 -61.833 73.5 -80.5s67.666 -28 108.999 -28s77.666 9.33301 108.999 28
s55.833 45.5 73.5 80.5s26.5 75.833 26.5 122.5s-8.83301 87.5 -26.5 122.5s-42.167 61.833 -73.5 80.5s-67.666 28 -108.999 28s-77.666 -9.33301 -108.999 -28z" />
    <glyph glyph-name="P" unicode="P" horiz-adv-x="601" 
d="M205 262l0.00195312 -262h-141v706h257c83.333 0 146.166 -20 188.499 -60s63.5 -94.333 63.5 -163c0 -67.333 -21.833 -121 -65.5 -161s-105.834 -60 -186.501 -60h-116zM430.002 483c0 35.333 -9.66699 62.333 -29 81s-51 28 -95 28h-101v-217h101
c82.667 0 124 36 124 108z" />
    <glyph glyph-name="Q" unicode="Q" horiz-adv-x="790" 
d="M593 -129l-110 132.001c-26.667 -6.66699 -56 -10 -88 -10c-66 0 -125.833 15.333 -179.5 46s-96 73.667 -127 129s-46.5 117.666 -46.5 186.999s15.5 131.5 46.5 186.5s73.333 97.833 127 128.5s113.5 46 179.5 46s125.833 -15.333 179.5 -46s96 -73.5 127 -128.5
s46.5 -117.167 46.5 -186.5c0 -64.667 -13.333 -123.167 -40 -175.5s-63.667 -94.5 -111 -126.5l167 -182h-171zM212.5 232.501c17.667 -35 42.167 -61.833 73.5 -80.5s67.666 -28 108.999 -28s77.666 9.33301 108.999 28s55.833 45.5 73.5 80.5s26.5 75.833 26.5 122.5
s-8.83301 87.5 -26.5 122.5s-42.167 61.833 -73.5 80.5s-67.666 28 -108.999 28s-77.666 -9.33301 -108.999 -28s-55.833 -45.5 -73.5 -80.5s-26.5 -75.833 -26.5 -122.5s8.83301 -87.5 26.5 -122.5z" />
    <glyph glyph-name="R" unicode="R" horiz-adv-x="616" 
d="M432 0l-165 275h-62v-275h-141v706h269c82 0 144.5 -20 187.5 -60s64.5 -92.667 64.5 -158c0 -53.333 -14.833 -98 -44.5 -134s-72.5 -60 -128.5 -72l176 -282h-156zM205 372h116c80.667 0 121 35.667 121 107c0 34 -9.83301 60.5 -29.5 79.5s-50.167 28.5 -91.5 28.5
h-116v-215z" />
    <glyph glyph-name="S" unicode="S" horiz-adv-x="589" 
d="M522 93.5c-18 -30.333 -44.667 -54.6631 -80 -72.9961s-78.333 -27.5 -129 -27.5c-50 0 -94.667 8.5 -134 25.5s-70.833 41.5 -94.5 73.5s-37.167 69.333 -40.5 112h150c3.33301 -28.667 14.833 -52.5 34.5 -71.5s45.834 -28.5 78.501 -28.5
c29.333 0 51.833 7.83301 67.5 23.5s23.5 35.834 23.5 60.501c0 22 -6.33301 40.167 -19 54.5s-28.667 25.833 -48 34.5s-46 18.667 -80 30c-44 14.667 -80 29.167 -108 43.5s-51.833 35.166 -71.5 62.499s-29.5 63 -29.5 107c0 60.667 21.833 108.5 65.5 143.5
s101.5 52.5 173.5 52.5c74.667 0 134.167 -18 178.5 -54s69.5 -84 75.5 -144h-152c-4 25.333 -14.667 46.166 -32 62.499s-41 24.5 -71 24.5c-26 0 -47 -6.83301 -63 -20.5s-24 -33.5 -24 -59.5c0 -20.667 6.16699 -37.834 18.5 -51.501s28 -24.834 47 -33.501
s44.833 -18.334 77.5 -29.001c45.333 -16 82.166 -31 110.499 -45s52.5 -35 72.5 -63s30 -64.667 30 -110c0 -36 -9 -69.167 -27 -99.5z" />
    <glyph glyph-name="T" unicode="T" horiz-adv-x="558" 
d="M544 706v-112h-195v-594h-141v594h-194v112h530z" />
    <glyph glyph-name="U" unicode="U" horiz-adv-x="683" 
d="M200 706l0.00195312 -414c0 -55.333 12.167 -96.833 36.5 -124.5s59.5 -41.5 105.5 -41.5c45.333 0 80.166 13.833 104.499 41.5s36.5 69.167 36.5 124.5v414h140v-414c0 -65.333 -12.167 -120.5 -36.5 -165.5s-58 -78.5 -101 -100.5s-91.833 -33 -146.5 -33
c-84.667 0 -152.334 25.333 -203.001 76s-76 125 -76 223v414h140z" />
    <glyph glyph-name="V" unicode="V" horiz-adv-x="705" 
d="M163 706l189 -559l190 559h151l-250 -706h-181l-250 706h151z" />
    <glyph glyph-name="W" unicode="W" horiz-adv-x="1022" 
d="M990 706l-173 -706h-174l-132 512l-133 -512h-173l-173 706h153l108 -547l140 547h155l141 -547l108 547h153z" />
    <glyph glyph-name="X" unicode="X" horiz-adv-x="658" 
d="M479 0l-159 241l-141 -241h-161l222 361l-228 345h167l156 -236l139 236h161l-221 -355l232 -351h-167z" />
    <glyph glyph-name="Y" unicode="Y" horiz-adv-x="645" 
d="M633 706l-239 -459v-247h-142v247l-240 459h162l150 -309l150 309h159z" />
    <glyph glyph-name="Z" unicode="Z" horiz-adv-x="573" 
d="M200 114h329v-114h-485v108l322 485h-317v113h476v-108z" />
    <glyph glyph-name="bracketleft" unicode="[" horiz-adv-x="407" 
d="M358 947v-114h-134v-900h134v-114h-267v1128h267z" />
    <glyph glyph-name="backslash" unicode="\" horiz-adv-x="716" 
d="M418 -181l-286 1128h136l285 -1128h-135z" />
    <glyph glyph-name="bracketright" unicode="]" horiz-adv-x="406" 
d="M48 -181v114h135v900h-135v114h267v-1128h-267z" />
    <glyph glyph-name="asciicircum" unicode="^" horiz-adv-x="676" 
d="M171 167h-140l240 533h135l239 -533h-140l-166 370z" />
    <glyph glyph-name="underscore" unicode="_" horiz-adv-x="672" 
d="M632 -37v-137h-587v137h587z" />
    <glyph glyph-name="grave" unicode="`" horiz-adv-x="301" 
d="M252 692v-96l-230 108v108z" />
    <glyph glyph-name="a" unicode="a" horiz-adv-x="676" 
d="M401 528c33.333 -22 57 -51.668 71 -89.001v115h140v-554h-140v116c-14 -37.333 -37.667 -67.166 -71 -89.499s-73.333 -33.5 -120 -33.5s-88.667 11.333 -126 34s-66.5 55.5 -87.5 98.5s-31.5 93.5 -31.5 151.5s10.5 108.5 31.5 151.5s50.167 75.833 87.5 98.5
s79.333 34 126 34s86.667 -11 120 -33zM219 394.999c-26.667 -28.667 -40 -68 -40 -118s13.333 -89.167 40 -117.5s62 -42.5 106 -42.5c42.667 0 77.834 14.5 105.501 43.5s41.5 67.833 41.5 116.5c0 49.333 -13.833 88.5 -41.5 117.5s-62.834 43.5 -105.501 43.5
c-44 0 -79.333 -14.333 -106 -43z" />
    <glyph glyph-name="b" unicode="b" horiz-adv-x="676" 
d="M521 527c37.333 -22.667 66.5 -55.499 87.5 -98.499s31.5 -93.5 31.5 -151.5s-10.5 -108.5 -31.5 -151.5s-50.167 -75.833 -87.5 -98.5s-79.333 -34 -126 -34s-86.5 11.167 -119.5 33.5s-56.5 52.166 -70.5 89.499v-116h-141v740h141v-301c14 37.333 37.5 67 70.5 89
s72.833 33 119.5 33s88.667 -11.333 126 -34zM245.5 394.501c-27.667 -29 -41.5 -68.167 -41.5 -117.5c0 -48.667 13.833 -87.5 41.5 -116.5s62.834 -43.5 105.501 -43.5c44 0 79.333 14.167 106 42.5s40 67.5 40 117.5s-13.333 89.333 -40 118s-62 43 -106 43
c-42.667 0 -77.834 -14.5 -105.501 -43.5z" />
    <glyph glyph-name="c" unicode="c" horiz-adv-x="617" 
d="M491.5 503c47.667 -38.667 77.5 -91.332 89.5 -157.999h-149c-6 29.333 -19.667 52.5 -41 69.5s-48.333 25.5 -81 25.5c-37.333 0 -68.5 -13.833 -93.5 -41.5s-37.5 -68.167 -37.5 -121.5s12.5 -93.833 37.5 -121.5s56.167 -41.5 93.5 -41.5c32.667 0 59.667 8.5 81 25.5
s35 40.167 41 69.5h149c-12 -66.667 -41.833 -119.334 -89.5 -158.001s-107.167 -58 -178.5 -58c-54 0 -102 11.5 -144 34.5s-74.667 55.833 -98 98.5s-35 93 -35 151s11.667 108.5 35 151.5s56 75.833 98 98.5s90 34 144 34c71.333 0 130.833 -19.333 178.5 -58z" />
    <glyph glyph-name="d" unicode="d" horiz-adv-x="676" 
d="M400.5 528c33 -22 56.833 -51.668 71.5 -89.001v301h140v-740h-140v116c-14.667 -37.333 -38.5 -67.166 -71.5 -89.499s-72.833 -33.5 -119.5 -33.5s-88.667 11.333 -126 34s-66.5 55.5 -87.5 98.5s-31.5 93.5 -31.5 151.5s10.5 108.5 31.5 151.5
s50.167 75.833 87.5 98.5s79.333 34 126 34s86.5 -11 119.5 -33zM219 394.999c-26.667 -28.667 -40 -68 -40 -118s13.333 -89.167 40 -117.5s62 -42.5 106 -42.5c42.667 0 77.834 14.5 105.501 43.5s41.5 67.833 41.5 116.5c0 49.333 -13.833 88.5 -41.5 117.5
s-62.834 43.5 -105.501 43.5c-44 0 -79.333 -14.333 -106 -43z" />
    <glyph glyph-name="e" unicode="e" horiz-adv-x="621" 
d="M580 250l-406.002 0.00195312c2 -49.333 15.333 -85.666 40 -108.999s55.334 -35 92.001 -35c32.667 0 59.834 8 81.501 24s35.5 37.667 41.5 65h149c-7.33301 -38.667 -23 -73.334 -47 -104.001s-54.833 -54.667 -92.5 -72s-79.5 -26 -125.5 -26
c-54 0 -102 11.5 -144 34.5s-74.667 55.833 -98 98.5s-35 93 -35 151s11.667 108.5 35 151.5s56 75.833 98 98.5s90 34 144 34c54.667 0 102.5 -11.333 143.5 -34s72.667 -53.834 95 -93.501s33.5 -84.834 33.5 -135.501c0 -14 -1.66699 -30 -5 -48zM407.498 415.002
c-25.667 23.333 -57.167 35 -94.5 35c-38 0 -70 -11.667 -96 -35s-40.333 -57.666 -43 -102.999h269c2 45.333 -9.83301 79.666 -35.5 102.999z" />
    <glyph glyph-name="f" unicode="f" horiz-adv-x="358" 
d="M251 632c-16.667 -14.667 -25.001 -40.333 -25.001 -77v-1h112v-119h-112v-435h-141v435h-71v119h71v13c0 66 18.833 116.833 56.5 152.5s93.5 53.5 167.5 53.5c12.667 0 22.334 -0.333008 29.001 -1v-122c-41.333 2.66699 -70.333 -3.33301 -87 -18z" />
    <glyph glyph-name="g" unicode="g" horiz-adv-x="676" 
d="M401 528c33.333 -22 56.999 -51.667 70.999 -89v115h140v-556c0 -51.333 -10.167 -97.5 -30.5 -138.5s-50.666 -73.167 -90.999 -96.5s-89.166 -35 -146.499 -35c-80 0 -144.667 19 -194 57s-79.333 89.667 -90 155h139c8 -28 23.5 -49.833 46.5 -65.5
s52.5 -23.5 88.5 -23.5c41.333 0 74.666 12.167 99.999 36.5s38 61.166 38 110.499v118c-14 -37.333 -37.667 -67.166 -71 -89.499s-73.333 -33.5 -120 -33.5s-88.667 11.333 -126 34s-66.5 55.5 -87.5 98.5s-31.5 93.5 -31.5 151.5s10.5 108.5 31.5 151.5
s50.167 75.833 87.5 98.5s79.333 34 126 34s86.667 -11 120 -33zM218.999 395c-26.667 -28.667 -40 -68 -40 -118s13.333 -89.167 40 -117.5s62 -42.5 106 -42.5c42.667 0 77.834 14.5 105.501 43.5s41.5 67.833 41.5 116.5c0 49.333 -13.833 88.5 -41.5 117.5
s-62.834 43.5 -105.501 43.5c-44 0 -79.333 -14.333 -106 -43z" />
    <glyph glyph-name="h" unicode="h" horiz-adv-x="664" 
d="M547 499c38 -42 56.999 -101 56.999 -177v-322h-140v306c0 44 -11.333 78.167 -34 102.5s-53.667 36.5 -93 36.5c-40 0 -72 -13 -96 -39s-36 -63.333 -36 -112v-294h-141v740h141v-297c14.667 37.333 38.834 66.5 72.501 87.5s72.5 31.5 116.5 31.5c64 0 115 -21 153 -63
z" />
    <glyph glyph-name="i" unicode="i" horiz-adv-x="269" 
d="M72 768.5c16 14.333 37 21.5 63 21.5s47 -7.16699 63 -21.5s24 -32.833 24 -55.5c0 -22 -8 -40.167 -24 -54.5s-37 -21.5 -63 -21.5s-47 7.16699 -63 21.5s-24 32.5 -24 54.5c0 22.667 8 41.167 24 55.5zM205 554v-554h-141v554h141z" />
    <glyph glyph-name="j" unicode="j" horiz-adv-x="272" 
d="M75 658.5c-16 14.333 -24 32.5 -24 54.5c0 22.667 8 41.167 24 55.5s37 21.5 63 21.5s47 -7.33301 63 -22s24 -33 24 -55s-8 -40.167 -24 -54.5s-37 -21.5 -63 -21.5s-47 7.16699 -63 21.5zM-30 -142h40c20.667 0 35.5 4.33301 44.5 13s13.5 23.667 13.5 45v638h141v-638
c0 -120 -60.333 -180 -181 -180h-58v122z" />
    <glyph glyph-name="k" unicode="k" horiz-adv-x="564" 
d="M388 0l-183 242v-242h-141v740h141v-416l182 230h167l-233 -276l239 -278h-172z" />
    <glyph glyph-name="l" unicode="l" horiz-adv-x="269" 
d="M205 740v-740h-141v740h141z" />
    <glyph glyph-name="m" unicode="m" horiz-adv-x="1047" 
d="M928.5 499.5c39 -41.667 58.498 -100.833 58.498 -177.5v-322h-140v306c0 42.667 -10.833 75.5 -32.5 98.5s-51.5 34.5 -89.5 34.5c-39.333 0 -70.666 -12.333 -93.999 -37s-35 -60.667 -35 -108v-294h-140v306c0 42.667 -10.833 75.5 -32.5 98.5s-51.5 34.5 -89.5 34.5
c-39.333 0 -70.666 -12.333 -93.999 -37s-35 -60.667 -35 -108v-294h-141v554h141v-105c14.667 36 37.834 63.833 69.501 83.5s68.5 29.5 110.5 29.5c44.667 0 83.5 -10.667 116.5 -32s57.833 -52 74.5 -92c17.333 38 43.166 68.167 77.499 90.5s72.833 33.5 115.5 33.5
c67.333 0 120.5 -20.833 159.5 -62.5z" />
    <glyph glyph-name="n" unicode="n" horiz-adv-x="664" 
d="M547 499c38 -42 56.999 -101 56.999 -177v-322h-140v306c0 44 -11.333 78.167 -34 102.5s-53.667 36.5 -93 36.5c-40 0 -72 -13 -96 -39s-36 -63.333 -36 -112v-294h-141v554h141v-111c14.667 37.333 38.834 66.5 72.501 87.5s72.5 31.5 116.5 31.5c64 0 115 -21 153 -63
z" />
    <glyph glyph-name="o" unicode="o" horiz-adv-x="640" 
d="M465.5 527c43 -22.667 76.833 -55.5 101.5 -98.5s37 -93.5 37 -151.5s-12.333 -108.333 -37 -151s-58.5 -75.5 -101.5 -98.5s-91.5 -34.5 -145.5 -34.5s-102.5 11.5 -145.5 34.5s-76.833 55.833 -101.5 98.5s-37 93 -37 151s12.333 108.5 37 151.5
s58.5 75.833 101.5 98.5s91.5 34 145.5 34s102.5 -11.333 145.5 -34zM220 397.5c-27.333 -27.667 -41 -67.834 -41 -120.501s13.667 -92.834 41 -120.501s60.666 -41.5 99.999 -41.5s72.666 13.833 99.999 41.5s41 67.834 41 120.501s-13.667 92.834 -41 120.501
s-60.666 41.5 -99.999 41.5s-72.666 -13.833 -99.999 -41.5z" />
    <glyph glyph-name="p" unicode="p" horiz-adv-x="676" 
d="M521 527c37.333 -22.667 66.5 -55.499 87.5 -98.499s31.5 -93.5 31.5 -151.5s-10.5 -108.5 -31.5 -151.5s-50.167 -75.833 -87.5 -98.5s-79.333 -34 -126 -34s-86.5 11.167 -119.5 33.5s-56.5 52.166 -70.5 89.499v-380h-141v818h141v-115c14 37.333 37.5 67 70.5 89
s72.833 33 119.5 33s88.667 -11.333 126 -34zM245.5 394.501c-27.667 -29 -41.5 -68.167 -41.5 -117.5c0 -48.667 13.833 -87.5 41.5 -116.5s62.834 -43.5 105.501 -43.5c44 0 79.333 14.167 106 42.5s40 67.5 40 117.5s-13.333 89.333 -40 118s-62 43 -106 43
c-42.667 0 -77.834 -14.5 -105.501 -43.5z" />
    <glyph glyph-name="q" unicode="q" horiz-adv-x="676" 
d="M401 532.5c30.667 -18.333 54.332 -44.167 70.999 -77.5v99h140v-818h-140v371c-18 -36 -42.167 -63.833 -72.5 -83.5s-66.5 -29.5 -108.5 -29.5c-47.333 0 -90.333 11.667 -129 35s-69.334 56.333 -92.001 99s-34 91.667 -34 147c0 56 11.333 105.5 34 148.5
s53.334 76.5 92.001 100.5s81.667 36 129 36c42.667 0 79.334 -9.16699 110.001 -27.5zM220.498 394.499c-27.667 -28.333 -41.501 -68.167 -41.501 -119.5s13.833 -90.5 41.5 -117.5s62.5 -40.5 104.5 -40.5c26 0 50.333 6.16699 73 18.5s40.667 30.5 54 54.5s20 53 20 87
s-6.66699 63 -20 87s-31.166 42.167 -53.499 54.5s-46.833 18.5 -73.5 18.5c-42 0 -76.833 -14.167 -104.5 -42.5z" />
    <glyph glyph-name="r" unicode="r" horiz-adv-x="415" 
d="M287 531.5c34 20.333 72 30.501 114 30.501v-151h-41c-103.333 0 -155 -48 -155 -144v-267h-141v554h141v-106c20.667 35.333 48 63.166 82 83.499z" />
    <glyph glyph-name="s" unicode="s" horiz-adv-x="541" 
d="M417 510c40.667 -34 65.998 -79.3389 75.998 -136.006h-132c-5.33301 26.667 -17.333 48 -36 64s-43 24 -73 24c-24 0 -42.667 -5.66699 -56 -17s-20 -26.666 -20 -45.999c0 -15.333 5.33301 -27.666 16 -36.999s24 -16.666 40 -21.999s39 -11.666 69 -18.999
c42 -9.33301 76.167 -19.166 102.5 -29.499s49 -26.666 68 -48.999s28.5 -52.5 28.5 -90.5c0 -47.333 -18.5 -85.666 -55.5 -114.999s-86.833 -44 -149.5 -44c-72 0 -129.667 16.167 -173 48.5s-69.666 78.5 -78.999 138.5h135c3.33301 -27.333 15.333 -48.833 36 -64.5
s47.667 -23.5 81 -23.5c24 0 42.333 5.83301 55 17.5s19 26.834 19 45.501c0 16 -5.5 29 -16.5 39s-24.667 17.667 -41 23s-39.5 11.666 -69.5 18.999c-41.333 9.33301 -74.833 18.833 -100.5 28.5s-47.667 25.167 -66 46.5s-27.5 50.666 -27.5 87.999
c0 48 18.333 87 55 117s87.334 45 152.001 45c67.333 0 121.333 -17 162 -51z" />
    <glyph glyph-name="t" unicode="t" horiz-adv-x="397" 
d="M360 121v-120.999h-74c-62 0 -109.5 15 -142.5 45s-49.5 80 -49.5 150v240h-77v119h77v137h141v-137h124v-119h-124v-242c0 -26.667 5.33301 -45.334 16 -56.001s28.667 -16 54 -16h55z" />
    <glyph glyph-name="u" unicode="u" horiz-adv-x="658" 
d="M594 554v-554h-141v112c-14.667 -37.333 -38.834 -66.5 -72.501 -87.5s-72.5 -31.5 -116.5 -31.5c-64 0 -115 21 -153 63s-57 100.667 -57 176v322h140v-306c0 -44 11.333 -78.167 34 -102.5s53.334 -36.5 92.001 -36.5c40.667 0 73 13 97 39s36 63.333 36 112v294h141z
" />
    <glyph glyph-name="v" unicode="v" horiz-adv-x="609" 
d="M305 141l140 413h150l-205 -554h-172l-205 554h151z" />
    <glyph glyph-name="w" unicode="w" horiz-adv-x="863" 
d="M857 554l-149 -554h-156l-119 403l-122 -403h-156l-148 554h141l90 -428l123 428h149l124 -428l91 428h132z" />
    <glyph glyph-name="x" unicode="x" horiz-adv-x="567" 
d="M401 0l-126 178l-106 -178h-155l183 289l-187 265h158l123 -175l106 175h155l-186 -281l193 -273h-158z" />
    <glyph glyph-name="y" unicode="y" horiz-adv-x="607" 
d="M159 554l151 -376l140 376h155l-339 -818h-156l125 280l-233 538h157z" />
    <glyph glyph-name="z" unicode="z" horiz-adv-x="474" 
d="M178 118h272v-118h-426v112l255 325h-249v117h410v-111z" />
    <glyph glyph-name="braceleft" unicode="{" horiz-adv-x="425" 
d="M254 323c18.667 -24.667 28 -56.3301 28 -94.9971c0 -20 -3.33301 -49.333 -10 -88c-2.66699 -16 -5.16699 -33.5 -7.5 -52.5s-3.5 -37.5 -3.5 -55.5c0 -60.667 12.833 -111.334 38.5 -152.001s56.834 -69.334 93.501 -86.001v-11h-133
c-16.667 8.66699 -34.667 22.834 -54 42.501s-36.666 47.167 -51.999 82.5s-23 78 -23 128c0 23.333 1.66699 45.833 5 67.5s5.33301 34.5 6 38.5c6.66699 40 10 70 10 90c0 64.667 -34 102.667 -102 114v52c68 10.667 102 48.667 102 114c0 20 -3.33301 50 -10 90
c-0.666992 4 -2.66699 16.833 -6 38.5s-5 44.167 -5 67.5c0 50 7.66699 92.667 23 128s32.666 62.833 51.999 82.5s37.333 33.834 54 42.501h133v-11c-36.667 -16.667 -67.834 -45.334 -93.501 -86.001s-38.5 -91.334 -38.5 -152.001c0 -18 1.16699 -36.333 3.5 -55
s4.83301 -36 7.5 -52c6.66699 -38.667 10 -68.334 10 -89.001c0 -80 -37.667 -127.667 -113 -143v-2c38 -7.33301 66.333 -23.333 85 -48z" />
    <glyph glyph-name="bar" unicode="|" horiz-adv-x="233" 
d="M187 -121h-141v929h141v-929z" />
    <glyph glyph-name="braceright" unicode="}" horiz-adv-x="415" 
d="M149 504c0 18 1.33398 36.167 4.00098 54.5l5 34.5c7.33301 39.333 11 75 11 107c0 40 -6.16699 77.167 -18.5 111.5s-28.5 63.333 -48.5 87s-41.333 40.834 -64 51.501v11h131c16.667 -8.66699 34.667 -22.834 54 -42.501s36.666 -47.167 51.999 -82.5s23 -78 23 -128
c0 -23.333 -1.66699 -45.833 -5 -67.5s-5.33301 -34.5 -6 -38.5c-6.66699 -40 -10 -70 -10 -90c0 -28 7.5 -52.833 22.5 -74.5s41.5 -34.834 79.5 -39.501v-52c-38 -4 -64.5 -17 -79.5 -39s-22.5 -47 -22.5 -75c0 -20 3.33301 -50 10 -90
c0.666992 -4 2.66699 -16.833 6 -38.5s5 -44.167 5 -67.5c0 -50 -7.66699 -92.667 -23 -128s-32.666 -62.833 -51.999 -82.5s-37.333 -33.834 -54 -42.501h-131v11c22.667 10.667 44 27.834 64 51.501s36.167 52.667 48.5 87s18.5 71.5 18.5 111.5
c0 32.667 -3.66699 68.667 -11 108c-0.666992 5.33301 -2.33398 17 -5.00098 35s-4 35.667 -4 53c0 72.667 37.333 116.334 112 131.001v2c-74.667 15.333 -112 59 -112 131z" />
    <glyph glyph-name="asciitilde" unicode="~" horiz-adv-x="591" 
d="M260.5 404c16.333 -6.66699 35.166 -16 56.499 -28c18.667 -10 33.334 -17.333 44.001 -22s21.667 -7 33 -7c34 0 54.667 22.667 62 68h107c-10 -65.333 -30.333 -114 -61 -146s-69.334 -48 -116.001 -48c-20 0 -38 3.16699 -54 9.5s-35.333 15.833 -58 28.5
c-17.333 10 -31.5 17.333 -42.5 22s-22.5 7 -34.5 7c-34 0 -55 -22.667 -63 -68h-106c10.667 65.333 31.334 114 62.001 146s69 48 115 48c20.667 0 39.167 -3.33301 55.5 -10z" />
    <glyph glyph-name="uni00A0" unicode="&#xa0;" horiz-adv-x="218" 
 />
    <glyph glyph-name="exclamdown" unicode="&#xa1;" horiz-adv-x="367" 
d="M259 -173l-18 500h-119l-18 -500h155zM258 415v147h-152v-147h152z" />
    <glyph glyph-name="cent" unicode="&#xa2;" horiz-adv-x="583" 
d="M376.5 142c21.667 16 35.166 37.999 40.499 65.999h130c-6 -58.667 -29.167 -105.834 -69.5 -141.501s-90.5 -56.167 -150.5 -61.5v-92h-62v93c-70 6 -125.667 31.167 -167 75.5s-62 103.833 -62 178.5s20.5 134 61.5 178s96.833 69 167.5 75v90h62v-89
c60 -5.33301 110.167 -25.666 150.5 -60.999s63.5 -82.333 69.5 -141h-130c-6 28.667 -19.667 50.834 -41 66.501s-46.333 23.5 -75 23.5c-38.667 0 -70 -12.333 -94 -37s-36 -59.667 -36 -105c0 -46 12 -81.167 36 -105.5s55.333 -36.5 94 -36.5
c28.667 0 53.834 8 75.501 24z" />
    <glyph glyph-name="sterling" unicode="&#xa3;" horiz-adv-x="623" 
d="M274.5 184c-11.667 -28 -30.1689 -53.667 -55.502 -77h352v-111h-489l-18 70c32.667 29.333 56.667 59.333 72 90s23 67.334 23 110.001c0 9.33301 -1 19.333 -3 30h-117v95h89c-18 55.333 -27 104.333 -27 147c0 42 9.5 78.833 28.5 110.5s45.833 56 80.5 73
s74.334 25.5 119.001 25.5c72.667 0 129.834 -20.333 171.501 -61s65.5 -93.667 71.5 -159h-131c-3.33301 31.333 -14.333 56.666 -33 75.999s-43.334 29 -74.001 29c-29.333 0 -53 -9.5 -71 -28.5s-27 -45.833 -27 -80.5c0 -16 1.83301 -31.833 5.5 -47.5
s9.83398 -37.167 18.501 -64.5l6 -20h178v-95h-154c1.33301 -13.333 2 -23 2 -29c0 -27.333 -5.83301 -55 -17.5 -83z" />
    <glyph glyph-name="currency" unicode="&#xa4;" horiz-adv-x="562" 
d="M443 267l54 -54.001l-54 -54l-61 60c-28.667 -14 -62 -21 -100 -21c-38.667 0 -72.667 7.66699 -102 23l-62 -62l-53 54l56 55c-23.333 30.667 -35 67.334 -35 110.001c0 44 12.333 81 37 111l-58 57l53 54l65 -65c28 14 61 21 99 21c36 0 68.333 -6.66699 97 -20l64 64
l54 -54l-56 -55c26 -30 39 -67.667 39 -113c0 -42.667 -12.333 -79.667 -37 -111zM344.5 305.999c17 16.667 25.5 40.334 25.5 71.001s-8.5 54.5 -25.5 71.5s-37.833 25.5 -62.5 25.5s-45.167 -8.5 -61.5 -25.5s-24.5 -40.833 -24.5 -71.5s8.16699 -54.334 24.5 -71.001
s36.833 -25 61.5 -25s45.5 8.33301 62.5 25z" />
    <glyph glyph-name="yen" unicode="&#xa5;" horiz-adv-x="663" 
d="M489 410h114v-94h-163l-32 -61h195v-95h-199v-160h-142v160h-200v95h196l-32 61h-164v94h115l-155 296h162l150 -330l150 330h159z" />
    <glyph glyph-name="brokenbar" unicode="&#xa6;" horiz-adv-x="335" 
d="M97 808h141v-398h-141v398zM238 -121h-141v399h141v-399z" />
    <glyph glyph-name="section" unicode="&#xa7;" horiz-adv-x="583" 
d="M515 -33c0 -50 -19.001 -90.332 -57.001 -120.999s-91 -46 -159 -46c-66.667 0 -120 17.5 -160 52.5s-63 81.833 -69 140.5h139c5.33301 -61.333 36.333 -92 93 -92c21.333 0 38.333 4.83301 51 14.5s19 24.5 19 44.5c0 24 -11.333 44.667 -34 62
s-63.667 37.666 -123 60.999c-56.667 20.667 -100.5 45.5 -131.5 74.5s-46.5 65.167 -46.5 108.5c0 34.667 10 65.834 30 93.501s51 47.5 93 59.5c-28.667 19.333 -51 41.5 -67 66.5s-24 52.167 -24 81.5c0 50 19 90.167 57 120.5s91.333 45.5 160 45.5
c66.667 0 119.834 -17.5 159.501 -52.5s62.5 -81.833 68.5 -140.5h-140c-1.33301 28 -9.66602 50.333 -24.999 67s-37.333 25 -66 25c-22 0 -39.5 -4.83301 -52.5 -14.5s-19.5 -24.167 -19.5 -43.5c0 -24 11.5 -44.833 34.5 -62.5s64.167 -37.834 123.5 -60.501
c56.667 -22.667 100.5 -48.334 131.5 -77.001s46.5 -64.667 46.5 -108c0 -34 -9.83301 -64.167 -29.5 -90.5s-50.834 -47.166 -93.501 -62.499c60.667 -40 91 -88.667 91 -146zM214.999 200.001c18.667 -16.667 44.667 -25 78 -25c32.667 0 58.334 8.66699 77.001 26
s28 39 28 65c0 27.333 -9.33301 49.5 -28 66.5s-44.667 25.5 -78 25.5c-32.667 0 -58.334 -8.83301 -77.001 -26.5s-28 -39.5 -28 -65.5c0 -27.333 9.33301 -49.333 28 -66z" />
    <glyph glyph-name="dieresis" unicode="&#xa8;" horiz-adv-x="378" 
d="M49.5 731.5c12.333 12.333 27.166 18.5 44.499 18.5c18.667 0 34 -6.16699 46 -18.5s18 -27.5 18 -45.5c0 -17.333 -6 -32.166 -18 -44.499s-27.333 -18.5 -46 -18.5c-17.333 0 -32.166 6.16699 -44.499 18.5s-18.5 27.166 -18.5 44.499c0 18 6.16699 33.167 18.5 45.5z
M238 731.5c12 12.333 27 18.5 45 18.5s33.167 -6.16699 45.5 -18.5s18.5 -27.5 18.5 -45.5c0 -17.333 -6.16699 -32.166 -18.5 -44.499s-27.5 -18.5 -45.5 -18.5s-33 6.16699 -45 18.5s-18 27.166 -18 44.499c0 18 6 33.167 18 45.5z" />
    <glyph glyph-name="copyright" unicode="&#xa9;" horiz-adv-x="784" 
d="M210.5 667.5c-53 -30.333 -94.333 -72.667 -124 -127s-44.5 -115.833 -44.5 -184.5c0 -69.333 14.833 -131.166 44.5 -185.499s71 -96.833 124 -127.5s113.5 -46 181.5 -46c68.667 0 129.5 15.333 182.5 46s94.167 73.167 123.5 127.5s44 116.166 44 185.499
s-14.667 131 -44 185s-70.5 96.167 -123.5 126.5s-113.833 45.5 -182.5 45.5c-68 0 -128.5 -15.167 -181.5 -45.5zM551 627.999c45.333 -26 80.166 -62.5 104.499 -109.5s36.5 -101.167 36.5 -162.5s-12.167 -115.666 -36.5 -162.999s-59.166 -84.166 -104.499 -110.499
s-98.333 -39.5 -159 -39.5s-113.667 13.167 -159 39.5s-80.166 63.166 -104.499 110.499s-36.5 101.666 -36.5 162.999s12.167 115.5 36.5 162.5s59.166 83.5 104.499 109.5s98.333 39 159 39s113.667 -13 159 -39zM531.5 537.499
c38.333 -30.333 62.5 -71.8291 72.5 -124.496h-118c-7.33301 23.333 -19.5 41.666 -36.5 54.999s-36.833 20 -59.5 20c-30 0 -55 -11.5 -75 -34.5s-30 -55.833 -30 -98.5s10 -75.5 30 -98.5s45 -34.5 75 -34.5c22.667 0 42.5 6.66699 59.5 20s29.167 31.666 36.5 54.999h118
c-10 -52.667 -34.167 -94.167 -72.5 -124.5s-83.5 -45.5 -135.5 -45.5c-42 0 -79.833 9.16699 -113.5 27.5s-60 44.666 -79 78.999s-28.5 74.833 -28.5 121.5s9.5 87.167 28.5 121.5s45.333 60.666 79 78.999s71.5 27.5 113.5 27.5c52 0 97.167 -15.167 135.5 -45.5z" />
    <glyph glyph-name="ordfeminine" unicode="&#xaa;" horiz-adv-x="462" 
d="M319 635v71.001h106v-351h-106v70c-24 -50.667 -66.333 -76 -127 -76c-48.667 0 -88.167 16.167 -118.5 48.5s-45.5 76.166 -45.5 131.499c0 56 15.167 100.333 45.5 133s69.5 49 117.5 49c61.333 0 104 -25.333 128 -76zM162.5 599.501
c-17 -17.667 -25.501 -41.166 -25.501 -70.499s8.33301 -52.333 25 -69s38.334 -25 65.001 -25s48.667 8.5 66 25.5s26 40.167 26 69.5s-8.66699 52.666 -26 69.999s-39.333 26 -66 26c-26 0 -47.5 -8.83301 -64.5 -26.5z" />
    <glyph glyph-name="guillemotleft" unicode="&#xab;" horiz-adv-x="520" 
d="M134 120l-89 175l89 175h131l-91 -175l91 -175h-131zM345 120l-89 175l89 175h131l-91 -175l91 -175h-131z" />
    <glyph glyph-name="logicalnot" unicode="&#xac;" horiz-adv-x="760" 
d="M703 438v-243h-141v136h-526v107h667z" />
    <glyph glyph-name="uni00AD" unicode="&#xad;" horiz-adv-x="523" 
d="M423 415v-117h-425v117h425z" />
    <glyph glyph-name="registered" unicode="&#xae;" horiz-adv-x="806" 
d="M591.5 668c54.333 -30 96.666 -72 126.999 -126s45.5 -116 45.5 -186c0 -69.333 -15.167 -131.166 -45.5 -185.499s-72.666 -96.833 -126.999 -127.5s-116.833 -46 -187.5 -46s-133.5 15.333 -188.5 46s-97.667 73.167 -128 127.5s-45.5 116.166 -45.5 185.499
c0 70 15.167 132 45.5 186s73 96 128 126s117.833 45 188.5 45s133.167 -15 187.5 -45zM568.5 85.5c47 25.667 83.167 61.8311 108.5 108.498s38 100.667 38 162c0 62.667 -12.667 117.334 -38 164.001s-61.333 82.834 -108 108.501s-101.667 38.5 -165 38.5
s-118.5 -12.667 -165.5 -38s-83.167 -61.5 -108.5 -108.5s-38 -101.833 -38 -164.5c0 -62 12.667 -116.167 38 -162.5s61.5 -82.333 108.5 -108s102.167 -38.5 165.5 -38.5c62.667 0 117.5 12.833 164.5 38.5zM555 373.497c-18 -22.333 -44.668 -37.168 -80.001 -44.501
l112 -181h-97l-106 176h-37v-176h-89v434h168c52.667 0 91.834 -12.167 117.501 -36.5s38.5 -55.166 38.5 -92.499c0 -30.667 -9 -57.167 -27 -79.5zM346.999 381.995l71 0.000976562c49.333 0 74 19.667 74 59c0 19.333 -5.66699 34.166 -17 44.499s-30.333 15.5 -57 15.5
h-71v-119z" />
    <glyph glyph-name="macron" unicode="&#xaf;" horiz-adv-x="426" 
d="M404 732v-95h-382v95h382z" />
    <glyph glyph-name="degree" unicode="&#xb0;" horiz-adv-x="440" 
d="M361.5 657.5c35 -31.667 52.501 -75.166 52.501 -130.499c0 -54.667 -17.167 -98.334 -51.5 -131.001s-80.833 -49 -139.5 -49s-106.167 16.5 -142.5 49.5s-54.5 76.5 -54.5 130.5c0 55.333 17.667 98.833 53 130.5s82.666 47.5 141.999 47.5
c58.667 0 105.5 -15.833 140.5 -47.5zM159.501 602.501c-16.333 -17.667 -24.499 -43.167 -24.499 -76.5c0 -32.667 8.5 -57.834 25.5 -75.501s37.833 -26.5 62.5 -26.5c24 0 43.667 8.83301 59 26.5s23 42.834 23 75.501c0 33.333 -7.83301 58.833 -23.5 76.5
s-35.834 26.5 -60.501 26.5s-45.167 -8.83301 -61.5 -26.5z" />
    <glyph glyph-name="plusminus" unicode="&#xb1;" horiz-adv-x="566" 
d="M351 363v-141h187v-128h-510v128h187v141h-187v128h187v141h136v-141h187v-128h-187z" />
    <glyph glyph-name="twosuperior" unicode="&#xb2;" horiz-adv-x="374" 
d="M147 434l193 -0.000976562v-82h-295v77l126 87c19.333 13.333 34 26.833 44 40.5s15 28.5 15 44.5c0 12 -3.5 21 -10.5 27s-15.833 9 -26.5 9c-28 0 -43.667 -18.667 -47 -56h-106c2.66699 38.667 18.5 70.334 47.5 95.001s68.5 37 118.5 37c44 0 77.5 -10 100.5 -30
s34.5 -44.667 34.5 -74c0 -26 -9.33301 -49 -28 -69s-49 -41 -91 -63z" />
    <glyph glyph-name="threesuperior" unicode="&#xb3;" horiz-adv-x="363" 
d="M291.5 685c25.667 -18.667 38.499 -43.332 38.499 -73.999c0 -42 -24 -68 -72 -78v-3c52 -12.667 78 -40.334 78 -83.001c0 -30 -13 -54 -39 -72s-62 -27 -108 -27c-55.333 0 -95.666 10 -120.999 30s-40 49.667 -44 89h111c1.33301 -16.667 5.83301 -28.167 13.5 -34.5
s18.167 -9.5 31.5 -9.5c29.333 0 44 14 44 42c0 15.333 -4.66699 26.833 -14 34.5s-22.333 11.5 -39 11.5h-43v40h38c34.667 0 52 15.333 52 46c0 12 -3.83301 21.833 -11.5 29.5s-17.834 11.5 -30.501 11.5c-26.667 0 -42 -14.667 -46 -44h-102c2 34 15.833 62.333 41.5 85
s64.834 34 117.501 34c44 0 78.833 -9.33301 104.5 -28z" />
    <glyph glyph-name="acute" unicode="&#xb4;" horiz-adv-x="274" 
d="M252 704l-230 -108v96l230 120v-108z" />
    <glyph glyph-name="uni00B5" unicode="&#xb5;" horiz-adv-x="698" 
d="M619 554v-554h-141v106c-14.667 -36 -37.5 -63.833 -68.5 -83.5s-67.5 -29.5 -109.5 -29.5c-34 0 -61 10 -81 30v-287h-140v818h140v-289c0 -48 12 -85 36 -111s56 -39 96 -39c38.667 0 69.5 12.5 92.5 37.5s34.5 61.167 34.5 108.5v293h141z" />
    <glyph glyph-name="paragraph" unicode="&#xb6;" horiz-adv-x="662" 
d="M583 0l-114 -0.00195312v592h-78v-592h-113v278h-19c-53.333 0 -97.833 9.5 -133.5 28.5s-62 44.333 -79 76s-25.5 66.834 -25.5 105.501s8.5 73.834 25.5 105.501s43.333 57 79 76s80.167 28.5 133.5 28.5h324v-698z" />
    <glyph glyph-name="periodcentered" unicode="&#xb7;" horiz-adv-x="229" 
d="M190 398v-147h-152v147h152z" />
    <glyph glyph-name="cedilla" unicode="&#xb8;" horiz-adv-x="305" 
d="M245.5 -76c25 -17.333 37.498 -44.333 37.498 -81c0 -36 -12.667 -62.833 -38 -80.5s-56.666 -26.5 -93.999 -26.5h-129v76h114c34 0 51 12 51 36c0 10 -4.16699 18 -12.5 24s-21.166 9 -38.499 9h-66v126h85v-59c35.333 1.33301 65.5 -6.66699 90.5 -24z" />
    <glyph glyph-name="onesuperior" unicode="&#xb9;" horiz-adv-x="233" 
d="M28 621v83h168v-352h-107v269h-61z" />
    <glyph glyph-name="ordmasculine" unicode="&#xba;" horiz-adv-x="447" 
d="M326.5 686c29.667 -15.333 52.667 -36.833 69 -64.5s24.5 -58.834 24.5 -93.501s-8.16699 -66 -24.5 -94s-39.333 -49.833 -69 -65.5s-63.834 -23.5 -102.501 -23.5s-72.834 7.83301 -102.501 23.5s-52.667 37.5 -69 65.5s-24.5 59.333 -24.5 94
s8.16699 65.834 24.5 93.501s39.333 49.167 69 64.5s63.834 23 102.501 23s72.834 -7.66699 102.501 -23zM160.5 600.5c-16.333 -17 -24.5 -41.167 -24.5 -72.5s8.33301 -55.666 25 -72.999s37.667 -26 63 -26s46.166 8.66699 62.499 26s24.5 41.666 24.5 72.999
s-8.16699 55.5 -24.5 72.5s-37.166 25.5 -62.499 25.5c-26 0 -47.167 -8.5 -63.5 -25.5z" />
    <glyph glyph-name="guillemotright" unicode="&#xbb;" horiz-adv-x="520" 
d="M142 295l-92 175h132l88 -175l-88 -175h-132zM353 295l-92 175h132l88 -175l-88 -175h-132z" />
    <glyph glyph-name="onequarter" unicode="&#xbc;" horiz-adv-x="732" 
d="M598 706l-371 -706h-138l372 706h137zM51 621v83h168v-352h-107v269h-61zM703 65h-43v-65h-107v65h-191v58l156 230h142v-227h43v-61zM558 274l-94 -145h94v145z" />
    <glyph glyph-name="onehalf" unicode="&#xbd;" horiz-adv-x="794" 
d="M598 708l-378 -708h-138l378 708h138zM113 621h-61v83h168v-352h-107v269zM536 81l193 -0.000976562v-82h-295v77l126 87c19.333 13.333 34 26.833 44 40.5s15 28.5 15 44.5c0 12 -3.5 21 -10.5 27s-15.833 9 -26.5 9c-28 0 -43.667 -18.667 -47 -56h-106
c2.66699 38.667 18.5 70.334 47.5 95.001s68.5 37 118.5 37c44 0 77.5 -10 100.5 -30s34.5 -44.667 34.5 -74c0 -26 -9.33301 -49 -28 -69s-49 -41 -91 -63z" />
    <glyph glyph-name="threequarters" unicode="&#xbe;" horiz-adv-x="827" 
d="M330.5 685c25.667 -18.667 38.499 -43.332 38.499 -73.999c0 -42 -24 -68 -72 -78v-3c52 -12.667 78 -40.334 78 -83.001c0 -30 -13 -54 -39 -72s-62 -27 -108 -27c-55.333 0 -95.666 10 -120.999 30s-40 49.667 -44 89h111c1.33301 -16.667 5.83301 -28.167 13.5 -34.5
s18.167 -9.5 31.5 -9.5c29.333 0 44 14 44 42c0 15.333 -4.66699 26.833 -14 34.5s-22.333 11.5 -39 11.5h-43v40h38c34.667 0 52 15.333 52 46c0 12 -3.83301 21.833 -11.5 29.5s-17.834 11.5 -30.501 11.5c-26.667 0 -42 -14.667 -46 -44h-102c2 34 15.833 62.333 41.5 85
s64.834 34 117.501 34c44 0 78.833 -9.33301 104.5 -28zM697.999 708.002l-361 -708h-138l361 708h138zM801.999 65.002h-43v-65h-106v65h-191v58l143 230h154v-227h43v-61zM657.999 286.002l-94 -160h94v160z" />
    <glyph glyph-name="questiondown" unicode="&#xbf;" horiz-adv-x="508" 
d="M125 -135c-41.333 36 -61.998 87 -61.998 153c0 66.667 21.167 117.667 63.5 153s99.166 53.666 170.499 54.999v101h133v-193h-57c-54 0 -96 -8.16699 -126 -24.5s-45 -46.5 -45 -90.5c0 -29.333 8.33301 -52.166 25 -68.499s39 -24.5 67 -24.5
c30.667 0 55 8.83301 73 26.5s27 40.5 27 68.5h133c1.33301 -40 -7.33398 -75.833 -26.001 -107.5s-46.167 -56.667 -82.5 -75s-79.5 -27.5 -129.5 -27.5c-68 0 -122.667 18 -164 54zM286.002 412v147h152v-147h-152z" />
    <glyph glyph-name="Agrave" unicode="&#xc0;" horiz-adv-x="704" 
d="M494 142h-283l-50 -142h-149l260 698h161l259 -698h-149zM456 249l-104 298l-104 -298h208zM427 844v-96l-230 108v108z" />
    <glyph glyph-name="Aacute" unicode="&#xc1;" horiz-adv-x="704" 
d="M494 142h-283l-50 -142h-149l260 698h161l259 -698h-149zM456 249l-104 298l-104 -298h208zM503 856l-230 -108v96l230 120v-108z" />
    <glyph glyph-name="Acircumflex" unicode="&#xc2;" horiz-adv-x="704" 
d="M494 142h-283l-50 -142h-149l260 698h161l259 -698h-149zM456 249l-104 298l-104 -298h208zM352 840l-149 -85v95l149 83l148 -83v-95z" />
    <glyph glyph-name="Atilde" unicode="&#xc3;" horiz-adv-x="704" 
d="M494 142h-283l-50 -142h-149l260 698h161l259 -698h-149zM456 249l-104 298l-104 -298h208zM326 886c10.667 -4.66699 23.333 -11.335 38 -20.002c12 -7.33301 21.833 -12.666 29.5 -15.999s15.834 -5 24.501 -5c12 0 21.833 4 29.5 12s12.5 19.667 14.5 35h73
c-6.66699 -44 -20.5 -76.833 -41.5 -98.5s-47.833 -32.5 -80.5 -32.5c-14 0 -26.5 2.33301 -37.5 7s-24.167 11.334 -39.5 20.001c-12 6.66699 -21.5 11.667 -28.5 15s-14.833 5 -23.5 5c-24.667 0 -39.334 -15.667 -44.001 -47h-72c14 88 54.333 132 121 132
c14 0 26.333 -2.33301 37 -7z" />
    <glyph glyph-name="Adieresis" unicode="&#xc4;" horiz-adv-x="704" 
d="M494 142h-283l-50 -142h-149l260 698h161l259 -698h-149zM456 249l-104 298l-104 -298h208zM212.5 883.5c12.333 12.333 27.166 18.5 44.499 18.5c18.667 0 34 -6.16699 46 -18.5s18 -27.5 18 -45.5c0 -17.333 -6 -32.166 -18 -44.499s-27.333 -18.5 -46 -18.5
c-17.333 0 -32.166 6.16699 -44.499 18.5s-18.5 27.166 -18.5 44.499c0 18 6.16699 33.167 18.5 45.5zM401 883.5c12 12.333 27 18.5 45 18.5s33.167 -6.16699 45.5 -18.5s18.5 -27.5 18.5 -45.5c0 -17.333 -6.16699 -32.166 -18.5 -44.499s-27.5 -18.5 -45.5 -18.5
s-33 6.16699 -45 18.5s-18 27.166 -18 44.499c0 18 6 33.167 18 45.5z" />
    <glyph glyph-name="Aring" unicode="&#xc5;" horiz-adv-x="704" 
d="M494 142h-283l-50 -142h-149l260 698h161l259 -698h-149zM456 249l-104 298l-104 -298h208zM433 953c22 -20.667 33 -48.667 33 -84s-11 -63.333 -33 -84s-49.333 -31 -82 -31s-60 10.5 -82 31.5s-33 48.833 -33 83.5s11 62.5 33 83.5s49.333 31.5 82 31.5
s60 -10.333 82 -31zM311.5 910.5c-10.333 -10.333 -15.5 -24.166 -15.5 -41.499s5.16699 -31.166 15.5 -41.499s23.5 -15.5 39.5 -15.5s29.333 5.16699 40 15.5s16 24.166 16 41.499s-5.33301 31.166 -16 41.499s-24 15.5 -40 15.5s-29.167 -5.16699 -39.5 -15.5z" />
    <glyph glyph-name="AE" unicode="&#xc6;" horiz-adv-x="926" 
d="M612 594v-181h244v-108h-244v-192h274v-113h-415v136h-241l-72 -136h-154l377 706h505v-112h-274zM471 243v346l-184 -346h184z" />
    <glyph glyph-name="Ccedilla" unicode="&#xc7;" horiz-adv-x="759" 
d="M602 645c58 -45.333 96.334 -106.997 115.001 -184.997h-148c-15.333 38 -39.166 68 -71.499 90s-71.166 33 -116.499 33c-37.333 0 -71 -9.33301 -101 -28s-53.333 -45.334 -70 -80.001s-25 -75.334 -25 -122.001c0 -46 8.33301 -86.333 25 -121s40 -61.334 70 -80.001
s63.667 -28 101 -28c45.333 0 84.166 11 116.499 33s56.166 52 71.499 90h148c-18.667 -78 -57 -139.667 -115 -185s-131 -68 -219 -68c-67.333 0 -126.833 15.167 -178.5 45.5s-91.667 72.833 -120 127.5s-42.5 116.667 -42.5 186c0 70 14.167 132.333 42.5 187
s68.166 97.167 119.499 127.5s111 45.5 179 45.5c88 0 161 -22.667 219 -68zM516.501 -75.9971c25 -17.333 37.498 -44.333 37.498 -81c0 -36 -12.667 -62.833 -38 -80.5s-56.666 -26.5 -93.999 -26.5h-129v76h114c34 0 51 12 51 36c0 10 -4.16699 18 -12.5 24
s-21.166 9 -38.499 9h-66v126h85v-59c35.333 1.33301 65.5 -6.66699 90.5 -24z" />
    <glyph glyph-name="Egrave" unicode="&#xc8;" horiz-adv-x="525" 
d="M205 594v-183h250v-108h-250v-190h280v-113h-421v706h421v-112h-280zM350 844v-96l-230 108v108z" />
    <glyph glyph-name="Eacute" unicode="&#xc9;" horiz-adv-x="525" 
d="M205 594v-183h250v-108h-250v-190h280v-113h-421v706h421v-112h-280zM426 856l-230 -108v96l230 120v-108z" />
    <glyph glyph-name="Ecircumflex" unicode="&#xca;" horiz-adv-x="525" 
d="M205 594v-183h250v-108h-250v-190h280v-113h-421v706h421v-112h-280zM275 840l-149 -85v95l149 83l148 -83v-95z" />
    <glyph glyph-name="Edieresis" unicode="&#xcb;" horiz-adv-x="525" 
d="M205 594v-183h250v-108h-250v-190h280v-113h-421v706h421v-112h-280zM135.5 883.5c12.333 12.333 27.166 18.5 44.499 18.5c18.667 0 34 -6.16699 46 -18.5s18 -27.5 18 -45.5c0 -17.333 -6 -32.166 -18 -44.499s-27.333 -18.5 -46 -18.5
c-17.333 0 -32.166 6.16699 -44.499 18.5s-18.5 27.166 -18.5 44.499c0 18 6.16699 33.167 18.5 45.5zM324 883.5c12 12.333 27 18.5 45 18.5s33.167 -6.16699 45.5 -18.5s18.5 -27.5 18.5 -45.5c0 -17.333 -6.16699 -32.166 -18.5 -44.499s-27.5 -18.5 -45.5 -18.5
s-33 6.16699 -45 18.5s-18 27.166 -18 44.499c0 18 6 33.167 18 45.5z" />
    <glyph glyph-name="Igrave" unicode="&#xcc;" horiz-adv-x="269" 
d="M205 706v-706h-141v706h141zM210 844v-96l-230 108v108z" />
    <glyph glyph-name="Iacute" unicode="&#xcd;" horiz-adv-x="269" 
d="M205 706v-706h-141v706h141zM286 856l-230 -108v96l230 120v-108z" />
    <glyph glyph-name="Icircumflex" unicode="&#xce;" horiz-adv-x="269" 
d="M205 706v-706h-141v706h141zM135 840l-149 -85v95l149 83l148 -83v-95z" />
    <glyph glyph-name="Idieresis" unicode="&#xcf;" horiz-adv-x="269" 
d="M205 706v-706h-141v706h141zM-4.5 883.5c12.333 12.333 27.166 18.5 44.499 18.5c18.667 0 34 -6.16699 46 -18.5s18 -27.5 18 -45.5c0 -17.333 -6 -32.166 -18 -44.499s-27.333 -18.5 -46 -18.5c-17.333 0 -32.166 6.16699 -44.499 18.5s-18.5 27.166 -18.5 44.499
c0 18 6.16699 33.167 18.5 45.5zM184 883.5c12 12.333 27 18.5 45 18.5s33.167 -6.16699 45.5 -18.5s18.5 -27.5 18.5 -45.5c0 -17.333 -6.16699 -32.166 -18.5 -44.499s-27.5 -18.5 -45.5 -18.5s-33 6.16699 -45 18.5s-18 27.166 -18 44.499c0 18 6 33.167 18 45.5z" />
    <glyph glyph-name="Eth" unicode="&#xd0;" horiz-adv-x="743" 
d="M529.5 662.5c55.667 -29 98.167 -70 127.5 -123s44 -114.833 44 -185.5c0 -70 -14.667 -131.667 -44 -185s-71.833 -94.833 -127.5 -124.5s-121.834 -44.5 -198.501 -44.5h-251v298h-76v113h76v295h251c76.667 0 142.834 -14.5 198.501 -43.5zM495.5 186
c41.667 40 62.5 96 62.5 168c0 72.667 -20.833 129 -62.5 169s-100.5 60 -176.5 60h-98v-172h171v-113h-171v-172h98c76 0 134.833 20 176.5 60z" />
    <glyph glyph-name="Ntilde" unicode="&#xd1;" horiz-adv-x="726" 
d="M662 0h-141l-316 480v-480h-141v706h141l316 -484v484h141v-706zM337 886c10.667 -4.66699 23.333 -11.335 38 -20.002c12 -7.33301 21.833 -12.666 29.5 -15.999s15.834 -5 24.501 -5c12 0 21.833 4 29.5 12s12.5 19.667 14.5 35h73
c-6.66699 -44 -20.5 -76.833 -41.5 -98.5s-47.833 -32.5 -80.5 -32.5c-14 0 -26.5 2.33301 -37.5 7s-24.167 11.334 -39.5 20.001c-12 6.66699 -21.5 11.667 -28.5 15s-14.833 5 -23.5 5c-24.667 0 -39.334 -15.667 -44.001 -47h-72c14 88 54.333 132 121 132
c14 0 26.333 -2.33301 37 -7z" />
    <glyph glyph-name="Ograve" unicode="&#xd2;" horiz-adv-x="790" 
d="M574.5 670c53.667 -30.667 96 -73.5 127 -128.5s46.5 -117.167 46.5 -186.5s-15.5 -131.666 -46.5 -186.999s-73.333 -98.333 -127 -129s-113.5 -46 -179.5 -46s-125.833 15.333 -179.5 46s-96 73.667 -127 129s-46.5 117.666 -46.5 186.999s15.5 131.5 46.5 186.5
s73.333 97.833 127 128.5s113.5 46 179.5 46s125.833 -15.333 179.5 -46zM286 558c-31.333 -18.667 -55.833 -45.5 -73.5 -80.5s-26.5 -75.833 -26.5 -122.5s8.83301 -87.5 26.5 -122.5s42.167 -61.833 73.5 -80.5s67.666 -28 108.999 -28s77.666 9.33301 108.999 28
s55.833 45.5 73.5 80.5s26.5 75.833 26.5 122.5s-8.83301 87.5 -26.5 122.5s-42.167 61.833 -73.5 80.5s-67.666 28 -108.999 28s-77.666 -9.33301 -108.999 -28zM470 844v-96l-230 108v108z" />
    <glyph glyph-name="Oacute" unicode="&#xd3;" horiz-adv-x="790" 
d="M574.5 670c53.667 -30.667 96 -73.5 127 -128.5s46.5 -117.167 46.5 -186.5s-15.5 -131.666 -46.5 -186.999s-73.333 -98.333 -127 -129s-113.5 -46 -179.5 -46s-125.833 15.333 -179.5 46s-96 73.667 -127 129s-46.5 117.666 -46.5 186.999s15.5 131.5 46.5 186.5
s73.333 97.833 127 128.5s113.5 46 179.5 46s125.833 -15.333 179.5 -46zM286 558c-31.333 -18.667 -55.833 -45.5 -73.5 -80.5s-26.5 -75.833 -26.5 -122.5s8.83301 -87.5 26.5 -122.5s42.167 -61.833 73.5 -80.5s67.666 -28 108.999 -28s77.666 9.33301 108.999 28
s55.833 45.5 73.5 80.5s26.5 75.833 26.5 122.5s-8.83301 87.5 -26.5 122.5s-42.167 61.833 -73.5 80.5s-67.666 28 -108.999 28s-77.666 -9.33301 -108.999 -28zM546 856l-230 -108v96l230 120v-108z" />
    <glyph glyph-name="Ocircumflex" unicode="&#xd4;" horiz-adv-x="790" 
d="M574.5 670c53.667 -30.667 96 -73.5 127 -128.5s46.5 -117.167 46.5 -186.5s-15.5 -131.666 -46.5 -186.999s-73.333 -98.333 -127 -129s-113.5 -46 -179.5 -46s-125.833 15.333 -179.5 46s-96 73.667 -127 129s-46.5 117.666 -46.5 186.999s15.5 131.5 46.5 186.5
s73.333 97.833 127 128.5s113.5 46 179.5 46s125.833 -15.333 179.5 -46zM286 558c-31.333 -18.667 -55.833 -45.5 -73.5 -80.5s-26.5 -75.833 -26.5 -122.5s8.83301 -87.5 26.5 -122.5s42.167 -61.833 73.5 -80.5s67.666 -28 108.999 -28s77.666 9.33301 108.999 28
s55.833 45.5 73.5 80.5s26.5 75.833 26.5 122.5s-8.83301 87.5 -26.5 122.5s-42.167 61.833 -73.5 80.5s-67.666 28 -108.999 28s-77.666 -9.33301 -108.999 -28zM396 840l-149 -85v95l149 83l148 -83v-95z" />
    <glyph glyph-name="Otilde" unicode="&#xd5;" horiz-adv-x="790" 
d="M574.5 670c53.667 -30.667 96 -73.5 127 -128.5s46.5 -117.167 46.5 -186.5s-15.5 -131.666 -46.5 -186.999s-73.333 -98.333 -127 -129s-113.5 -46 -179.5 -46s-125.833 15.333 -179.5 46s-96 73.667 -127 129s-46.5 117.666 -46.5 186.999s15.5 131.5 46.5 186.5
s73.333 97.833 127 128.5s113.5 46 179.5 46s125.833 -15.333 179.5 -46zM286 558c-31.333 -18.667 -55.833 -45.5 -73.5 -80.5s-26.5 -75.833 -26.5 -122.5s8.83301 -87.5 26.5 -122.5s42.167 -61.833 73.5 -80.5s67.666 -28 108.999 -28s77.666 9.33301 108.999 28
s55.833 45.5 73.5 80.5s26.5 75.833 26.5 122.5s-8.83301 87.5 -26.5 122.5s-42.167 61.833 -73.5 80.5s-67.666 28 -108.999 28s-77.666 -9.33301 -108.999 -28zM369 886c10.667 -4.66699 23.333 -11.335 38 -20.002c12 -7.33301 21.833 -12.666 29.5 -15.999
s15.834 -5 24.501 -5c12 0 21.833 4 29.5 12s12.5 19.667 14.5 35h73c-6.66699 -44 -20.5 -76.833 -41.5 -98.5s-47.833 -32.5 -80.5 -32.5c-14 0 -26.5 2.33301 -37.5 7s-24.167 11.334 -39.5 20.001c-12 6.66699 -21.5 11.667 -28.5 15s-14.833 5 -23.5 5
c-24.667 0 -39.334 -15.667 -44.001 -47h-72c14 88 54.333 132 121 132c14 0 26.333 -2.33301 37 -7z" />
    <glyph glyph-name="Odieresis" unicode="&#xd6;" horiz-adv-x="790" 
d="M574.5 670c53.667 -30.667 96 -73.5 127 -128.5s46.5 -117.167 46.5 -186.5s-15.5 -131.666 -46.5 -186.999s-73.333 -98.333 -127 -129s-113.5 -46 -179.5 -46s-125.833 15.333 -179.5 46s-96 73.667 -127 129s-46.5 117.666 -46.5 186.999s15.5 131.5 46.5 186.5
s73.333 97.833 127 128.5s113.5 46 179.5 46s125.833 -15.333 179.5 -46zM286 558c-31.333 -18.667 -55.833 -45.5 -73.5 -80.5s-26.5 -75.833 -26.5 -122.5s8.83301 -87.5 26.5 -122.5s42.167 -61.833 73.5 -80.5s67.666 -28 108.999 -28s77.666 9.33301 108.999 28
s55.833 45.5 73.5 80.5s26.5 75.833 26.5 122.5s-8.83301 87.5 -26.5 122.5s-42.167 61.833 -73.5 80.5s-67.666 28 -108.999 28s-77.666 -9.33301 -108.999 -28zM255.5 883.5c12.333 12.333 27.166 18.5 44.499 18.5c18.667 0 34 -6.16699 46 -18.5s18 -27.5 18 -45.5
c0 -17.333 -6 -32.166 -18 -44.499s-27.333 -18.5 -46 -18.5c-17.333 0 -32.166 6.16699 -44.499 18.5s-18.5 27.166 -18.5 44.499c0 18 6.16699 33.167 18.5 45.5zM444 883.5c12 12.333 27 18.5 45 18.5s33.167 -6.16699 45.5 -18.5s18.5 -27.5 18.5 -45.5
c0 -17.333 -6.16699 -32.166 -18.5 -44.499s-27.5 -18.5 -45.5 -18.5s-33 6.16699 -45 18.5s-18 27.166 -18 44.499c0 18 6 33.167 18 45.5z" />
    <glyph glyph-name="multiply" unicode="&#xd7;" horiz-adv-x="536" 
d="M414 121l-149 148l-146 -147l-91 90l147 148l-145 144l94 93l144 -144l142 143l91 -90l-143 -143l150 -150z" />
    <glyph glyph-name="Oslash" unicode="&#xd8;" horiz-adv-x="790" 
d="M658 602c28.667 -32 50.667 -69.001 66 -111.001s23 -87.333 23 -136c0 -69.333 -15.5 -131.666 -46.5 -186.999s-73.333 -98.333 -127 -129s-113.5 -46 -179.5 -46c-41.333 0 -80.666 6.33301 -117.999 19s-71.333 30.667 -102 54l-59 -65h-80l96 106
c-28.667 32 -50.834 69.167 -66.501 111.5s-23.5 87.833 -23.5 136.5c0 69.333 15.5 131.5 46.5 186.5s73.333 97.833 127 128.5s113.5 46 179.5 46c42 0 81.667 -6.33301 119 -19s71.333 -31 102 -55l60 67h79zM224 209.999l300.999 332.999c-36 28.667 -79.667 43 -131 43
c-41.333 0 -77.666 -9.33301 -108.999 -28s-55.833 -45.5 -73.5 -80.5s-26.5 -75.833 -26.5 -122.5c0 -57.333 13 -105.666 39 -144.999zM563.999 498.998l-299.999 -333c36 -28 79.333 -42 130 -42c41.333 0 77.666 9.33301 108.999 28s55.833 45.5 73.5 80.5
s26.5 75.833 26.5 122.5c0 56.667 -13 104.667 -39 144z" />
    <glyph glyph-name="Ugrave" unicode="&#xd9;" horiz-adv-x="683" 
d="M200 706l0.00195312 -414c0 -55.333 12.167 -96.833 36.5 -124.5s59.5 -41.5 105.5 -41.5c45.333 0 80.166 13.833 104.499 41.5s36.5 69.167 36.5 124.5v414h140v-414c0 -65.333 -12.167 -120.5 -36.5 -165.5s-58 -78.5 -101 -100.5s-91.833 -33 -146.5 -33
c-84.667 0 -152.334 25.333 -203.001 76s-76 125 -76 223v414h140zM416.002 844v-96l-230 108v108z" />
    <glyph glyph-name="Uacute" unicode="&#xda;" horiz-adv-x="683" 
d="M200 706l0.00195312 -414c0 -55.333 12.167 -96.833 36.5 -124.5s59.5 -41.5 105.5 -41.5c45.333 0 80.166 13.833 104.499 41.5s36.5 69.167 36.5 124.5v414h140v-414c0 -65.333 -12.167 -120.5 -36.5 -165.5s-58 -78.5 -101 -100.5s-91.833 -33 -146.5 -33
c-84.667 0 -152.334 25.333 -203.001 76s-76 125 -76 223v414h140zM492.002 856l-230 -108v96l230 120v-108z" />
    <glyph glyph-name="Ucircumflex" unicode="&#xdb;" horiz-adv-x="683" 
d="M200 706l0.00195312 -414c0 -55.333 12.167 -96.833 36.5 -124.5s59.5 -41.5 105.5 -41.5c45.333 0 80.166 13.833 104.499 41.5s36.5 69.167 36.5 124.5v414h140v-414c0 -65.333 -12.167 -120.5 -36.5 -165.5s-58 -78.5 -101 -100.5s-91.833 -33 -146.5 -33
c-84.667 0 -152.334 25.333 -203.001 76s-76 125 -76 223v414h140zM342.002 840l-149 -85v95l149 83l148 -83v-95z" />
    <glyph glyph-name="Udieresis" unicode="&#xdc;" horiz-adv-x="683" 
d="M200 706l0.00195312 -414c0 -55.333 12.167 -96.833 36.5 -124.5s59.5 -41.5 105.5 -41.5c45.333 0 80.166 13.833 104.499 41.5s36.5 69.167 36.5 124.5v414h140v-414c0 -65.333 -12.167 -120.5 -36.5 -165.5s-58 -78.5 -101 -100.5s-91.833 -33 -146.5 -33
c-84.667 0 -152.334 25.333 -203.001 76s-76 125 -76 223v414h140zM202.502 883.5c12.333 12.333 27.166 18.5 44.499 18.5c18.667 0 34 -6.16699 46 -18.5s18 -27.5 18 -45.5c0 -17.333 -6 -32.166 -18 -44.499s-27.333 -18.5 -46 -18.5
c-17.333 0 -32.166 6.16699 -44.499 18.5s-18.5 27.166 -18.5 44.499c0 18 6.16699 33.167 18.5 45.5zM391.002 883.5c12 12.333 27 18.5 45 18.5s33.167 -6.16699 45.5 -18.5s18.5 -27.5 18.5 -45.5c0 -17.333 -6.16699 -32.166 -18.5 -44.499s-27.5 -18.5 -45.5 -18.5
s-33 6.16699 -45 18.5s-18 27.166 -18 44.499c0 18 6 33.167 18 45.5z" />
    <glyph glyph-name="Yacute" unicode="&#xdd;" horiz-adv-x="645" 
d="M633 706l-239 -459v-247h-142v247l-240 459h162l150 -309l150 309h159zM474 856l-230 -108v96l230 120v-108z" />
    <glyph glyph-name="Thorn" unicode="&#xde;" horiz-adv-x="601" 
d="M205 139v-139h-141v706h140v-135h117c82.667 0 145.334 -19.5 188.001 -58.5s64 -91.833 64 -158.5c0 -65.333 -21.833 -117.5 -65.5 -156.5s-105.834 -58.5 -186.501 -58.5h-116zM430 354c0 35.333 -9.66699 62.167 -29 80.5s-51 27.5 -95 27.5h-101v-216h101
c82.667 0 124 36 124 108z" />
    <glyph glyph-name="germandbls" unicode="&#xdf;" horiz-adv-x="699" 
d="M643 296c22.667 -32.667 34 -72.665 34 -119.998c0 -34.667 -8.33301 -65.834 -25 -93.501s-40.167 -49.667 -70.5 -66s-65.5 -24.5 -105.5 -24.5c-68 0 -120 18 -156 54s-54.333 86 -55 150h116c1.33301 -25.333 9 -45.333 23 -60s33.667 -22 59 -22
s44.5 7.16699 57.5 21.5s19.5 31.5 19.5 51.5c0 21.333 -5.5 39.666 -16.5 54.999s-31.167 32 -60.5 50l-152 89v57l25 14c17.333 10 30 21.333 38 34s12 27.667 12 45c0 26.667 -7.83301 48.5 -23.5 65.5s-36.834 25.5 -63.501 25.5c-28.667 0 -51.667 -9 -69 -27
s-26 -42.667 -26 -74l1 -521h-141v492c0 86 21.5 150.5 64.5 193.5s105.5 64.5 187.5 64.5c44 0 82.167 -7.5 114.5 -22.5s57 -35.167 74 -60.5s25.5 -53.666 25.5 -84.999c0 -30 -7.33301 -56 -22 -78s-38.667 -41 -72 -57l94 -56
c52.667 -30.667 90.334 -62.334 113.001 -95.001z" />
    <glyph glyph-name="agrave" unicode="&#xe0;" horiz-adv-x="676" 
d="M401 528c33.333 -22 57 -51.668 71 -89.001v115h140v-554h-140v116c-14 -37.333 -37.667 -67.166 -71 -89.499s-73.333 -33.5 -120 -33.5s-88.667 11.333 -126 34s-66.5 55.5 -87.5 98.5s-31.5 93.5 -31.5 151.5s10.5 108.5 31.5 151.5s50.167 75.833 87.5 98.5
s79.333 34 126 34s86.667 -11 120 -33zM219 394.999c-26.667 -28.667 -40 -68 -40 -118s13.333 -89.167 40 -117.5s62 -42.5 106 -42.5c42.667 0 77.834 14.5 105.501 43.5s41.5 67.833 41.5 116.5c0 49.333 -13.833 88.5 -41.5 117.5s-62.834 43.5 -105.501 43.5
c-44 0 -79.333 -14.333 -106 -43zM400 691.999v-96l-230 108v108z" />
    <glyph glyph-name="aacute" unicode="&#xe1;" horiz-adv-x="676" 
d="M401 528c33.333 -22 57 -51.668 71 -89.001v115h140v-554h-140v116c-14 -37.333 -37.667 -67.166 -71 -89.499s-73.333 -33.5 -120 -33.5s-88.667 11.333 -126 34s-66.5 55.5 -87.5 98.5s-31.5 93.5 -31.5 151.5s10.5 108.5 31.5 151.5s50.167 75.833 87.5 98.5
s79.333 34 126 34s86.667 -11 120 -33zM219 394.999c-26.667 -28.667 -40 -68 -40 -118s13.333 -89.167 40 -117.5s62 -42.5 106 -42.5c42.667 0 77.834 14.5 105.501 43.5s41.5 67.833 41.5 116.5c0 49.333 -13.833 88.5 -41.5 117.5s-62.834 43.5 -105.501 43.5
c-44 0 -79.333 -14.333 -106 -43zM476 703.999l-230 -108v96l230 120v-108z" />
    <glyph glyph-name="acircumflex" unicode="&#xe2;" horiz-adv-x="676" 
d="M401 528c33.333 -22 57 -51.668 71 -89.001v115h140v-554h-140v116c-14 -37.333 -37.667 -67.166 -71 -89.499s-73.333 -33.5 -120 -33.5s-88.667 11.333 -126 34s-66.5 55.5 -87.5 98.5s-31.5 93.5 -31.5 151.5s10.5 108.5 31.5 151.5s50.167 75.833 87.5 98.5
s79.333 34 126 34s86.667 -11 120 -33zM219 394.999c-26.667 -28.667 -40 -68 -40 -118s13.333 -89.167 40 -117.5s62 -42.5 106 -42.5c42.667 0 77.834 14.5 105.501 43.5s41.5 67.833 41.5 116.5c0 49.333 -13.833 88.5 -41.5 117.5s-62.834 43.5 -105.501 43.5
c-44 0 -79.333 -14.333 -106 -43zM325 687.999l-149 -85v95l149 83l148 -83v-95z" />
    <glyph glyph-name="atilde" unicode="&#xe3;" horiz-adv-x="676" 
d="M401 528c33.333 -22 57 -51.668 71 -89.001v115h140v-554h-140v116c-14 -37.333 -37.667 -67.166 -71 -89.499s-73.333 -33.5 -120 -33.5s-88.667 11.333 -126 34s-66.5 55.5 -87.5 98.5s-31.5 93.5 -31.5 151.5s10.5 108.5 31.5 151.5s50.167 75.833 87.5 98.5
s79.333 34 126 34s86.667 -11 120 -33zM219 394.999c-26.667 -28.667 -40 -68 -40 -118s13.333 -89.167 40 -117.5s62 -42.5 106 -42.5c42.667 0 77.834 14.5 105.501 43.5s41.5 67.833 41.5 116.5c0 49.333 -13.833 88.5 -41.5 117.5s-62.834 43.5 -105.501 43.5
c-44 0 -79.333 -14.333 -106 -43zM299 733.999c10.667 -4.66699 23.333 -11.335 38 -20.002c12 -7.33301 21.833 -12.666 29.5 -15.999s15.834 -5 24.501 -5c12 0 21.833 4 29.5 12s12.5 19.667 14.5 35h73c-6.66699 -44 -20.5 -76.833 -41.5 -98.5
s-47.833 -32.5 -80.5 -32.5c-14 0 -26.5 2.33301 -37.5 7s-24.167 11.334 -39.5 20.001c-12 6.66699 -21.5 11.667 -28.5 15s-14.833 5 -23.5 5c-24.667 0 -39.334 -15.667 -44.001 -47h-72c14 88 54.333 132 121 132c14 0 26.333 -2.33301 37 -7z" />
    <glyph glyph-name="adieresis" unicode="&#xe4;" horiz-adv-x="676" 
d="M401 528c33.333 -22 57 -51.668 71 -89.001v115h140v-554h-140v116c-14 -37.333 -37.667 -67.166 -71 -89.499s-73.333 -33.5 -120 -33.5s-88.667 11.333 -126 34s-66.5 55.5 -87.5 98.5s-31.5 93.5 -31.5 151.5s10.5 108.5 31.5 151.5s50.167 75.833 87.5 98.5
s79.333 34 126 34s86.667 -11 120 -33zM219 394.999c-26.667 -28.667 -40 -68 -40 -118s13.333 -89.167 40 -117.5s62 -42.5 106 -42.5c42.667 0 77.834 14.5 105.501 43.5s41.5 67.833 41.5 116.5c0 49.333 -13.833 88.5 -41.5 117.5s-62.834 43.5 -105.501 43.5
c-44 0 -79.333 -14.333 -106 -43zM185.5 731.499c12.333 12.333 27.166 18.5 44.499 18.5c18.667 0 34 -6.16699 46 -18.5s18 -27.5 18 -45.5c0 -17.333 -6 -32.166 -18 -44.499s-27.333 -18.5 -46 -18.5c-17.333 0 -32.166 6.16699 -44.499 18.5s-18.5 27.166 -18.5 44.499
c0 18 6.16699 33.167 18.5 45.5zM374 731.499c12 12.333 27 18.5 45 18.5s33.167 -6.16699 45.5 -18.5s18.5 -27.5 18.5 -45.5c0 -17.333 -6.16699 -32.166 -18.5 -44.499s-27.5 -18.5 -45.5 -18.5s-33 6.16699 -45 18.5s-18 27.166 -18 44.499c0 18 6 33.167 18 45.5z" />
    <glyph glyph-name="aring" unicode="&#xe5;" horiz-adv-x="676" 
d="M401 528c33.333 -22 57 -51.668 71 -89.001v115h140v-554h-140v116c-14 -37.333 -37.667 -67.166 -71 -89.499s-73.333 -33.5 -120 -33.5s-88.667 11.333 -126 34s-66.5 55.5 -87.5 98.5s-31.5 93.5 -31.5 151.5s10.5 108.5 31.5 151.5s50.167 75.833 87.5 98.5
s79.333 34 126 34s86.667 -11 120 -33zM219 394.999c-26.667 -28.667 -40 -68 -40 -118s13.333 -89.167 40 -117.5s62 -42.5 106 -42.5c42.667 0 77.834 14.5 105.501 43.5s41.5 67.833 41.5 116.5c0 49.333 -13.833 88.5 -41.5 117.5s-62.834 43.5 -105.501 43.5
c-44 0 -79.333 -14.333 -106 -43zM406 800.999c22 -20.667 33 -48.667 33 -84s-11 -63.333 -33 -84s-49.333 -31 -82 -31s-60 10.5 -82 31.5s-33 48.833 -33 83.5s11 62.5 33 83.5s49.333 31.5 82 31.5s60 -10.333 82 -31zM284.5 758.499
c-10.333 -10.333 -15.5 -24.166 -15.5 -41.499s5.16699 -31.166 15.5 -41.499s23.5 -15.5 39.5 -15.5s29.333 5.16699 40 15.5s16 24.166 16 41.499s-5.33301 31.166 -16 41.499s-24 15.5 -40 15.5s-29.167 -5.16699 -39.5 -15.5z" />
    <glyph glyph-name="ae" unicode="&#xe6;" horiz-adv-x="1086" 
d="M1046 250l-428.997 0.00292969c3.33301 -49.333 18.166 -85.833 44.499 -109.5s59.5 -35.5 99.5 -35.5c35.333 0 64.666 8 87.999 24s38.333 38 45 66h149c-10.667 -59.333 -37 -107.833 -79 -145.5s-94 -56.5 -156 -56.5c-47.333 0 -88.333 10.667 -123 32
s-59 51.666 -73 90.999v-116h-140v116c-14 -37.333 -37.667 -67.166 -71 -89.499s-73.333 -33.5 -120 -33.5s-88.667 11.333 -126 34s-66.5 55.5 -87.5 98.5s-31.5 93.5 -31.5 151.5s10.5 108.5 31.5 151.5s50.167 75.833 87.5 98.5s79.333 34 126 34s86.667 -11 120 -33
s57 -51.667 71 -89v115h140v-116c14 39.333 38.333 69.666 73 90.999s75.667 32 123 32c49.333 0 92.166 -11.333 128.499 -34s64.333 -53.834 84 -93.501s29.5 -84.834 29.5 -135.501c0 -18 -1.33301 -34 -4 -48zM869.003 415.003c-28 23.333 -62.667 35.002 -104 35.002
c-39.333 0 -72.833 -11.333 -100.5 -34s-43.5 -57.334 -47.5 -104.001h291c2 45.333 -11 79.666 -39 102.999zM430.503 160.505c27.667 29 41.5 67.833 41.5 116.5c0 49.333 -13.833 88.5 -41.5 117.5s-62.834 43.5 -105.501 43.5c-44 0 -79.333 -14.333 -106 -43
s-40 -68 -40 -118s13.333 -89.167 40 -117.5s62 -42.5 106 -42.5c42.667 0 77.834 14.5 105.501 43.5z" />
    <glyph glyph-name="ccedilla" unicode="&#xe7;" horiz-adv-x="617" 
d="M491.5 503c47.667 -38.667 77.5 -91.332 89.5 -157.999h-149c-6 29.333 -19.667 52.5 -41 69.5s-48.333 25.5 -81 25.5c-37.333 0 -68.5 -13.833 -93.5 -41.5s-37.5 -68.167 -37.5 -121.5s12.5 -93.833 37.5 -121.5s56.167 -41.5 93.5 -41.5c32.667 0 59.667 8.5 81 25.5
s35 40.167 41 69.5h149c-12 -66.667 -41.833 -119.334 -89.5 -158.001s-107.167 -58 -178.5 -58c-54 0 -102 11.5 -144 34.5s-74.667 55.833 -98 98.5s-35 93 -35 151s11.667 108.5 35 151.5s56 75.833 98 98.5s90 34 144 34c71.333 0 130.833 -19.333 178.5 -58z
M421.5 -75.998c25 -17.333 37.498 -44.333 37.498 -81c0 -36 -12.667 -62.833 -38 -80.5s-56.666 -26.5 -93.999 -26.5h-129v76h114c34 0 51 12 51 36c0 10 -4.16699 18 -12.5 24s-21.166 9 -38.499 9h-66v126h85v-59c35.333 1.33301 65.5 -6.66699 90.5 -24z" />
    <glyph glyph-name="egrave" unicode="&#xe8;" horiz-adv-x="621" 
d="M580 250l-406.002 0.00195312c2 -49.333 15.333 -85.666 40 -108.999s55.334 -35 92.001 -35c32.667 0 59.834 8 81.501 24s35.5 37.667 41.5 65h149c-7.33301 -38.667 -23 -73.334 -47 -104.001s-54.833 -54.667 -92.5 -72s-79.5 -26 -125.5 -26
c-54 0 -102 11.5 -144 34.5s-74.667 55.833 -98 98.5s-35 93 -35 151s11.667 108.5 35 151.5s56 75.833 98 98.5s90 34 144 34c54.667 0 102.5 -11.333 143.5 -34s72.667 -53.834 95 -93.501s33.5 -84.834 33.5 -135.501c0 -14 -1.66699 -30 -5 -48zM407.498 415.002
c-25.667 23.333 -57.167 35 -94.5 35c-38 0 -70 -11.667 -96 -35s-40.333 -57.666 -43 -102.999h269c2 45.333 -9.83301 79.666 -35.5 102.999zM385.998 692.002v-96l-230 108v108z" />
    <glyph glyph-name="eacute" unicode="&#xe9;" horiz-adv-x="621" 
d="M580 250l-406.002 0.00195312c2 -49.333 15.333 -85.666 40 -108.999s55.334 -35 92.001 -35c32.667 0 59.834 8 81.501 24s35.5 37.667 41.5 65h149c-7.33301 -38.667 -23 -73.334 -47 -104.001s-54.833 -54.667 -92.5 -72s-79.5 -26 -125.5 -26
c-54 0 -102 11.5 -144 34.5s-74.667 55.833 -98 98.5s-35 93 -35 151s11.667 108.5 35 151.5s56 75.833 98 98.5s90 34 144 34c54.667 0 102.5 -11.333 143.5 -34s72.667 -53.834 95 -93.501s33.5 -84.834 33.5 -135.501c0 -14 -1.66699 -30 -5 -48zM407.498 415.002
c-25.667 23.333 -57.167 35 -94.5 35c-38 0 -70 -11.667 -96 -35s-40.333 -57.666 -43 -102.999h269c2 45.333 -9.83301 79.666 -35.5 102.999zM461.998 704.002l-230 -108v96l230 120v-108z" />
    <glyph glyph-name="ecircumflex" unicode="&#xea;" horiz-adv-x="621" 
d="M580 250l-406.002 0.00195312c2 -49.333 15.333 -85.666 40 -108.999s55.334 -35 92.001 -35c32.667 0 59.834 8 81.501 24s35.5 37.667 41.5 65h149c-7.33301 -38.667 -23 -73.334 -47 -104.001s-54.833 -54.667 -92.5 -72s-79.5 -26 -125.5 -26
c-54 0 -102 11.5 -144 34.5s-74.667 55.833 -98 98.5s-35 93 -35 151s11.667 108.5 35 151.5s56 75.833 98 98.5s90 34 144 34c54.667 0 102.5 -11.333 143.5 -34s72.667 -53.834 95 -93.501s33.5 -84.834 33.5 -135.501c0 -14 -1.66699 -30 -5 -48zM407.498 415.002
c-25.667 23.333 -57.167 35 -94.5 35c-38 0 -70 -11.667 -96 -35s-40.333 -57.666 -43 -102.999h269c2 45.333 -9.83301 79.666 -35.5 102.999zM310.998 688.002l-149 -85v95l149 83l148 -83v-95z" />
    <glyph glyph-name="edieresis" unicode="&#xeb;" horiz-adv-x="621" 
d="M580 250l-406.002 0.00195312c2 -49.333 15.333 -85.666 40 -108.999s55.334 -35 92.001 -35c32.667 0 59.834 8 81.501 24s35.5 37.667 41.5 65h149c-7.33301 -38.667 -23 -73.334 -47 -104.001s-54.833 -54.667 -92.5 -72s-79.5 -26 -125.5 -26
c-54 0 -102 11.5 -144 34.5s-74.667 55.833 -98 98.5s-35 93 -35 151s11.667 108.5 35 151.5s56 75.833 98 98.5s90 34 144 34c54.667 0 102.5 -11.333 143.5 -34s72.667 -53.834 95 -93.501s33.5 -84.834 33.5 -135.501c0 -14 -1.66699 -30 -5 -48zM407.498 415.002
c-25.667 23.333 -57.167 35 -94.5 35c-38 0 -70 -11.667 -96 -35s-40.333 -57.666 -43 -102.999h269c2 45.333 -9.83301 79.666 -35.5 102.999zM171.498 731.502c12.333 12.333 27.166 18.5 44.499 18.5c18.667 0 34 -6.16699 46 -18.5s18 -27.5 18 -45.5
c0 -17.333 -6 -32.166 -18 -44.499s-27.333 -18.5 -46 -18.5c-17.333 0 -32.166 6.16699 -44.499 18.5s-18.5 27.166 -18.5 44.499c0 18 6.16699 33.167 18.5 45.5zM359.998 731.502c12 12.333 27 18.5 45 18.5s33.167 -6.16699 45.5 -18.5s18.5 -27.5 18.5 -45.5
c0 -17.333 -6.16699 -32.166 -18.5 -44.499s-27.5 -18.5 -45.5 -18.5s-33 6.16699 -45 18.5s-18 27.166 -18 44.499c0 18 6 33.167 18 45.5z" />
    <glyph glyph-name="igrave" unicode="&#xec;" horiz-adv-x="299" 
d="M220 554v-554h-141v554h141zM225 692v-96l-230 108v108z" />
    <glyph glyph-name="iacute" unicode="&#xed;" horiz-adv-x="299" 
d="M220 554v-554h-141v554h141zM301 704l-230 -108v96l230 120v-108z" />
    <glyph glyph-name="icircumflex" unicode="&#xee;" horiz-adv-x="299" 
d="M220 554v-554h-141v554h141zM150 688l-149 -85v95l149 83l148 -83v-95z" />
    <glyph glyph-name="idieresis" unicode="&#xef;" horiz-adv-x="299" 
d="M220 554v-554h-141v554h141zM10.5 731.5c12.333 12.333 27.166 18.5 44.499 18.5c18.667 0 34 -6.16699 46 -18.5s18 -27.5 18 -45.5c0 -17.333 -6 -32.166 -18 -44.499s-27.333 -18.5 -46 -18.5c-17.333 0 -32.166 6.16699 -44.499 18.5s-18.5 27.166 -18.5 44.499
c0 18 6.16699 33.167 18.5 45.5zM199 731.5c12 12.333 27 18.5 45 18.5s33.167 -6.16699 45.5 -18.5s18.5 -27.5 18.5 -45.5c0 -17.333 -6.16699 -32.166 -18.5 -44.499s-27.5 -18.5 -45.5 -18.5s-33 6.16699 -45 18.5s-18 27.166 -18 44.499c0 18 6 33.167 18 45.5z" />
    <glyph glyph-name="eth" unicode="&#xf0;" horiz-adv-x="644" 
d="M573.5 499.5c23 -59.667 34.499 -121.832 34.499 -186.499c0 -68 -12.333 -126 -37 -174s-58.167 -84.167 -100.5 -108.5s-90.5 -36.5 -144.5 -36.5c-54.667 0 -104 12 -148 36s-78.667 58 -104 102s-38 95 -38 153c0 55.333 11.667 104 35 146s55.833 74.333 97.5 97
s88.834 34 141.501 34c30.667 0 59 -7.16699 85 -21.5s46.333 -35.833 61 -64.5c-16.667 59.333 -42.667 112.666 -78 159.999l-119 -38v50l87 27c-21.333 23.333 -44.333 45 -69 65h125c8.66699 -7.33301 21 -19 37 -35l101 32v-50l-66 -21
c43.333 -51.333 76.5 -106.833 99.5 -166.5zM424.999 157.502c26 27.667 38.999 67.501 38.999 119.501c0 35.333 -6.5 65.333 -19.5 90s-30.167 43 -51.5 55s-44.333 18 -69 18c-41.333 0 -75.666 -13.333 -102.999 -40s-41 -65.334 -41 -116.001c0 -54 14 -95.5 42 -124.5
s62.667 -43.5 104 -43.5c40 0 73 13.833 99 41.5z" />
    <glyph glyph-name="ntilde" unicode="&#xf1;" horiz-adv-x="664" 
d="M547 499c38 -42 56.999 -101 56.999 -177v-322h-140v306c0 44 -11.333 78.167 -34 102.5s-53.667 36.5 -93 36.5c-40 0 -72 -13 -96 -39s-36 -63.333 -36 -112v-294h-141v554h141v-111c14.667 37.333 38.834 66.5 72.501 87.5s72.5 31.5 116.5 31.5c64 0 115 -21 153 -63
zM307.999 734c10.667 -4.66699 23.333 -11.335 38 -20.002c12 -7.33301 21.833 -12.666 29.5 -15.999s15.834 -5 24.501 -5c12 0 21.833 4 29.5 12s12.5 19.667 14.5 35h73c-6.66699 -44 -20.5 -76.833 -41.5 -98.5s-47.833 -32.5 -80.5 -32.5c-14 0 -26.5 2.33301 -37.5 7
s-24.167 11.334 -39.5 20.001c-12 6.66699 -21.5 11.667 -28.5 15s-14.833 5 -23.5 5c-24.667 0 -39.334 -15.667 -44.001 -47h-72c14 88 54.333 132 121 132c14 0 26.333 -2.33301 37 -7z" />
    <glyph glyph-name="ograve" unicode="&#xf2;" horiz-adv-x="640" 
d="M465.5 527c43 -22.667 76.833 -55.5 101.5 -98.5s37 -93.5 37 -151.5s-12.333 -108.333 -37 -151s-58.5 -75.5 -101.5 -98.5s-91.5 -34.5 -145.5 -34.5s-102.5 11.5 -145.5 34.5s-76.833 55.833 -101.5 98.5s-37 93 -37 151s12.333 108.5 37 151.5
s58.5 75.833 101.5 98.5s91.5 34 145.5 34s102.5 -11.333 145.5 -34zM220 397.5c-27.333 -27.667 -41 -67.834 -41 -120.501s13.667 -92.834 41 -120.501s60.666 -41.5 99.999 -41.5s72.666 13.833 99.999 41.5s41 67.834 41 120.501s-13.667 92.834 -41 120.501
s-60.666 41.5 -99.999 41.5s-72.666 -13.833 -99.999 -41.5zM395 692v-96l-230 108v108z" />
    <glyph glyph-name="oacute" unicode="&#xf3;" horiz-adv-x="640" 
d="M465.5 527c43 -22.667 76.833 -55.5 101.5 -98.5s37 -93.5 37 -151.5s-12.333 -108.333 -37 -151s-58.5 -75.5 -101.5 -98.5s-91.5 -34.5 -145.5 -34.5s-102.5 11.5 -145.5 34.5s-76.833 55.833 -101.5 98.5s-37 93 -37 151s12.333 108.5 37 151.5
s58.5 75.833 101.5 98.5s91.5 34 145.5 34s102.5 -11.333 145.5 -34zM220 397.5c-27.333 -27.667 -41 -67.834 -41 -120.501s13.667 -92.834 41 -120.501s60.666 -41.5 99.999 -41.5s72.666 13.833 99.999 41.5s41 67.834 41 120.501s-13.667 92.834 -41 120.501
s-60.666 41.5 -99.999 41.5s-72.666 -13.833 -99.999 -41.5zM471 704l-230 -108v96l230 120v-108z" />
    <glyph glyph-name="ocircumflex" unicode="&#xf4;" horiz-adv-x="640" 
d="M465.5 527c43 -22.667 76.833 -55.5 101.5 -98.5s37 -93.5 37 -151.5s-12.333 -108.333 -37 -151s-58.5 -75.5 -101.5 -98.5s-91.5 -34.5 -145.5 -34.5s-102.5 11.5 -145.5 34.5s-76.833 55.833 -101.5 98.5s-37 93 -37 151s12.333 108.5 37 151.5
s58.5 75.833 101.5 98.5s91.5 34 145.5 34s102.5 -11.333 145.5 -34zM220 397.5c-27.333 -27.667 -41 -67.834 -41 -120.501s13.667 -92.834 41 -120.501s60.666 -41.5 99.999 -41.5s72.666 13.833 99.999 41.5s41 67.834 41 120.501s-13.667 92.834 -41 120.501
s-60.666 41.5 -99.999 41.5s-72.666 -13.833 -99.999 -41.5zM321 688l-149 -85v95l149 83l148 -83v-95z" />
    <glyph glyph-name="otilde" unicode="&#xf5;" horiz-adv-x="640" 
d="M465.5 527c43 -22.667 76.833 -55.5 101.5 -98.5s37 -93.5 37 -151.5s-12.333 -108.333 -37 -151s-58.5 -75.5 -101.5 -98.5s-91.5 -34.5 -145.5 -34.5s-102.5 11.5 -145.5 34.5s-76.833 55.833 -101.5 98.5s-37 93 -37 151s12.333 108.5 37 151.5
s58.5 75.833 101.5 98.5s91.5 34 145.5 34s102.5 -11.333 145.5 -34zM220 397.5c-27.333 -27.667 -41 -67.834 -41 -120.501s13.667 -92.834 41 -120.501s60.666 -41.5 99.999 -41.5s72.666 13.833 99.999 41.5s41 67.834 41 120.501s-13.667 92.834 -41 120.501
s-60.666 41.5 -99.999 41.5s-72.666 -13.833 -99.999 -41.5zM295 734c10.667 -4.66699 23.333 -11.335 38 -20.002c12 -7.33301 21.833 -12.666 29.5 -15.999s15.834 -5 24.501 -5c12 0 21.833 4 29.5 12s12.5 19.667 14.5 35h73c-6.66699 -44 -20.5 -76.833 -41.5 -98.5
s-47.833 -32.5 -80.5 -32.5c-14 0 -26.5 2.33301 -37.5 7s-24.167 11.334 -39.5 20.001c-12 6.66699 -21.5 11.667 -28.5 15s-14.833 5 -23.5 5c-24.667 0 -39.334 -15.667 -44.001 -47h-72c14 88 54.333 132 121 132c14 0 26.333 -2.33301 37 -7z" />
    <glyph glyph-name="odieresis" unicode="&#xf6;" horiz-adv-x="640" 
d="M465.5 527c43 -22.667 76.833 -55.5 101.5 -98.5s37 -93.5 37 -151.5s-12.333 -108.333 -37 -151s-58.5 -75.5 -101.5 -98.5s-91.5 -34.5 -145.5 -34.5s-102.5 11.5 -145.5 34.5s-76.833 55.833 -101.5 98.5s-37 93 -37 151s12.333 108.5 37 151.5
s58.5 75.833 101.5 98.5s91.5 34 145.5 34s102.5 -11.333 145.5 -34zM220 397.5c-27.333 -27.667 -41 -67.834 -41 -120.501s13.667 -92.834 41 -120.501s60.666 -41.5 99.999 -41.5s72.666 13.833 99.999 41.5s41 67.834 41 120.501s-13.667 92.834 -41 120.501
s-60.666 41.5 -99.999 41.5s-72.666 -13.833 -99.999 -41.5zM181.5 731.5c12.333 12.333 27.166 18.5 44.499 18.5c18.667 0 34 -6.16699 46 -18.5s18 -27.5 18 -45.5c0 -17.333 -6 -32.166 -18 -44.499s-27.333 -18.5 -46 -18.5c-17.333 0 -32.166 6.16699 -44.499 18.5
s-18.5 27.166 -18.5 44.499c0 18 6.16699 33.167 18.5 45.5zM370 731.5c12 12.333 27 18.5 45 18.5s33.167 -6.16699 45.5 -18.5s18.5 -27.5 18.5 -45.5c0 -17.333 -6.16699 -32.166 -18.5 -44.499s-27.5 -18.5 -45.5 -18.5s-33 6.16699 -45 18.5s-18 27.166 -18 44.499
c0 18 6 33.167 18 45.5z" />
    <glyph glyph-name="divide" unicode="&#xf7;" horiz-adv-x="566" 
d="M358 656v-147h-152v147h152zM538 420v-128h-510v128h510zM358 205v-147h-152v147h152z" />
    <glyph glyph-name="oslash" unicode="&#xf8;" horiz-adv-x="631" 
d="M530 473c22 -24 38.999 -52.667 50.999 -86s18 -70 18 -110c0 -58 -12.333 -108.333 -37 -151s-58.5 -75.5 -101.5 -98.5s-91.5 -34.5 -145.5 -34.5c-69.333 0 -127.666 17.667 -174.999 53l-42 -46h-70l73 80c-22.667 24.667 -40 53.667 -52 87s-18 70 -18 110
c0 58 12.333 108.5 37 151.5s58.5 75.833 101.5 98.5s91.5 34 145.5 34c68 0 127 -17.667 177 -53l42 46h71zM194.999 183l206.999 227.001c-23.333 19.333 -52.333 29 -87 29c-39.333 0 -72.666 -13.833 -99.999 -41.5s-41 -67.834 -41 -120.501c0 -36 7 -67.333 21 -94z
M435.998 369.001l-207 -226.002c24.667 -18.667 53.334 -28 86.001 -28c39.333 0 72.666 13.833 99.999 41.5s41 67.834 41 120.501c0 34.667 -6.66699 65.334 -20 92.001z" />
    <glyph glyph-name="ugrave" unicode="&#xf9;" horiz-adv-x="658" 
d="M594 554v-554h-141v112c-14.667 -37.333 -38.834 -66.5 -72.501 -87.5s-72.5 -31.5 -116.5 -31.5c-64 0 -115 21 -153 63s-57 100.667 -57 176v322h140v-306c0 -44 11.333 -78.167 34 -102.5s53.334 -36.5 92.001 -36.5c40.667 0 73 13 97 39s36 63.333 36 112v294h141z
M399 692v-96l-230 108v108z" />
    <glyph glyph-name="uacute" unicode="&#xfa;" horiz-adv-x="658" 
d="M594 554v-554h-141v112c-14.667 -37.333 -38.834 -66.5 -72.501 -87.5s-72.5 -31.5 -116.5 -31.5c-64 0 -115 21 -153 63s-57 100.667 -57 176v322h140v-306c0 -44 11.333 -78.167 34 -102.5s53.334 -36.5 92.001 -36.5c40.667 0 73 13 97 39s36 63.333 36 112v294h141z
M475 704l-230 -108v96l230 120v-108z" />
    <glyph glyph-name="ucircumflex" unicode="&#xfb;" horiz-adv-x="658" 
d="M594 554v-554h-141v112c-14.667 -37.333 -38.834 -66.5 -72.501 -87.5s-72.5 -31.5 -116.5 -31.5c-64 0 -115 21 -153 63s-57 100.667 -57 176v322h140v-306c0 -44 11.333 -78.167 34 -102.5s53.334 -36.5 92.001 -36.5c40.667 0 73 13 97 39s36 63.333 36 112v294h141z
M324 688l-149 -85v95l149 83l148 -83v-95z" />
    <glyph glyph-name="udieresis" unicode="&#xfc;" horiz-adv-x="658" 
d="M594 554v-554h-141v112c-14.667 -37.333 -38.834 -66.5 -72.501 -87.5s-72.5 -31.5 -116.5 -31.5c-64 0 -115 21 -153 63s-57 100.667 -57 176v322h140v-306c0 -44 11.333 -78.167 34 -102.5s53.334 -36.5 92.001 -36.5c40.667 0 73 13 97 39s36 63.333 36 112v294h141z
M184.5 731.5c12.333 12.333 27.166 18.5 44.499 18.5c18.667 0 34 -6.16699 46 -18.5s18 -27.5 18 -45.5c0 -17.333 -6 -32.166 -18 -44.499s-27.333 -18.5 -46 -18.5c-17.333 0 -32.166 6.16699 -44.499 18.5s-18.5 27.166 -18.5 44.499c0 18 6.16699 33.167 18.5 45.5z
M373 731.5c12 12.333 27 18.5 45 18.5s33.167 -6.16699 45.5 -18.5s18.5 -27.5 18.5 -45.5c0 -17.333 -6.16699 -32.166 -18.5 -44.499s-27.5 -18.5 -45.5 -18.5s-33 6.16699 -45 18.5s-18 27.166 -18 44.499c0 18 6 33.167 18 45.5z" />
    <glyph glyph-name="yacute" unicode="&#xfd;" horiz-adv-x="607" 
d="M159 554l151 -376l140 376h155l-339 -818h-156l125 280l-233 538h157zM455 704l-230 -108v96l230 120v-108z" />
    <glyph glyph-name="thorn" unicode="&#xfe;" horiz-adv-x="676" 
d="M515 524c38.667 -24 69.1641 -57.5 91.4971 -100.5s33.5 -92.5 33.5 -148.5s-11.167 -105.167 -33.5 -147.5s-52.833 -75.166 -91.5 -98.499s-81.667 -35 -129 -35c-42.667 0 -79.167 9.83301 -109.5 29.5s-54.166 47.5 -71.499 83.5v-371h-141v1004h141v-285
c16.667 33.333 40.334 59.166 71.001 77.499s67.334 27.5 110.001 27.5c47.333 0 90.333 -12 129 -36zM278.497 418.5c-22.333 -12.333 -40.167 -30.499 -53.5 -54.499s-20 -53 -20 -87s6.66699 -63 20 -87s31.333 -42.167 54 -54.5s47 -18.5 73 -18.5
c42 0 76.667 13.5 104 40.5s41 66.167 41 117.5s-13.833 91.166 -41.5 119.499s-62.167 42.5 -103.5 42.5c-26.667 0 -51.167 -6.16699 -73.5 -18.5z" />
    <glyph glyph-name="ydieresis" unicode="&#xff;" horiz-adv-x="607" 
d="M159 554l151 -376l140 376h155l-339 -818h-156l125 280l-233 538h157zM164.5 731.5c12.333 12.333 27.166 18.5 44.499 18.5c18.667 0 34 -6.16699 46 -18.5s18 -27.5 18 -45.5c0 -17.333 -6 -32.166 -18 -44.499s-27.333 -18.5 -46 -18.5
c-17.333 0 -32.166 6.16699 -44.499 18.5s-18.5 27.166 -18.5 44.499c0 18 6.16699 33.167 18.5 45.5zM353 731.5c12 12.333 27 18.5 45 18.5s33.167 -6.16699 45.5 -18.5s18.5 -27.5 18.5 -45.5c0 -17.333 -6.16699 -32.166 -18.5 -44.499s-27.5 -18.5 -45.5 -18.5
s-33 6.16699 -45 18.5s-18 27.166 -18 44.499c0 18 6 33.167 18 45.5z" />
    <glyph glyph-name="Amacron" unicode="&#x100;" horiz-adv-x="704" 
d="M494 142h-283l-50 -142h-149l260 698h161l259 -698h-149zM456 249l-104 298l-104 -298h208zM543 884v-95h-382v95h382z" />
    <glyph glyph-name="amacron" unicode="&#x101;" horiz-adv-x="676" 
d="M401 528c33.333 -22 57 -51.668 71 -89.001v115h140v-554h-140v116c-14 -37.333 -37.667 -67.166 -71 -89.499s-73.333 -33.5 -120 -33.5s-88.667 11.333 -126 34s-66.5 55.5 -87.5 98.5s-31.5 93.5 -31.5 151.5s10.5 108.5 31.5 151.5s50.167 75.833 87.5 98.5
s79.333 34 126 34s86.667 -11 120 -33zM219 394.999c-26.667 -28.667 -40 -68 -40 -118s13.333 -89.167 40 -117.5s62 -42.5 106 -42.5c42.667 0 77.834 14.5 105.501 43.5s41.5 67.833 41.5 116.5c0 49.333 -13.833 88.5 -41.5 117.5s-62.834 43.5 -105.501 43.5
c-44 0 -79.333 -14.333 -106 -43zM516 731.999v-95h-382v95h382z" />
    <glyph glyph-name="Abreve" unicode="&#x102;" horiz-adv-x="704" 
d="M494 142h-283l-50 -142h-149l260 698h161l259 -698h-149zM456 249l-104 298l-104 -298h208zM235.5 802c-29 29.333 -43.5 69.333 -43.5 120v12h70c0 -49.333 30 -74 90 -74s90 24.667 90 74h70v-12c0 -50.667 -14.5 -90.667 -43.5 -120s-67.833 -44 -116.5 -44
s-87.5 14.667 -116.5 44z" />
    <glyph glyph-name="abreve" unicode="&#x103;" horiz-adv-x="676" 
d="M401 528c33.333 -22 57 -51.668 71 -89.001v115h140v-554h-140v116c-14 -37.333 -37.667 -67.166 -71 -89.499s-73.333 -33.5 -120 -33.5s-88.667 11.333 -126 34s-66.5 55.5 -87.5 98.5s-31.5 93.5 -31.5 151.5s10.5 108.5 31.5 151.5s50.167 75.833 87.5 98.5
s79.333 34 126 34s86.667 -11 120 -33zM219 394.999c-26.667 -28.667 -40 -68 -40 -118s13.333 -89.167 40 -117.5s62 -42.5 106 -42.5c42.667 0 77.834 14.5 105.501 43.5s41.5 67.833 41.5 116.5c0 49.333 -13.833 88.5 -41.5 117.5s-62.834 43.5 -105.501 43.5
c-44 0 -79.333 -14.333 -106 -43zM207.5 649.999c-29 29.333 -43.5 69.333 -43.5 120v12h70c0 -49.333 30 -74 90 -74s90 24.667 90 74h70v-12c0 -50.667 -14.5 -90.667 -43.5 -120s-67.833 -44 -116.5 -44s-87.5 14.667 -116.5 44z" />
    <glyph glyph-name="Aogonek" unicode="&#x104;" horiz-adv-x="704" 
d="M732 -132v-75h-128c-38.667 0 -71 9.33301 -97 28s-39 46.334 -39 83.001c0 48 24.667 81 74 99l-48 139h-283l-50 -142h-149l260 698h161l256 -689v-62h-72c-16.667 0 -29.667 -3.33301 -39 -10s-14 -16.334 -14 -29.001s4.66699 -22.5 14 -29.5s22.333 -10.5 39 -10.5
h115zM456 249l-104 299l-104 -299h208z" />
    <glyph glyph-name="aogonek" unicode="&#x105;" horiz-adv-x="676" 
d="M401 528c33.333 -22 57 -51.668 71 -89.001v115h140v-554h-140v116c-14 -37.333 -37.667 -67.166 -71 -89.499s-73.333 -33.5 -120 -33.5s-88.667 11.333 -126 34s-66.5 55.5 -87.5 98.5s-31.5 93.5 -31.5 151.5s10.5 108.5 31.5 151.5s50.167 75.833 87.5 98.5
s79.333 34 126 34s86.667 -11 120 -33zM219 394.999c-26.667 -28.667 -40 -68 -40 -118s13.333 -89.167 40 -117.5s62 -42.5 106 -42.5c42.667 0 77.834 14.5 105.501 43.5s41.5 67.833 41.5 116.5c0 49.333 -13.833 88.5 -41.5 117.5s-62.834 43.5 -105.501 43.5
c-44 0 -79.333 -14.333 -106 -43zM612 15.999v-68.001h-71c-16.667 0 -29.834 -3.5 -39.501 -10.5s-14.5 -16.5 -14.5 -28.5c0 -12.667 4.83301 -22.5 14.5 -29.5s22.834 -10.5 39.501 -10.5h114v-76h-128c-38.667 0 -71 9.33301 -97 28s-39 46.334 -39 83.001
s12.333 64.5 37 83.5s53.667 28.5 87 28.5h97z" />
    <glyph glyph-name="Cacute" unicode="&#x106;" horiz-adv-x="759" 
d="M602 645c58 -45.333 96.334 -106.997 115.001 -184.997h-148c-15.333 38 -39.166 68 -71.499 90s-71.166 33 -116.499 33c-37.333 0 -71 -9.33301 -101 -28s-53.333 -45.334 -70 -80.001s-25 -75.334 -25 -122.001c0 -46 8.33301 -86.333 25 -121s40 -61.334 70 -80.001
s63.667 -28 101 -28c45.333 0 84.166 11 116.499 33s56.166 52 71.499 90h148c-18.667 -78 -57 -139.667 -115 -185s-131 -68 -219 -68c-67.333 0 -126.833 15.167 -178.5 45.5s-91.667 72.833 -120 127.5s-42.5 116.667 -42.5 186c0 70 14.167 132.333 42.5 187
s68.166 97.167 119.499 127.5s111 45.5 179 45.5c88 0 161 -22.667 219 -68zM531.001 856.003l-230 -108v96l230 120v-108z" />
    <glyph glyph-name="cacute" unicode="&#x107;" horiz-adv-x="617" 
d="M491.5 503c47.667 -38.667 77.5 -91.332 89.5 -157.999h-149c-6 29.333 -19.667 52.5 -41 69.5s-48.333 25.5 -81 25.5c-37.333 0 -68.5 -13.833 -93.5 -41.5s-37.5 -68.167 -37.5 -121.5s12.5 -93.833 37.5 -121.5s56.167 -41.5 93.5 -41.5c32.667 0 59.667 8.5 81 25.5
s35 40.167 41 69.5h149c-12 -66.667 -41.833 -119.334 -89.5 -158.001s-107.167 -58 -178.5 -58c-54 0 -102 11.5 -144 34.5s-74.667 55.833 -98 98.5s-35 93 -35 151s11.667 108.5 35 151.5s56 75.833 98 98.5s90 34 144 34c71.333 0 130.833 -19.333 178.5 -58z
M459 704.002l-230 -108v96l230 120v-108z" />
    <glyph glyph-name="Cdotaccent" unicode="&#x10a;" horiz-adv-x="759" 
d="M602 645c58 -45.333 96.334 -106.997 115.001 -184.997h-148c-15.333 38 -39.166 68 -71.499 90s-71.166 33 -116.499 33c-37.333 0 -71 -9.33301 -101 -28s-53.333 -45.334 -70 -80.001s-25 -75.334 -25 -122.001c0 -46 8.33301 -86.333 25 -121s40 -61.334 70 -80.001
s63.667 -28 101 -28c45.333 0 84.166 11 116.499 33s56.166 52 71.499 90h148c-18.667 -78 -57 -139.667 -115 -185s-131 -68 -219 -68c-67.333 0 -126.833 15.167 -178.5 45.5s-91.667 72.833 -120 127.5s-42.5 116.667 -42.5 186c0 70 14.167 132.333 42.5 187
s68.166 97.167 119.499 127.5s111 45.5 179 45.5c88 0 161 -22.667 219 -68zM334.501 883.503c12.333 12.333 27.166 18.5 44.499 18.5c18 0 33.167 -6.16699 45.5 -18.5s18.5 -27.5 18.5 -45.5c0 -17.333 -6.16699 -32.166 -18.5 -44.499s-27.5 -18.5 -45.5 -18.5
c-17.333 0 -32.166 6.16699 -44.499 18.5s-18.5 27.166 -18.5 44.499c0 18 6.16699 33.167 18.5 45.5z" />
    <glyph glyph-name="cdotaccent" unicode="&#x10b;" horiz-adv-x="617" 
d="M491.5 503c47.667 -38.667 77.5 -91.332 89.5 -157.999h-149c-6 29.333 -19.667 52.5 -41 69.5s-48.333 25.5 -81 25.5c-37.333 0 -68.5 -13.833 -93.5 -41.5s-37.5 -68.167 -37.5 -121.5s12.5 -93.833 37.5 -121.5s56.167 -41.5 93.5 -41.5c32.667 0 59.667 8.5 81 25.5
s35 40.167 41 69.5h149c-12 -66.667 -41.833 -119.334 -89.5 -158.001s-107.167 -58 -178.5 -58c-54 0 -102 11.5 -144 34.5s-74.667 55.833 -98 98.5s-35 93 -35 151s11.667 108.5 35 151.5s56 75.833 98 98.5s90 34 144 34c71.333 0 130.833 -19.333 178.5 -58z
M263.5 731.502c12.333 12.333 27.166 18.5 44.499 18.5c18 0 33.167 -6.16699 45.5 -18.5s18.5 -27.5 18.5 -45.5c0 -17.333 -6.16699 -32.166 -18.5 -44.499s-27.5 -18.5 -45.5 -18.5c-17.333 0 -32.166 6.16699 -44.499 18.5s-18.5 27.166 -18.5 44.499
c0 18 6.16699 33.167 18.5 45.5z" />
    <glyph glyph-name="Ccaron" unicode="&#x10c;" horiz-adv-x="759" 
d="M602 645c58 -45.333 96.334 -106.997 115.001 -184.997h-148c-15.333 38 -39.166 68 -71.499 90s-71.166 33 -116.499 33c-37.333 0 -71 -9.33301 -101 -28s-53.333 -45.334 -70 -80.001s-25 -75.334 -25 -122.001c0 -46 8.33301 -86.333 25 -121s40 -61.334 70 -80.001
s63.667 -28 101 -28c45.333 0 84.166 11 116.499 33s56.166 52 71.499 90h148c-18.667 -78 -57 -139.667 -115 -185s-131 -68 -219 -68c-67.333 0 -126.833 15.167 -178.5 45.5s-91.667 72.833 -120 127.5s-42.5 116.667 -42.5 186c0 70 14.167 132.333 42.5 187
s68.166 97.167 119.499 127.5s111 45.5 179 45.5c88 0 161 -22.667 219 -68zM528.001 837.003l-148 -83l-149 83v95l149 -85l148 85v-95z" />
    <glyph glyph-name="ccaron" unicode="&#x10d;" horiz-adv-x="617" 
d="M491.5 503c47.667 -38.667 77.5 -91.332 89.5 -157.999h-149c-6 29.333 -19.667 52.5 -41 69.5s-48.333 25.5 -81 25.5c-37.333 0 -68.5 -13.833 -93.5 -41.5s-37.5 -68.167 -37.5 -121.5s12.5 -93.833 37.5 -121.5s56.167 -41.5 93.5 -41.5c32.667 0 59.667 8.5 81 25.5
s35 40.167 41 69.5h149c-12 -66.667 -41.833 -119.334 -89.5 -158.001s-107.167 -58 -178.5 -58c-54 0 -102 11.5 -144 34.5s-74.667 55.833 -98 98.5s-35 93 -35 151s11.667 108.5 35 151.5s56 75.833 98 98.5s90 34 144 34c71.333 0 130.833 -19.333 178.5 -58z
M457 685.002l-148 -83l-149 83v95l149 -85l148 85v-95z" />
    <glyph glyph-name="Dcaron" unicode="&#x10e;" horiz-adv-x="727" 
d="M641 169c-29.333 -53.333 -71.833 -94.833 -127.5 -124.5s-121.834 -44.5 -198.501 -44.5h-251v706h251c76.667 0 142.834 -14.5 198.501 -43.5s98.167 -70 127.5 -123s44 -114.833 44 -185.5c0 -70 -14.667 -131.667 -44 -185zM479.5 186c41.667 40 62.5 96 62.5 168
c0 72.667 -20.833 129 -62.5 169s-100.5 60 -176.5 60h-98v-457h98c76 0 134.833 20 176.5 60zM523 837l-148 -83l-149 83v95l149 -85l148 85v-95z" />
    <glyph glyph-name="dcaron" unicode="&#x10f;" horiz-adv-x="798" 
d="M400.5 528c33 -22 56.833 -51.668 71.5 -89.001v301h140v-740h-140v116c-14.667 -37.333 -38.5 -67.166 -71.5 -89.499s-72.833 -33.5 -119.5 -33.5s-88.667 11.333 -126 34s-66.5 55.5 -87.5 98.5s-31.5 93.5 -31.5 151.5s10.5 108.5 31.5 151.5
s50.167 75.833 87.5 98.5s79.333 34 126 34s86.5 -11 119.5 -33zM804 631.999c0 -42.667 -10.667 -76.167 -32 -100.5s-52.666 -36.5 -93.999 -36.5v55c17.333 0 30.166 5 38.499 15s12.5 25.667 12.5 47v19h-58v109h116c11.333 -36.667 17 -72.667 17 -108zM219 394.999
c-26.667 -28.667 -40 -68 -40 -118s13.333 -89.167 40 -117.5s62 -42.5 106 -42.5c42.667 0 77.834 14.5 105.501 43.5s41.5 67.833 41.5 116.5c0 49.333 -13.833 88.5 -41.5 117.5s-62.834 43.5 -105.501 43.5c-44 0 -79.333 -14.333 -106 -43z" />
    <glyph glyph-name="Dcroat" unicode="&#x110;" horiz-adv-x="743" 
d="M529.5 662.5c55.667 -29 98.167 -70 127.5 -123s44 -114.833 44 -185.5c0 -70 -14.667 -131.667 -44 -185s-71.833 -94.833 -127.5 -124.5s-121.834 -44.5 -198.501 -44.5h-251v298h-76v113h76v295h251c76.667 0 142.834 -14.5 198.501 -43.5zM495.5 186
c41.667 40 62.5 96 62.5 168c0 72.667 -20.833 129 -62.5 169s-100.5 60 -176.5 60h-98v-172h171v-113h-171v-172h98c76 0 134.833 20 176.5 60z" />
    <glyph glyph-name="dcroat" unicode="&#x111;" horiz-adv-x="688" 
d="M678 615l-66 -0.000976562v-615h-140v116c-14.667 -37.333 -38.5 -67.166 -71.5 -89.499s-72.833 -33.5 -119.5 -33.5s-88.667 11.333 -126 34s-66.5 55.5 -87.5 98.5s-31.5 93.5 -31.5 151.5s10.5 108.5 31.5 151.5s50.167 75.833 87.5 98.5s79.333 34 126 34
s86.5 -11 119.5 -33s56.833 -51.667 71.5 -89v176h-118v65h118v60h140v-60h66v-65zM430.5 160.499c27.667 29 41.5 67.833 41.5 116.5c0 49.333 -13.833 88.5 -41.5 117.5s-62.834 43.5 -105.501 43.5c-44 0 -79.333 -14.333 -106 -43s-40 -68 -40 -118
s13.333 -89.167 40 -117.5s62 -42.5 106 -42.5c42.667 0 77.834 14.5 105.501 43.5z" />
    <glyph glyph-name="Emacron" unicode="&#x112;" horiz-adv-x="525" 
d="M205 594v-183h250v-108h-250v-190h280v-113h-421v706h421v-112h-280zM466 884v-95h-382v95h382z" />
    <glyph glyph-name="emacron" unicode="&#x113;" horiz-adv-x="621" 
d="M580 250l-406.002 0.00195312c2 -49.333 15.333 -85.666 40 -108.999s55.334 -35 92.001 -35c32.667 0 59.834 8 81.501 24s35.5 37.667 41.5 65h149c-7.33301 -38.667 -23 -73.334 -47 -104.001s-54.833 -54.667 -92.5 -72s-79.5 -26 -125.5 -26
c-54 0 -102 11.5 -144 34.5s-74.667 55.833 -98 98.5s-35 93 -35 151s11.667 108.5 35 151.5s56 75.833 98 98.5s90 34 144 34c54.667 0 102.5 -11.333 143.5 -34s72.667 -53.834 95 -93.501s33.5 -84.834 33.5 -135.501c0 -14 -1.66699 -30 -5 -48zM407.498 415.002
c-25.667 23.333 -57.167 35 -94.5 35c-38 0 -70 -11.667 -96 -35s-40.333 -57.666 -43 -102.999h269c2 45.333 -9.83301 79.666 -35.5 102.999zM501.998 732.002v-95h-382v95h382z" />
    <glyph glyph-name="Ebreve" unicode="&#x114;" horiz-adv-x="525" 
d="M205 594v-183h250v-108h-250v-190h280v-113h-421v706h421v-112h-280zM157.5 802c-29 29.333 -43.5 69.333 -43.5 120v12h70c0 -49.333 30 -74 90 -74s90 24.667 90 74h70v-12c0 -50.667 -14.5 -90.667 -43.5 -120s-67.833 -44 -116.5 -44s-87.5 14.667 -116.5 44z" />
    <glyph glyph-name="ebreve" unicode="&#x115;" horiz-adv-x="621" 
d="M580 250l-406.002 0.00195312c2 -49.333 15.333 -85.666 40 -108.999s55.334 -35 92.001 -35c32.667 0 59.834 8 81.501 24s35.5 37.667 41.5 65h149c-7.33301 -38.667 -23 -73.334 -47 -104.001s-54.833 -54.667 -92.5 -72s-79.5 -26 -125.5 -26
c-54 0 -102 11.5 -144 34.5s-74.667 55.833 -98 98.5s-35 93 -35 151s11.667 108.5 35 151.5s56 75.833 98 98.5s90 34 144 34c54.667 0 102.5 -11.333 143.5 -34s72.667 -53.834 95 -93.501s33.5 -84.834 33.5 -135.501c0 -14 -1.66699 -30 -5 -48zM407.498 415.002
c-25.667 23.333 -57.167 35 -94.5 35c-38 0 -70 -11.667 -96 -35s-40.333 -57.666 -43 -102.999h269c2 45.333 -9.83301 79.666 -35.5 102.999zM193.498 650.002c-29 29.333 -43.5 69.333 -43.5 120v12h70c0 -49.333 30 -74 90 -74s90 24.667 90 74h70v-12
c0 -50.667 -14.5 -90.667 -43.5 -120s-67.833 -44 -116.5 -44s-87.5 14.667 -116.5 44z" />
    <glyph glyph-name="Edotaccent" unicode="&#x116;" horiz-adv-x="525" 
d="M205 594v-183h250v-108h-250v-190h280v-113h-421v706h421v-112h-280zM229.5 883.5c12.333 12.333 27.166 18.5 44.499 18.5c18 0 33.167 -6.16699 45.5 -18.5s18.5 -27.5 18.5 -45.5c0 -17.333 -6.16699 -32.166 -18.5 -44.499s-27.5 -18.5 -45.5 -18.5
c-17.333 0 -32.166 6.16699 -44.499 18.5s-18.5 27.166 -18.5 44.499c0 18 6.16699 33.167 18.5 45.5z" />
    <glyph glyph-name="edotaccent" unicode="&#x117;" horiz-adv-x="621" 
d="M580 250l-406.002 0.00195312c2 -49.333 15.333 -85.666 40 -108.999s55.334 -35 92.001 -35c32.667 0 59.834 8 81.501 24s35.5 37.667 41.5 65h149c-7.33301 -38.667 -23 -73.334 -47 -104.001s-54.833 -54.667 -92.5 -72s-79.5 -26 -125.5 -26
c-54 0 -102 11.5 -144 34.5s-74.667 55.833 -98 98.5s-35 93 -35 151s11.667 108.5 35 151.5s56 75.833 98 98.5s90 34 144 34c54.667 0 102.5 -11.333 143.5 -34s72.667 -53.834 95 -93.501s33.5 -84.834 33.5 -135.501c0 -14 -1.66699 -30 -5 -48zM407.498 415.002
c-25.667 23.333 -57.167 35 -94.5 35c-38 0 -70 -11.667 -96 -35s-40.333 -57.666 -43 -102.999h269c2 45.333 -9.83301 79.666 -35.5 102.999zM265.498 731.502c12.333 12.333 27.166 18.5 44.499 18.5c18 0 33.167 -6.16699 45.5 -18.5s18.5 -27.5 18.5 -45.5
c0 -17.333 -6.16699 -32.166 -18.5 -44.499s-27.5 -18.5 -45.5 -18.5c-17.333 0 -32.166 6.16699 -44.499 18.5s-18.5 27.166 -18.5 44.499c0 18 6.16699 33.167 18.5 45.5z" />
    <glyph glyph-name="Eogonek" unicode="&#x118;" horiz-adv-x="525" 
d="M205 594v-183h250v-108h-250v-190h280v-113h-421v706h421v-112h-280zM458 61v-68.001h-71c-16.667 0 -29.834 -3.5 -39.501 -10.5s-14.5 -16.5 -14.5 -28.5c0 -12.667 4.83301 -22.5 14.5 -29.5s22.834 -10.5 39.501 -10.5h114v-76h-128c-38.667 0 -71 9.33301 -97 28
s-39 46.334 -39 83.001s12.333 64.5 37 83.5s53.667 28.5 87 28.5h97z" />
    <glyph glyph-name="eogonek" unicode="&#x119;" horiz-adv-x="621" 
d="M580 250l-405.999 0.00292969c2.66699 -48.667 16.5 -84.834 41.5 -108.501s55.5 -35.5 91.5 -35.5c32 0 58.833 8.16699 80.5 24.5s35.5 37.833 41.5 64.5h149c-9.33301 -50 -32 -92.5 -68 -127.5s-81 -57.5 -135 -67.5c-8 -1.33301 -13.667 -3.83301 -17 -7.5
s-5 -8.83398 -5 -15.501c0 -11.333 5.16699 -20.333 15.5 -27s25.166 -10 44.499 -10h102v-76h-122c-38.667 0 -71 9.33301 -97 28s-39 46.334 -39 83.001v25c-66.667 10 -120.167 39.5 -160.5 88.5s-60.5 111.833 -60.5 188.5c0 58 11.667 108.5 35 151.5
s56 75.833 98 98.5s90 34 144 34c54.667 0 102.5 -11.333 143.5 -34s72.667 -53.834 95 -93.501s33.5 -84.834 33.5 -135.501c0 -14 -1.66699 -30 -5 -48zM407.501 415.003c-25.667 23.333 -57.167 35 -94.5 35c-38 0 -70 -11.667 -96 -35s-40.333 -57.666 -43 -102.999h269
c2 45.333 -9.83301 79.666 -35.5 102.999z" />
    <glyph glyph-name="Ecaron" unicode="&#x11a;" horiz-adv-x="525" 
d="M205 594v-183h250v-108h-250v-190h280v-113h-421v706h421v-112h-280zM423 837l-148 -83l-149 83v95l149 -85l148 85v-95z" />
    <glyph glyph-name="ecaron" unicode="&#x11b;" horiz-adv-x="621" 
d="M580 250l-406.002 0.00195312c2 -49.333 15.333 -85.666 40 -108.999s55.334 -35 92.001 -35c32.667 0 59.834 8 81.501 24s35.5 37.667 41.5 65h149c-7.33301 -38.667 -23 -73.334 -47 -104.001s-54.833 -54.667 -92.5 -72s-79.5 -26 -125.5 -26
c-54 0 -102 11.5 -144 34.5s-74.667 55.833 -98 98.5s-35 93 -35 151s11.667 108.5 35 151.5s56 75.833 98 98.5s90 34 144 34c54.667 0 102.5 -11.333 143.5 -34s72.667 -53.834 95 -93.501s33.5 -84.834 33.5 -135.501c0 -14 -1.66699 -30 -5 -48zM407.498 415.002
c-25.667 23.333 -57.167 35 -94.5 35c-38 0 -70 -11.667 -96 -35s-40.333 -57.666 -43 -102.999h269c2 45.333 -9.83301 79.666 -35.5 102.999zM458.998 685.002l-148 -83l-149 83v95l149 -85l148 85v-95z" />
    <glyph glyph-name="Gbreve" unicode="&#x11e;" horiz-adv-x="768" 
d="M605 649.5c56.667 -42.333 92.9971 -99.4971 108.997 -171.497h-148c-14 32 -36.167 57.5 -66.5 76.5s-66.166 28.5 -107.499 28.5c-40.667 0 -76.667 -9.33301 -108 -28s-55.666 -45.334 -72.999 -80.001s-26 -75.334 -26 -122.001c0 -74 19.833 -131.667 59.5 -173
s93.834 -62 162.501 -62c50.667 0 94.167 15 130.5 45s59.833 71.667 70.5 125h-239v101h357v-136c-10 -46.667 -29.5 -89.667 -58.5 -129s-67 -70.833 -114 -94.5s-100.833 -35.5 -161.5 -35.5c-69.333 0 -130.5 15.167 -183.5 45.5s-94 72.666 -123 126.999
s-43.5 116.5 -43.5 186.5s14.5 132.167 43.5 186.5s69.833 96.833 122.5 127.5s113.667 46 183 46c86 0 157.333 -21.167 214 -63.5zM267.497 802.003c-29 29.333 -43.5 69.333 -43.5 120v12h70c0 -49.333 30 -74 90 -74s90 24.667 90 74h70v-12
c0 -50.667 -14.5 -90.667 -43.5 -120s-67.833 -44 -116.5 -44s-87.5 14.667 -116.5 44z" />
    <glyph glyph-name="gbreve" unicode="&#x11f;" horiz-adv-x="676" 
d="M401 528c33.333 -22 56.999 -51.667 70.999 -89v115h140v-556c0 -51.333 -10.167 -97.5 -30.5 -138.5s-50.666 -73.167 -90.999 -96.5s-89.166 -35 -146.499 -35c-80 0 -144.667 19 -194 57s-79.333 89.667 -90 155h139c8 -28 23.5 -49.833 46.5 -65.5
s52.5 -23.5 88.5 -23.5c41.333 0 74.666 12.167 99.999 36.5s38 61.166 38 110.499v118c-14 -37.333 -37.667 -67.166 -71 -89.499s-73.333 -33.5 -120 -33.5s-88.667 11.333 -126 34s-66.5 55.5 -87.5 98.5s-31.5 93.5 -31.5 151.5s10.5 108.5 31.5 151.5
s50.167 75.833 87.5 98.5s79.333 34 126 34s86.667 -11 120 -33zM218.999 395c-26.667 -28.667 -40 -68 -40 -118s13.333 -89.167 40 -117.5s62 -42.5 106 -42.5c42.667 0 77.834 14.5 105.501 43.5s41.5 67.833 41.5 116.5c0 49.333 -13.833 88.5 -41.5 117.5
s-62.834 43.5 -105.501 43.5c-44 0 -79.333 -14.333 -106 -43zM207.499 650c-29 29.333 -43.5 69.333 -43.5 120v12h70c0 -49.333 30 -74 90 -74s90 24.667 90 74h70v-12c0 -50.667 -14.5 -90.667 -43.5 -120s-67.833 -44 -116.5 -44s-87.5 14.667 -116.5 44z" />
    <glyph glyph-name="Gdotaccent" unicode="&#x120;" horiz-adv-x="768" 
d="M605 649.5c56.667 -42.333 92.9971 -99.4971 108.997 -171.497h-148c-14 32 -36.167 57.5 -66.5 76.5s-66.166 28.5 -107.499 28.5c-40.667 0 -76.667 -9.33301 -108 -28s-55.666 -45.334 -72.999 -80.001s-26 -75.334 -26 -122.001c0 -74 19.833 -131.667 59.5 -173
s93.834 -62 162.501 -62c50.667 0 94.167 15 130.5 45s59.833 71.667 70.5 125h-239v101h357v-136c-10 -46.667 -29.5 -89.667 -58.5 -129s-67 -70.833 -114 -94.5s-100.833 -35.5 -161.5 -35.5c-69.333 0 -130.5 15.167 -183.5 45.5s-94 72.666 -123 126.999
s-43.5 116.5 -43.5 186.5s14.5 132.167 43.5 186.5s69.833 96.833 122.5 127.5s113.667 46 183 46c86 0 157.333 -21.167 214 -63.5zM339.497 883.503c12.333 12.333 27.166 18.5 44.499 18.5c18 0 33.167 -6.16699 45.5 -18.5s18.5 -27.5 18.5 -45.5
c0 -17.333 -6.16699 -32.166 -18.5 -44.499s-27.5 -18.5 -45.5 -18.5c-17.333 0 -32.166 6.16699 -44.499 18.5s-18.5 27.166 -18.5 44.499c0 18 6.16699 33.167 18.5 45.5z" />
    <glyph glyph-name="gdotaccent" unicode="&#x121;" horiz-adv-x="676" 
d="M401 528c33.333 -22 56.999 -51.667 70.999 -89v115h140v-556c0 -51.333 -10.167 -97.5 -30.5 -138.5s-50.666 -73.167 -90.999 -96.5s-89.166 -35 -146.499 -35c-80 0 -144.667 19 -194 57s-79.333 89.667 -90 155h139c8 -28 23.5 -49.833 46.5 -65.5
s52.5 -23.5 88.5 -23.5c41.333 0 74.666 12.167 99.999 36.5s38 61.166 38 110.499v118c-14 -37.333 -37.667 -67.166 -71 -89.499s-73.333 -33.5 -120 -33.5s-88.667 11.333 -126 34s-66.5 55.5 -87.5 98.5s-31.5 93.5 -31.5 151.5s10.5 108.5 31.5 151.5
s50.167 75.833 87.5 98.5s79.333 34 126 34s86.667 -11 120 -33zM218.999 395c-26.667 -28.667 -40 -68 -40 -118s13.333 -89.167 40 -117.5s62 -42.5 106 -42.5c42.667 0 77.834 14.5 105.501 43.5s41.5 67.833 41.5 116.5c0 49.333 -13.833 88.5 -41.5 117.5
s-62.834 43.5 -105.501 43.5c-44 0 -79.333 -14.333 -106 -43zM279.499 731.5c12.333 12.333 27.166 18.5 44.499 18.5c18 0 33.167 -6.16699 45.5 -18.5s18.5 -27.5 18.5 -45.5c0 -17.333 -6.16699 -32.166 -18.5 -44.499s-27.5 -18.5 -45.5 -18.5
c-17.333 0 -32.166 6.16699 -44.499 18.5s-18.5 27.166 -18.5 44.499c0 18 6.16699 33.167 18.5 45.5z" />
    <glyph glyph-name="uni0122" unicode="&#x122;" horiz-adv-x="770" 
d="M605 649.5c56.667 -42.333 92.9971 -99.4971 108.997 -171.497h-148c-14 32 -36.167 57.5 -66.5 76.5s-66.166 28.5 -107.499 28.5c-40.667 0 -76.667 -9.33301 -108 -28s-55.666 -45.334 -72.999 -80.001s-26 -75.334 -26 -122.001c0 -74 19.833 -131.667 59.5 -173
s93.834 -62 162.501 -62c50.667 0 94.167 15 130.5 45s59.833 71.667 70.5 125h-239v101h357v-136c-10 -46.667 -29.5 -89.667 -58.5 -129s-67 -70.833 -114 -94.5s-100.833 -35.5 -161.5 -35.5c-69.333 0 -130.5 15.167 -183.5 45.5s-94 72.666 -123 126.999
s-43.5 116.5 -43.5 186.5s14.5 132.167 43.5 186.5s69.833 96.833 122.5 127.5s113.667 46 183 46c86 0 157.333 -21.167 214 -63.5zM459.997 -137.997c0 -44 -10.667 -78.333 -32 -103s-52.333 -37 -93 -37v54c33.333 0 50 22.333 50 67v9h-55v103h114
c10.667 -30 16 -61 16 -93z" />
    <glyph glyph-name="uni0123" unicode="&#x123;" horiz-adv-x="676" 
d="M270 705c0 42.667 10.667 76.167 32 100.5s52.333 36.5 93 36.5v-55c-34 0 -51 -21 -51 -63v-18h59v-109h-116c-11.333 36.667 -17 72.667 -17 108zM401 528c33.333 -22 56.999 -51.667 70.999 -89v115h140v-556c0 -51.333 -10.167 -97.5 -30.5 -138.5
s-50.666 -73.167 -90.999 -96.5s-89.166 -35 -146.499 -35c-80 0 -144.667 19 -194 57s-79.333 89.667 -90 155h139c8 -28 23.5 -49.833 46.5 -65.5s52.5 -23.5 88.5 -23.5c41.333 0 74.666 12.167 99.999 36.5s38 61.166 38 110.499v118
c-14 -37.333 -37.667 -67.166 -71 -89.499s-73.333 -33.5 -120 -33.5s-88.667 11.333 -126 34s-66.5 55.5 -87.5 98.5s-31.5 93.5 -31.5 151.5s10.5 108.5 31.5 151.5s50.167 75.833 87.5 98.5s79.333 34 126 34s86.667 -11 120 -33zM218.999 395
c-26.667 -28.667 -40 -68 -40 -118s13.333 -89.167 40 -117.5s62 -42.5 106 -42.5c42.667 0 77.834 14.5 105.501 43.5s41.5 67.833 41.5 116.5c0 49.333 -13.833 88.5 -41.5 117.5s-62.834 43.5 -105.501 43.5c-44 0 -79.333 -14.333 -106 -43z" />
    <glyph glyph-name="Itilde" unicode="&#x128;" horiz-adv-x="269" 
d="M205 706v-706h-141v706h141zM109 886c10.667 -4.66699 23.333 -11.335 38 -20.002c12 -7.33301 21.833 -12.666 29.5 -15.999s15.834 -5 24.501 -5c12 0 21.833 4 29.5 12s12.5 19.667 14.5 35h73c-6.66699 -44 -20.5 -76.833 -41.5 -98.5s-47.833 -32.5 -80.5 -32.5
c-14 0 -26.5 2.33301 -37.5 7s-24.167 11.334 -39.5 20.001c-12 6.66699 -21.5 11.667 -28.5 15s-14.833 5 -23.5 5c-24.667 0 -39.334 -15.667 -44.001 -47h-72c14 88 54.333 132 121 132c14 0 26.333 -2.33301 37 -7z" />
    <glyph glyph-name="itilde" unicode="&#x129;" horiz-adv-x="299" 
d="M220 554v-554h-141v554h141zM124 734c10.667 -4.66699 23.333 -11.335 38 -20.002c12 -7.33301 21.833 -12.666 29.5 -15.999s15.834 -5 24.501 -5c12 0 21.833 4 29.5 12s12.5 19.667 14.5 35h73c-6.66699 -44 -20.5 -76.833 -41.5 -98.5s-47.833 -32.5 -80.5 -32.5
c-14 0 -26.5 2.33301 -37.5 7s-24.167 11.334 -39.5 20.001c-12 6.66699 -21.5 11.667 -28.5 15s-14.833 5 -23.5 5c-24.667 0 -39.334 -15.667 -44.001 -47h-72c14 88 54.333 132 121 132c14 0 26.333 -2.33301 37 -7z" />
    <glyph glyph-name="Imacron" unicode="&#x12a;" horiz-adv-x="269" 
d="M205 706v-706h-141v706h141zM326 884v-95h-382v95h382z" />
    <glyph glyph-name="imacron" unicode="&#x12b;" horiz-adv-x="299" 
d="M220 554v-554h-141v554h141zM341 732v-95h-382v95h382z" />
    <glyph glyph-name="uni012C" unicode="&#x12c;" horiz-adv-x="269" 
d="M205 706v-706h-141v706h141zM18.5 802c-29 29.333 -43.5 69.333 -43.5 120v12h70c0 -49.333 30 -74 90 -74s90 24.667 90 74h70v-12c0 -50.667 -14.5 -90.667 -43.5 -120s-67.833 -44 -116.5 -44s-87.5 14.667 -116.5 44z" />
    <glyph glyph-name="uni012D" unicode="&#x12d;" horiz-adv-x="299" 
d="M220 554v-554h-141v554h141zM33.5 650c-29 29.333 -43.5 69.333 -43.5 120v12h70c0 -49.333 30 -74 90 -74s90 24.667 90 74h70v-12c0 -50.667 -14.5 -90.667 -43.5 -120s-67.833 -44 -116.5 -44s-87.5 14.667 -116.5 44z" />
    <glyph glyph-name="Iogonek" unicode="&#x12e;" horiz-adv-x="269" 
d="M205 706v-706h-141v706h141zM205 16v-68.001h-71c-16.667 0 -29.834 -3.5 -39.501 -10.5s-14.5 -16.5 -14.5 -28.5c0 -12.667 4.83301 -22.5 14.5 -29.5s22.834 -10.5 39.501 -10.5h114v-76h-128c-38.667 0 -71 9.33301 -97 28s-39 46.334 -39 83.001
s12.333 64.5 37 83.5s53.667 28.5 87 28.5h97z" />
    <glyph glyph-name="iogonek" unicode="&#x12f;" horiz-adv-x="269" 
d="M72 768.5c16 14.333 37 21.5 63 21.5s47 -7.16699 63 -21.5s24 -32.833 24 -55.5c0 -22 -8 -40.167 -24 -54.5s-37 -21.5 -63 -21.5s-47 7.16699 -63 21.5s-24 32.5 -24 54.5c0 22.667 8 41.167 24 55.5zM205 554v-554h-141v554h141zM205 16v-68.001h-71
c-16.667 0 -29.834 -3.5 -39.501 -10.5s-14.5 -16.5 -14.5 -28.5c0 -12.667 4.83301 -22.5 14.5 -29.5s22.834 -10.5 39.501 -10.5h114v-76h-128c-38.667 0 -71 9.33301 -97 28s-39 46.334 -39 83.001s12.333 64.5 37 83.5s53.667 28.5 87 28.5h97z" />
    <glyph glyph-name="Idotaccent" unicode="&#x130;" horiz-adv-x="269" 
d="M205 706v-706h-141v706h141zM89.5 883.5c12.333 12.333 27.166 18.5 44.499 18.5c18 0 33.167 -6.16699 45.5 -18.5s18.5 -27.5 18.5 -45.5c0 -17.333 -6.16699 -32.166 -18.5 -44.499s-27.5 -18.5 -45.5 -18.5c-17.333 0 -32.166 6.16699 -44.499 18.5
s-18.5 27.166 -18.5 44.499c0 18 6.16699 33.167 18.5 45.5z" />
    <glyph glyph-name="dotlessi" unicode="&#x131;" horiz-adv-x="299" 
d="M220 554v-554h-141v554h141z" />
    <glyph glyph-name="uni0136" unicode="&#x136;" horiz-adv-x="676" 
d="M338 359l299 -359h-171l-261 323v-323h-141v706h141v-317l262 317h170zM392 -45c10.667 -30 16 -61 16 -93c0 -44 -10.667 -78.333 -32 -103s-52 -37 -92 -37v54c33.333 0 50 22.333 50 67v9h-56v103h114z" />
    <glyph glyph-name="uni0137" unicode="&#x137;" horiz-adv-x="564" 
d="M560 0h-172l-183 242v-242h-141v740h141v-416l182 230h167l-233 -276zM342 -45c10.667 -30 16 -61 16 -93c0 -44 -10.667 -78.333 -32 -103s-52.333 -37 -93 -37v54c34 0 51 22.333 51 67v9h-56v103h114z" />
    <glyph glyph-name="Lacute" unicode="&#x139;" horiz-adv-x="462" 
d="M205 108h237v-108h-378v706h141v-598zM347 856l-230 -108v96l230 120v-108z" />
    <glyph glyph-name="lacute" unicode="&#x13a;" horiz-adv-x="269" 
d="M205 740v-740h-141v740h141zM294 874l-230 -108v96l230 120v-108z" />
    <glyph glyph-name="uni013B" unicode="&#x13b;" horiz-adv-x="465" 
d="M205 108h237v-108h-378v706h141v-598zM339 -138c0 -44 -10.667 -78.333 -32 -103s-52.333 -37 -93 -37v54c33.333 0 50 22.333 50 67v9h-55v103h114c10.667 -30 16 -61 16 -93z" />
    <glyph glyph-name="uni013C" unicode="&#x13c;" horiz-adv-x="269" 
d="M205 740v-740h-141v740h141zM209 -138c0 -44 -10.667 -78.333 -32 -103s-52.333 -37 -93 -37v54c34 0 51 22.333 51 67v9h-56v103h114c10.667 -30 16 -61 16 -93z" />
    <glyph glyph-name="Lcaron" unicode="&#x13d;" horiz-adv-x="504" 
d="M205 108h237v-108h-378v706h141v-598zM447 598c0 -42.667 -10.667 -76.167 -32 -100.5s-52.333 -36.5 -93 -36.5v55c34 0 51 21 51 63v19h-59v108h116c11.333 -36.667 17 -72.667 17 -108z" />
    <glyph glyph-name="lcaron" unicode="&#x13e;" horiz-adv-x="386" 
d="M205 740v-740h-141v740h141zM392 632c0 -42.667 -10.499 -76.167 -31.499 -100.5s-52.167 -36.5 -93.5 -36.5v55c17.333 0 30.166 5 38.499 15s12.5 25.667 12.5 47v19h-58v109h116c10.667 -34.667 16 -70.667 16 -108z" />
    <glyph glyph-name="Ldot" unicode="&#x13f;" horiz-adv-x="462" 
d="M205 108h237v-108h-378v706h141v-598zM333.5 398.5c12.333 12.333 27.166 18.5 44.499 18.5c18 0 33.167 -6.16699 45.5 -18.5s18.5 -27.5 18.5 -45.5c0 -17.333 -6.16699 -32.166 -18.5 -44.499s-27.5 -18.5 -45.5 -18.5c-17.333 0 -32.166 6.16699 -44.499 18.5
s-18.5 27.166 -18.5 44.499c0 18 6.16699 33.167 18.5 45.5z" />
    <glyph glyph-name="ldot" unicode="&#x140;" horiz-adv-x="312" 
d="M205 740v-740h-141v740h141zM245.5 415.5c12.333 12.333 27.166 18.5 44.499 18.5c18 0 33.167 -6.16699 45.5 -18.5s18.5 -27.5 18.5 -45.5c0 -17.333 -6.16699 -32.166 -18.5 -44.499s-27.5 -18.5 -45.5 -18.5c-17.333 0 -32.166 6.16699 -44.499 18.5
s-18.5 27.166 -18.5 44.499c0 18 6.16699 33.167 18.5 45.5z" />
    <glyph glyph-name="Lslash" unicode="&#x141;" horiz-adv-x="479" 
d="M459 108v-108h-378v281l-71 -24v139l71 24v286h141v-238l110 38v-138l-110 -38v-222h237z" />
    <glyph glyph-name="lslash" unicode="&#x142;" horiz-adv-x="307" 
d="M297 403l-73 -26v-377h-141v327l-73 -26v138l73 26v275h141v-226l73 26v-137z" />
    <glyph glyph-name="Nacute" unicode="&#x143;" horiz-adv-x="726" 
d="M662 0h-141l-316 480v-480h-141v706h141l316 -484v484h141v-706zM514 856l-230 -108v96l230 120v-108z" />
    <glyph glyph-name="nacute" unicode="&#x144;" horiz-adv-x="664" 
d="M547 499c38 -42 56.999 -101 56.999 -177v-322h-140v306c0 44 -11.333 78.167 -34 102.5s-53.667 36.5 -93 36.5c-40 0 -72 -13 -96 -39s-36 -63.333 -36 -112v-294h-141v554h141v-111c14.667 37.333 38.834 66.5 72.501 87.5s72.5 31.5 116.5 31.5c64 0 115 -21 153 -63
zM484.999 704l-230 -108v96l230 120v-108z" />
    <glyph glyph-name="uni0145" unicode="&#x145;" horiz-adv-x="756" 
d="M662 0h-141l-316 480v-480h-141v706h141l316 -484v484h141v-706zM450 -138c0 -44 -10.667 -78.333 -32 -103s-52.333 -37 -93 -37v54c33.333 0 50 22.333 50 67v9h-56v103h114c11.333 -32 17 -63 17 -93z" />
    <glyph glyph-name="uni0146" unicode="&#x146;" horiz-adv-x="664" 
d="M547 499c38 -42 56.999 -101 56.999 -177v-322h-140v306c0 44 -11.333 78.167 -34 102.5s-53.667 36.5 -93 36.5c-40 0 -72 -13 -96 -39s-36 -63.333 -36 -112v-294h-141v554h141v-111c14.667 37.333 38.834 66.5 72.501 87.5s72.5 31.5 116.5 31.5c64 0 115 -21 153 -63
zM404.999 -45c10 -28 15 -59 15 -93c0 -44 -10.667 -78.333 -32 -103s-52 -37 -92 -37v54c33.333 0 50 22.333 50 67v9h-55v103h114z" />
    <glyph glyph-name="Ncaron" unicode="&#x147;" horiz-adv-x="726" 
d="M662 0h-141l-316 480v-480h-141v706h141l316 -484v484h141v-706zM511 837l-148 -83l-149 83v95l149 -85l148 85v-95z" />
    <glyph glyph-name="ncaron" unicode="&#x148;" horiz-adv-x="664" 
d="M547 499c38 -42 56.999 -101 56.999 -177v-322h-140v306c0 44 -11.333 78.167 -34 102.5s-53.667 36.5 -93 36.5c-40 0 -72 -13 -96 -39s-36 -63.333 -36 -112v-294h-141v554h141v-111c14.667 37.333 38.834 66.5 72.501 87.5s72.5 31.5 116.5 31.5c64 0 115 -21 153 -63
zM481.999 685l-148 -83l-149 83v95l149 -85l148 85v-95z" />
    <glyph glyph-name="Omacron" unicode="&#x14c;" horiz-adv-x="790" 
d="M574.5 670c53.667 -30.667 96 -73.5 127 -128.5s46.5 -117.167 46.5 -186.5s-15.5 -131.666 -46.5 -186.999s-73.333 -98.333 -127 -129s-113.5 -46 -179.5 -46s-125.833 15.333 -179.5 46s-96 73.667 -127 129s-46.5 117.666 -46.5 186.999s15.5 131.5 46.5 186.5
s73.333 97.833 127 128.5s113.5 46 179.5 46s125.833 -15.333 179.5 -46zM286 558c-31.333 -18.667 -55.833 -45.5 -73.5 -80.5s-26.5 -75.833 -26.5 -122.5s8.83301 -87.5 26.5 -122.5s42.167 -61.833 73.5 -80.5s67.666 -28 108.999 -28s77.666 9.33301 108.999 28
s55.833 45.5 73.5 80.5s26.5 75.833 26.5 122.5s-8.83301 87.5 -26.5 122.5s-42.167 61.833 -73.5 80.5s-67.666 28 -108.999 28s-77.666 -9.33301 -108.999 -28zM586 884v-95h-382v95h382z" />
    <glyph glyph-name="omacron" unicode="&#x14d;" horiz-adv-x="640" 
d="M465.5 527c43 -22.667 76.833 -55.5 101.5 -98.5s37 -93.5 37 -151.5s-12.333 -108.333 -37 -151s-58.5 -75.5 -101.5 -98.5s-91.5 -34.5 -145.5 -34.5s-102.5 11.5 -145.5 34.5s-76.833 55.833 -101.5 98.5s-37 93 -37 151s12.333 108.5 37 151.5
s58.5 75.833 101.5 98.5s91.5 34 145.5 34s102.5 -11.333 145.5 -34zM220 397.5c-27.333 -27.667 -41 -67.834 -41 -120.501s13.667 -92.834 41 -120.501s60.666 -41.5 99.999 -41.5s72.666 13.833 99.999 41.5s41 67.834 41 120.501s-13.667 92.834 -41 120.501
s-60.666 41.5 -99.999 41.5s-72.666 -13.833 -99.999 -41.5zM511 732v-95h-382v95h382z" />
    <glyph glyph-name="uni014E" unicode="&#x14e;" horiz-adv-x="790" 
d="M574.5 670c53.667 -30.667 96 -73.5 127 -128.5s46.5 -117.167 46.5 -186.5s-15.5 -131.666 -46.5 -186.999s-73.333 -98.333 -127 -129s-113.5 -46 -179.5 -46s-125.833 15.333 -179.5 46s-96 73.667 -127 129s-46.5 117.666 -46.5 186.999s15.5 131.5 46.5 186.5
s73.333 97.833 127 128.5s113.5 46 179.5 46s125.833 -15.333 179.5 -46zM286 558c-31.333 -18.667 -55.833 -45.5 -73.5 -80.5s-26.5 -75.833 -26.5 -122.5s8.83301 -87.5 26.5 -122.5s42.167 -61.833 73.5 -80.5s67.666 -28 108.999 -28s77.666 9.33301 108.999 28
s55.833 45.5 73.5 80.5s26.5 75.833 26.5 122.5s-8.83301 87.5 -26.5 122.5s-42.167 61.833 -73.5 80.5s-67.666 28 -108.999 28s-77.666 -9.33301 -108.999 -28zM278.5 802c-29 29.333 -43.5 69.333 -43.5 120v12h70c0 -49.333 30 -74 90 -74s90 24.667 90 74h70v-12
c0 -50.667 -14.5 -90.667 -43.5 -120s-67.833 -44 -116.5 -44s-87.5 14.667 -116.5 44z" />
    <glyph glyph-name="uni014F" unicode="&#x14f;" horiz-adv-x="640" 
d="M465.5 527c43 -22.667 76.833 -55.5 101.5 -98.5s37 -93.5 37 -151.5s-12.333 -108.333 -37 -151s-58.5 -75.5 -101.5 -98.5s-91.5 -34.5 -145.5 -34.5s-102.5 11.5 -145.5 34.5s-76.833 55.833 -101.5 98.5s-37 93 -37 151s12.333 108.5 37 151.5
s58.5 75.833 101.5 98.5s91.5 34 145.5 34s102.5 -11.333 145.5 -34zM220 397.5c-27.333 -27.667 -41 -67.834 -41 -120.501s13.667 -92.834 41 -120.501s60.666 -41.5 99.999 -41.5s72.666 13.833 99.999 41.5s41 67.834 41 120.501s-13.667 92.834 -41 120.501
s-60.666 41.5 -99.999 41.5s-72.666 -13.833 -99.999 -41.5zM203.5 650c-29 29.333 -43.5 69.333 -43.5 120v12h70c0 -49.333 30 -74 90 -74s90 24.667 90 74h70v-12c0 -50.667 -14.5 -90.667 -43.5 -120s-67.833 -44 -116.5 -44s-87.5 14.667 -116.5 44z" />
    <glyph glyph-name="Ohungarumlaut" unicode="&#x150;" horiz-adv-x="790" 
d="M574.5 670c53.667 -30.667 96 -73.5 127 -128.5s46.5 -117.167 46.5 -186.5s-15.5 -131.666 -46.5 -186.999s-73.333 -98.333 -127 -129s-113.5 -46 -179.5 -46s-125.833 15.333 -179.5 46s-96 73.667 -127 129s-46.5 117.666 -46.5 186.999s15.5 131.5 46.5 186.5
s73.333 97.833 127 128.5s113.5 46 179.5 46s125.833 -15.333 179.5 -46zM286 558c-31.333 -18.667 -55.833 -45.5 -73.5 -80.5s-26.5 -75.833 -26.5 -122.5s8.83301 -87.5 26.5 -122.5s42.167 -61.833 73.5 -80.5s67.666 -28 108.999 -28s77.666 9.33301 108.999 28
s55.833 45.5 73.5 80.5s26.5 75.833 26.5 122.5s-8.83301 87.5 -26.5 122.5s-42.167 61.833 -73.5 80.5s-67.666 28 -108.999 28s-77.666 -9.33301 -108.999 -28zM343 753h-88l72 188h110zM520 753h-88l89 188h110z" />
    <glyph glyph-name="ohungarumlaut" unicode="&#x151;" horiz-adv-x="640" 
d="M465.5 527c43 -22.667 76.833 -55.5 101.5 -98.5s37 -93.5 37 -151.5s-12.333 -108.333 -37 -151s-58.5 -75.5 -101.5 -98.5s-91.5 -34.5 -145.5 -34.5s-102.5 11.5 -145.5 34.5s-76.833 55.833 -101.5 98.5s-37 93 -37 151s12.333 108.5 37 151.5
s58.5 75.833 101.5 98.5s91.5 34 145.5 34s102.5 -11.333 145.5 -34zM220 397.5c-27.333 -27.667 -41 -67.834 -41 -120.501s13.667 -92.834 41 -120.501s60.666 -41.5 99.999 -41.5s72.666 13.833 99.999 41.5s41 67.834 41 120.501s-13.667 92.834 -41 120.501
s-60.666 41.5 -99.999 41.5s-72.666 -13.833 -99.999 -41.5zM274 601h-88l72 188h110zM451 601h-88l89 188h110z" />
    <glyph glyph-name="OE" unicode="&#x152;" horiz-adv-x="1072" 
d="M752 411l249.002 0.000976562v-108h-249v-190h279v-113h-420v118c-20 -39.333 -50.333 -70.333 -91 -93s-85.667 -34.334 -135 -35.001c-66 0 -125 15.333 -177 46s-92.667 73.667 -122 129s-44 118 -44 188s14.667 132.5 44 187.5s70.166 98 122.499 129
s111.166 46.5 176.499 46.5c49.333 0 94.333 -11.5 135 -34.5s71 -54.5 91 -94.5v119h420v-112h-279v-183zM504.502 148.501c31.667 19 56.165 46 73.498 81s26 76.167 26 123.5c0 46.667 -8.83301 87.667 -26.5 123s-42.167 62.5 -73.5 81.5s-67.666 28.5 -108.999 28.5
s-77.666 -9.5 -108.999 -28.5s-55.833 -46.167 -73.5 -81.5s-26.5 -76.333 -26.5 -123c0 -47.333 8.66699 -88.5 26 -123.5s41.833 -62 73.5 -81s68.167 -28.5 109.5 -28.5s77.833 9.5 109.5 28.5z" />
    <glyph glyph-name="oe" unicode="&#x153;" horiz-adv-x="1067" 
d="M1011 250l-407.001 0.00195312c2.66699 -49.333 16.334 -85.666 41.001 -108.999s55.334 -35 92.001 -35c32 0 59 8.16699 81 24.5s35.667 37.833 41 64.5h149c-7.33301 -38.667 -22.833 -73.334 -46.5 -104.001s-54.334 -54.667 -92.001 -72s-79.5 -26 -125.5 -26
c-46.667 0 -88.167 9.5 -124.5 28.5s-64.833 46.167 -85.5 81.5c-21.333 -34.667 -50.666 -61.667 -87.999 -81s-79.333 -29 -126 -29c-54 0 -102.5 11.5 -145.5 34.5s-76.833 55.833 -101.5 98.5s-37 93 -37 151s12.333 108.5 37 151.5s58.5 75.833 101.5 98.5
s91.5 34 145.5 34c46.667 0 88.667 -9.66699 126 -29s66.666 -46.333 87.999 -81c20.667 35.333 49.167 62.5 85.5 81.5s77.833 28.5 124.5 28.5c54.667 0 102.5 -11.333 143.5 -34s72.667 -53.834 95 -93.501s33.5 -84.834 33.5 -135.501c0 -14 -1.66699 -30 -5 -48z
M837.999 415.002c-25.333 23.333 -56.667 35 -94 35c-38.667 0 -71 -11.667 -97 -35s-40.333 -57.666 -43 -102.999h269c2 45.333 -9.66699 79.666 -35 102.999zM419.998 156.502c27.333 27.667 41 67.834 41 120.501s-13.667 92.834 -41 120.501s-60.666 41.5 -99.999 41.5
s-72.666 -13.833 -99.999 -41.5s-41 -67.834 -41 -120.501s13.667 -92.834 41 -120.501s60.666 -41.5 99.999 -41.5s72.666 13.833 99.999 41.5z" />
    <glyph glyph-name="Racute" unicode="&#x154;" horiz-adv-x="616" 
d="M432 0l-165 275h-62v-275h-141v706h269c82 0 144.5 -20 187.5 -60s64.5 -92.667 64.5 -158c0 -53.333 -14.833 -98 -44.5 -134s-72.5 -60 -128.5 -72l176 -282h-156zM205 372h116c80.667 0 121 35.667 121 107c0 34 -9.83301 60.5 -29.5 79.5s-50.167 28.5 -91.5 28.5
h-116v-215zM477 856l-230 -108v96l230 120v-108z" />
    <glyph glyph-name="racute" unicode="&#x155;" horiz-adv-x="415" 
d="M287 531.5c34 20.333 72 30.501 114 30.501v-151h-41c-103.333 0 -155 -48 -155 -144v-267h-141v554h141v-106c20.667 35.333 48 63.166 82 83.499zM384 704.001l-230 -108v96l230 120v-108z" />
    <glyph glyph-name="uni0156" unicode="&#x156;" horiz-adv-x="635" 
d="M588 0h-156l-165 275h-62v-275h-141v706h269c82 0 144.5 -20 187.5 -60s64.5 -92.667 64.5 -158c0 -53.333 -14.833 -98 -44.5 -134s-72.5 -60 -128.5 -72zM205 372h116c80.667 0 121 35.667 121 107c0 34 -9.83301 60.5 -29.5 79.5s-50.167 28.5 -91.5 28.5h-116v-215z
M371 -45c10.667 -30 16 -61 16 -93c0 -44 -10.667 -78.333 -32 -103s-52.333 -37 -93 -37v54c33.333 0 50 22.333 50 67v9h-55v103h114z" />
    <glyph glyph-name="uni0157" unicode="&#x157;" horiz-adv-x="415" 
d="M287 531.5c34 20.333 72 30.501 114 30.501v-151h-41c-103.333 0 -155 -48 -155 -144v-267h-141v554h141v-106c20.667 35.333 48 63.166 82 83.499zM189 -44.999c10.667 -30 16 -61 16 -93c0 -44 -10.667 -78.333 -32 -103s-52.333 -37 -93 -37v54
c33.333 0 50 22.333 50 67v9h-55v103h114z" />
    <glyph glyph-name="Rcaron" unicode="&#x158;" horiz-adv-x="616" 
d="M432 0l-165 275h-62v-275h-141v706h269c82 0 144.5 -20 187.5 -60s64.5 -92.667 64.5 -158c0 -53.333 -14.833 -98 -44.5 -134s-72.5 -60 -128.5 -72l176 -282h-156zM205 372h116c80.667 0 121 35.667 121 107c0 34 -9.83301 60.5 -29.5 79.5s-50.167 28.5 -91.5 28.5
h-116v-215zM475 837l-148 -83l-149 83v95l149 -85l148 85v-95z" />
    <glyph glyph-name="rcaron" unicode="&#x159;" horiz-adv-x="415" 
d="M287 531.5c34 20.333 72 30.501 114 30.501v-151h-41c-103.333 0 -155 -48 -155 -144v-267h-141v554h141v-106c20.667 35.333 48 63.166 82 83.499zM381 685.001l-148 -83l-149 83v95l149 -85l148 85v-95z" />
    <glyph glyph-name="Sacute" unicode="&#x15a;" horiz-adv-x="589" 
d="M522 93.5c-18 -30.333 -44.667 -54.6631 -80 -72.9961s-78.333 -27.5 -129 -27.5c-50 0 -94.667 8.5 -134 25.5s-70.833 41.5 -94.5 73.5s-37.167 69.333 -40.5 112h150c3.33301 -28.667 14.833 -52.5 34.5 -71.5s45.834 -28.5 78.501 -28.5
c29.333 0 51.833 7.83301 67.5 23.5s23.5 35.834 23.5 60.501c0 22 -6.33301 40.167 -19 54.5s-28.667 25.833 -48 34.5s-46 18.667 -80 30c-44 14.667 -80 29.167 -108 43.5s-51.833 35.166 -71.5 62.499s-29.5 63 -29.5 107c0 60.667 21.833 108.5 65.5 143.5
s101.5 52.5 173.5 52.5c74.667 0 134.167 -18 178.5 -54s69.5 -84 75.5 -144h-152c-4 25.333 -14.667 46.166 -32 62.499s-41 24.5 -71 24.5c-26 0 -47 -6.83301 -63 -20.5s-24 -33.5 -24 -59.5c0 -20.667 6.16699 -37.834 18.5 -51.501s28 -24.834 47 -33.501
s44.833 -18.334 77.5 -29.001c45.333 -16 82.166 -31 110.499 -45s52.5 -35 72.5 -63s30 -64.667 30 -110c0 -36 -9 -69.167 -27 -99.5zM446 856.003l-230 -108v96l230 120v-108z" />
    <glyph glyph-name="sacute" unicode="&#x15b;" horiz-adv-x="541" 
d="M417 510c40.667 -34 65.998 -79.3389 75.998 -136.006h-132c-5.33301 26.667 -17.333 48 -36 64s-43 24 -73 24c-24 0 -42.667 -5.66699 -56 -17s-20 -26.666 -20 -45.999c0 -15.333 5.33301 -27.666 16 -36.999s24 -16.666 40 -21.999s39 -11.666 69 -18.999
c42 -9.33301 76.167 -19.166 102.5 -29.499s49 -26.666 68 -48.999s28.5 -52.5 28.5 -90.5c0 -47.333 -18.5 -85.666 -55.5 -114.999s-86.833 -44 -149.5 -44c-72 0 -129.667 16.167 -173 48.5s-69.666 78.5 -78.999 138.5h135c3.33301 -27.333 15.333 -48.833 36 -64.5
s47.667 -23.5 81 -23.5c24 0 42.333 5.83301 55 17.5s19 26.834 19 45.501c0 16 -5.5 29 -16.5 39s-24.667 17.667 -41 23s-39.5 11.666 -69.5 18.999c-41.333 9.33301 -74.833 18.833 -100.5 28.5s-47.667 25.167 -66 46.5s-27.5 50.666 -27.5 87.999
c0 48 18.333 87 55 117s87.334 45 152.001 45c67.333 0 121.333 -17 162 -51zM421.998 703.994l-230 -108v96l230 120v-108z" />
    <glyph glyph-name="uni015E" unicode="&#x15e;" horiz-adv-x="589" 
d="M522 93.5c-18 -30.333 -44.667 -54.6631 -80 -72.9961s-78.333 -27.5 -129 -27.5c-50 0 -94.667 8.5 -134 25.5s-70.833 41.5 -94.5 73.5s-37.167 69.333 -40.5 112h150c3.33301 -28.667 14.833 -52.5 34.5 -71.5s45.834 -28.5 78.501 -28.5
c29.333 0 51.833 7.83301 67.5 23.5s23.5 35.834 23.5 60.501c0 22 -6.33301 40.167 -19 54.5s-28.667 25.833 -48 34.5s-46 18.667 -80 30c-44 14.667 -80 29.167 -108 43.5s-51.833 35.166 -71.5 62.499s-29.5 63 -29.5 107c0 60.667 21.833 108.5 65.5 143.5
s101.5 52.5 173.5 52.5c74.667 0 134.167 -18 178.5 -54s69.5 -84 75.5 -144h-152c-4 25.333 -14.667 46.166 -32 62.499s-41 24.5 -71 24.5c-26 0 -47 -6.83301 -63 -20.5s-24 -33.5 -24 -59.5c0 -20.667 6.16699 -37.834 18.5 -51.501s28 -24.834 47 -33.501
s44.833 -18.334 77.5 -29.001c45.333 -16 82.166 -31 110.499 -45s52.5 -35 72.5 -63s30 -64.667 30 -110c0 -36 -9 -69.167 -27 -99.5zM437.5 -75.9971c25 -17.333 37.498 -44.333 37.498 -81c0 -36 -12.667 -62.833 -38 -80.5s-56.666 -26.5 -93.999 -26.5h-129v76h114
c34 0 51 12 51 36c0 10 -4.16699 18 -12.5 24s-21.166 9 -38.499 9h-66v126h85v-59c35.333 1.33301 65.5 -6.66699 90.5 -24z" />
    <glyph glyph-name="uni015F" unicode="&#x15f;" horiz-adv-x="541" 
d="M417 510c40.667 -34 65.998 -79.3389 75.998 -136.006h-132c-5.33301 26.667 -17.333 48 -36 64s-43 24 -73 24c-24 0 -42.667 -5.66699 -56 -17s-20 -26.666 -20 -45.999c0 -15.333 5.33301 -27.666 16 -36.999s24 -16.666 40 -21.999s39 -11.666 69 -18.999
c42 -9.33301 76.167 -19.166 102.5 -29.499s49 -26.666 68 -48.999s28.5 -52.5 28.5 -90.5c0 -47.333 -18.5 -85.666 -55.5 -114.999s-86.833 -44 -149.5 -44c-72 0 -129.667 16.167 -173 48.5s-69.666 78.5 -78.999 138.5h135c3.33301 -27.333 15.333 -48.833 36 -64.5
s47.667 -23.5 81 -23.5c24 0 42.333 5.83301 55 17.5s19 26.834 19 45.501c0 16 -5.5 29 -16.5 39s-24.667 17.667 -41 23s-39.5 11.666 -69.5 18.999c-41.333 9.33301 -74.833 18.833 -100.5 28.5s-47.667 25.167 -66 46.5s-27.5 50.666 -27.5 87.999
c0 48 18.333 87 55 117s87.334 45 152.001 45c67.333 0 121.333 -17 162 -51zM408.498 -76.0059c25 -17.333 37.498 -44.333 37.498 -81c0 -36 -12.667 -62.833 -38 -80.5s-56.666 -26.5 -93.999 -26.5h-129v76h114c34 0 51 12 51 36c0 10 -4.16699 18 -12.5 24
s-21.166 9 -38.499 9h-66v126h85v-59c35.333 1.33301 65.5 -6.66699 90.5 -24z" />
    <glyph glyph-name="Scaron" unicode="&#x160;" horiz-adv-x="589" 
d="M522 93.5c-18 -30.333 -44.667 -54.6631 -80 -72.9961s-78.333 -27.5 -129 -27.5c-50 0 -94.667 8.5 -134 25.5s-70.833 41.5 -94.5 73.5s-37.167 69.333 -40.5 112h150c3.33301 -28.667 14.833 -52.5 34.5 -71.5s45.834 -28.5 78.501 -28.5
c29.333 0 51.833 7.83301 67.5 23.5s23.5 35.834 23.5 60.501c0 22 -6.33301 40.167 -19 54.5s-28.667 25.833 -48 34.5s-46 18.667 -80 30c-44 14.667 -80 29.167 -108 43.5s-51.833 35.166 -71.5 62.499s-29.5 63 -29.5 107c0 60.667 21.833 108.5 65.5 143.5
s101.5 52.5 173.5 52.5c74.667 0 134.167 -18 178.5 -54s69.5 -84 75.5 -144h-152c-4 25.333 -14.667 46.166 -32 62.499s-41 24.5 -71 24.5c-26 0 -47 -6.83301 -63 -20.5s-24 -33.5 -24 -59.5c0 -20.667 6.16699 -37.834 18.5 -51.501s28 -24.834 47 -33.501
s44.833 -18.334 77.5 -29.001c45.333 -16 82.166 -31 110.499 -45s52.5 -35 72.5 -63s30 -64.667 30 -110c0 -36 -9 -69.167 -27 -99.5zM444 837.003l-148 -83l-149 83v95l149 -85l148 85v-95z" />
    <glyph glyph-name="scaron" unicode="&#x161;" horiz-adv-x="541" 
d="M417 510c40.667 -34 65.998 -79.3389 75.998 -136.006h-132c-5.33301 26.667 -17.333 48 -36 64s-43 24 -73 24c-24 0 -42.667 -5.66699 -56 -17s-20 -26.666 -20 -45.999c0 -15.333 5.33301 -27.666 16 -36.999s24 -16.666 40 -21.999s39 -11.666 69 -18.999
c42 -9.33301 76.167 -19.166 102.5 -29.499s49 -26.666 68 -48.999s28.5 -52.5 28.5 -90.5c0 -47.333 -18.5 -85.666 -55.5 -114.999s-86.833 -44 -149.5 -44c-72 0 -129.667 16.167 -173 48.5s-69.666 78.5 -78.999 138.5h135c3.33301 -27.333 15.333 -48.833 36 -64.5
s47.667 -23.5 81 -23.5c24 0 42.333 5.83301 55 17.5s19 26.834 19 45.501c0 16 -5.5 29 -16.5 39s-24.667 17.667 -41 23s-39.5 11.666 -69.5 18.999c-41.333 9.33301 -74.833 18.833 -100.5 28.5s-47.667 25.167 -66 46.5s-27.5 50.666 -27.5 87.999
c0 48 18.333 87 55 117s87.334 45 152.001 45c67.333 0 121.333 -17 162 -51zM419.998 684.994l-148 -83l-149 83v95l149 -85l148 85v-95z" />
    <glyph glyph-name="uni0162" unicode="&#x162;" horiz-adv-x="558" 
d="M349 594v-589.002c28 -9.33301 48.5 -21.666 61.5 -36.999s19.5 -34.666 19.5 -57.999c0 -36 -12.667 -62.833 -38 -80.5s-57 -26.5 -95 -26.5h-126v75h114c32.667 0 49 12 49 36c0 22.667 -16.333 34 -49 34h-77v646h-194v112h530v-112h-195z" />
    <glyph glyph-name="uni0163" unicode="&#x163;" horiz-adv-x="397" 
d="M367 -76c25.333 -17.333 38.001 -44.332 38.001 -80.999c0 -36 -12.667 -62.833 -38 -80.5s-57 -26.5 -95 -26.5h-129v76h114c34.667 0 52 12 52 36c0 10 -4.16699 18 -12.5 24s-21.5 9 -39.5 9h-65v134c-65.333 26 -98 86 -98 180v240h-77v119h77v137h141v-137h124v-119
h-124v-242c0 -26.667 5.33301 -45.334 16 -56.001s28.667 -16 54 -16h55v-121h-74h-10v-52c35.333 1.33301 65.666 -6.66699 90.999 -24z" />
    <glyph glyph-name="Tcaron" unicode="&#x164;" horiz-adv-x="558" 
d="M544 706v-112h-195v-594h-141v594h-194v112h530zM428 837l-148 -83l-149 83v95l149 -85l148 85v-95z" />
    <glyph glyph-name="tcaron" unicode="&#x165;" horiz-adv-x="397" 
d="M417 728c0 -39.333 -10.668 -70 -32.001 -92s-52.666 -33 -93.999 -33v55c34 0 51 13.667 51 41v22h-58v109h116c11.333 -36.667 17 -70.667 17 -102zM250.999 137c10.667 -10.667 28.667 -15.999 54 -15.999h55v-121h-74c-62 0 -109.5 15 -142.5 45s-49.5 80 -49.5 150
v240h-77v119h77v137h141v-137h124v-119h-124v-242c0 -26.667 5.33301 -45.334 16 -56.001z" />
    <glyph glyph-name="Utilde" unicode="&#x168;" horiz-adv-x="683" 
d="M200 706l0.00195312 -414c0 -55.333 12.167 -96.833 36.5 -124.5s59.5 -41.5 105.5 -41.5c45.333 0 80.166 13.833 104.499 41.5s36.5 69.167 36.5 124.5v414h140v-414c0 -65.333 -12.167 -120.5 -36.5 -165.5s-58 -78.5 -101 -100.5s-91.833 -33 -146.5 -33
c-84.667 0 -152.334 25.333 -203.001 76s-76 125 -76 223v414h140zM316.002 886c10.667 -4.66699 23.333 -11.335 38 -20.002c12 -7.33301 21.833 -12.666 29.5 -15.999s15.834 -5 24.501 -5c12 0 21.833 4 29.5 12s12.5 19.667 14.5 35h73
c-6.66699 -44 -20.5 -76.833 -41.5 -98.5s-47.833 -32.5 -80.5 -32.5c-14 0 -26.5 2.33301 -37.5 7s-24.167 11.334 -39.5 20.001c-12 6.66699 -21.5 11.667 -28.5 15s-14.833 5 -23.5 5c-24.667 0 -39.334 -15.667 -44.001 -47h-72c14 88 54.333 132 121 132
c14 0 26.333 -2.33301 37 -7z" />
    <glyph glyph-name="utilde" unicode="&#x169;" horiz-adv-x="658" 
d="M594 554v-554h-141v112c-14.667 -37.333 -38.834 -66.5 -72.501 -87.5s-72.5 -31.5 -116.5 -31.5c-64 0 -115 21 -153 63s-57 100.667 -57 176v322h140v-306c0 -44 11.333 -78.167 34 -102.5s53.334 -36.5 92.001 -36.5c40.667 0 73 13 97 39s36 63.333 36 112v294h141z
M298 734c10.667 -4.66699 23.333 -11.335 38 -20.002c12 -7.33301 21.833 -12.666 29.5 -15.999s15.834 -5 24.501 -5c12 0 21.833 4 29.5 12s12.5 19.667 14.5 35h73c-6.66699 -44 -20.5 -76.833 -41.5 -98.5s-47.833 -32.5 -80.5 -32.5c-14 0 -26.5 2.33301 -37.5 7
s-24.167 11.334 -39.5 20.001c-12 6.66699 -21.5 11.667 -28.5 15s-14.833 5 -23.5 5c-24.667 0 -39.334 -15.667 -44.001 -47h-72c14 88 54.333 132 121 132c14 0 26.333 -2.33301 37 -7z" />
    <glyph glyph-name="Umacron" unicode="&#x16a;" horiz-adv-x="683" 
d="M200 706l0.00195312 -414c0 -55.333 12.167 -96.833 36.5 -124.5s59.5 -41.5 105.5 -41.5c45.333 0 80.166 13.833 104.499 41.5s36.5 69.167 36.5 124.5v414h140v-414c0 -65.333 -12.167 -120.5 -36.5 -165.5s-58 -78.5 -101 -100.5s-91.833 -33 -146.5 -33
c-84.667 0 -152.334 25.333 -203.001 76s-76 125 -76 223v414h140zM532.002 884v-95h-382v95h382z" />
    <glyph glyph-name="umacron" unicode="&#x16b;" horiz-adv-x="658" 
d="M594 554v-554h-141v112c-14.667 -37.333 -38.834 -66.5 -72.501 -87.5s-72.5 -31.5 -116.5 -31.5c-64 0 -115 21 -153 63s-57 100.667 -57 176v322h140v-306c0 -44 11.333 -78.167 34 -102.5s53.334 -36.5 92.001 -36.5c40.667 0 73 13 97 39s36 63.333 36 112v294h141z
M515 732v-95h-382v95h382z" />
    <glyph glyph-name="Ubreve" unicode="&#x16c;" horiz-adv-x="683" 
d="M200 706l0.00195312 -414c0 -55.333 12.167 -96.833 36.5 -124.5s59.5 -41.5 105.5 -41.5c45.333 0 80.166 13.833 104.499 41.5s36.5 69.167 36.5 124.5v414h140v-414c0 -65.333 -12.167 -120.5 -36.5 -165.5s-58 -78.5 -101 -100.5s-91.833 -33 -146.5 -33
c-84.667 0 -152.334 25.333 -203.001 76s-76 125 -76 223v414h140zM224.502 802c-29 29.333 -43.5 69.333 -43.5 120v12h70c0 -49.333 30 -74 90 -74s90 24.667 90 74h70v-12c0 -50.667 -14.5 -90.667 -43.5 -120s-67.833 -44 -116.5 -44s-87.5 14.667 -116.5 44z" />
    <glyph glyph-name="ubreve" unicode="&#x16d;" horiz-adv-x="658" 
d="M594 554v-554h-141v112c-14.667 -37.333 -38.834 -66.5 -72.501 -87.5s-72.5 -31.5 -116.5 -31.5c-64 0 -115 21 -153 63s-57 100.667 -57 176v322h140v-306c0 -44 11.333 -78.167 34 -102.5s53.334 -36.5 92.001 -36.5c40.667 0 73 13 97 39s36 63.333 36 112v294h141z
M206.5 650c-29 29.333 -43.5 69.333 -43.5 120v12h70c0 -49.333 30 -74 90 -74s90 24.667 90 74h70v-12c0 -50.667 -14.5 -90.667 -43.5 -120s-67.833 -44 -116.5 -44s-87.5 14.667 -116.5 44z" />
    <glyph glyph-name="Uring" unicode="&#x16e;" horiz-adv-x="683" 
d="M200 706l0.00195312 -414c0 -55.333 12.167 -96.833 36.5 -124.5s59.5 -41.5 105.5 -41.5c45.333 0 80.166 13.833 104.499 41.5s36.5 69.167 36.5 124.5v414h140v-414c0 -65.333 -12.167 -120.5 -36.5 -165.5s-58 -78.5 -101 -100.5s-91.833 -33 -146.5 -33
c-84.667 0 -152.334 25.333 -203.001 76s-76 125 -76 223v414h140zM423.002 953c22 -20.667 33 -48.667 33 -84s-11 -63.333 -33 -84s-49.333 -31 -82 -31s-60 10.5 -82 31.5s-33 48.833 -33 83.5s11 62.5 33 83.5s49.333 31.5 82 31.5s60 -10.333 82 -31zM301.502 910.5
c-10.333 -10.333 -15.5 -24.166 -15.5 -41.499s5.16699 -31.166 15.5 -41.499s23.5 -15.5 39.5 -15.5s29.333 5.16699 40 15.5s16 24.166 16 41.499s-5.33301 31.166 -16 41.499s-24 15.5 -40 15.5s-29.167 -5.16699 -39.5 -15.5z" />
    <glyph glyph-name="uring" unicode="&#x16f;" horiz-adv-x="658" 
d="M594 554v-554h-141v112c-14.667 -37.333 -38.834 -66.5 -72.501 -87.5s-72.5 -31.5 -116.5 -31.5c-64 0 -115 21 -153 63s-57 100.667 -57 176v322h140v-306c0 -44 11.333 -78.167 34 -102.5s53.334 -36.5 92.001 -36.5c40.667 0 73 13 97 39s36 63.333 36 112v294h141z
M405 801c22 -20.667 33 -48.667 33 -84s-11 -63.333 -33 -84s-49.333 -31 -82 -31s-60 10.5 -82 31.5s-33 48.833 -33 83.5s11 62.5 33 83.5s49.333 31.5 82 31.5s60 -10.333 82 -31zM283.5 758.5c-10.333 -10.333 -15.5 -24.166 -15.5 -41.499
s5.16699 -31.166 15.5 -41.499s23.5 -15.5 39.5 -15.5s29.333 5.16699 40 15.5s16 24.166 16 41.499s-5.33301 31.166 -16 41.499s-24 15.5 -40 15.5s-29.167 -5.16699 -39.5 -15.5z" />
    <glyph glyph-name="Uhungarumlaut" unicode="&#x170;" horiz-adv-x="683" 
d="M200 706l0.00195312 -414c0 -55.333 12.167 -96.833 36.5 -124.5s59.5 -41.5 105.5 -41.5c45.333 0 80.166 13.833 104.499 41.5s36.5 69.167 36.5 124.5v414h140v-414c0 -65.333 -12.167 -120.5 -36.5 -165.5s-58 -78.5 -101 -100.5s-91.833 -33 -146.5 -33
c-84.667 0 -152.334 25.333 -203.001 76s-76 125 -76 223v414h140zM253.002 753h-88l72 188h110zM430.002 753h-88l89 188h110z" />
    <glyph glyph-name="uhungarumlaut" unicode="&#x171;" horiz-adv-x="658" 
d="M594 554v-554h-141v112c-14.667 -37.333 -38.834 -66.5 -72.501 -87.5s-72.5 -31.5 -116.5 -31.5c-64 0 -115 21 -153 63s-57 100.667 -57 176v322h140v-306c0 -44 11.333 -78.167 34 -102.5s53.334 -36.5 92.001 -36.5c40.667 0 73 13 97 39s36 63.333 36 112v294h141z
M236 601h-88l72 188h110zM413 601h-88l89 188h110z" />
    <glyph glyph-name="Uogonek" unicode="&#x172;" horiz-adv-x="712" 
d="M310.5 -125c-24.333 20 -36.501 48.001 -36.501 84.001c0 8.66699 2 16.667 6 24s9.33301 12.666 16 15.999c-64.667 12 -117.667 43.167 -159 93.5s-62 116.833 -62 199.5v414h140v-414c0 -55.333 12.167 -96.833 36.5 -124.5s59.5 -41.5 105.5 -41.5
c44 0 78.5 13.5 103.5 40.5s37.5 68.833 37.5 125.5v414h140v-414c0 -82.667 -20.167 -148.5 -60.5 -197.5s-91.5 -79.5 -153.5 -91.5c-35.333 -6 -53 -20.667 -53 -44c0 -12 4.66699 -21.5 14 -28.5s23 -10.5 41 -10.5h107v-75h-133c-35.333 0 -65.166 10 -89.499 30z" />
    <glyph glyph-name="uogonek" unicode="&#x173;" horiz-adv-x="658" 
d="M594 554v-554h-141v112c-14.667 -37.333 -38.834 -66.5 -72.501 -87.5s-72.5 -31.5 -116.5 -31.5c-64 0 -115 21 -153 63s-57 100.667 -57 176v322h140v-306c0 -44 11.333 -78.167 34 -102.5s53.334 -36.5 92.001 -36.5c40.667 0 73 13 97 39s36 63.333 36 112v294h141z
M594 16v-68.001h-71c-16.667 0 -29.834 -3.5 -39.501 -10.5s-14.5 -16.5 -14.5 -28.5c0 -12.667 4.83301 -22.5 14.5 -29.5s22.834 -10.5 39.501 -10.5h114v-76h-128c-38.667 0 -71 9.33301 -97 28s-39 46.334 -39 83.001s12.333 64.5 37 83.5s53.667 28.5 87 28.5h97z" />
    <glyph glyph-name="Wcircumflex" unicode="&#x174;" horiz-adv-x="1022" 
d="M990 706l-173 -706h-174l-132 512l-133 -512h-173l-173 706h153l108 -547l140 547h155l141 -547l108 547h153zM512 840l-149 -85v95l149 83l148 -83v-95z" />
    <glyph glyph-name="wcircumflex" unicode="&#x175;" horiz-adv-x="863" 
d="M857 554l-149 -554h-156l-119 403l-122 -403h-156l-148 554h141l90 -428l123 428h149l124 -428l91 428h132zM432 688l-149 -85v95l149 83l148 -83v-95z" />
    <glyph glyph-name="Ycircumflex" unicode="&#x176;" horiz-adv-x="645" 
d="M633 706l-239 -459v-247h-142v247l-240 459h162l150 -309l150 309h159zM323 840l-149 -85v95l149 83l148 -83v-95z" />
    <glyph glyph-name="ycircumflex" unicode="&#x177;" horiz-adv-x="607" 
d="M159 554l151 -376l140 376h155l-339 -818h-156l125 280l-233 538h157zM304 688l-149 -85v95l149 83l148 -83v-95z" />
    <glyph glyph-name="Ydieresis" unicode="&#x178;" horiz-adv-x="645" 
d="M633 706l-239 -459v-247h-142v247l-240 459h162l150 -309l150 309h159zM183.5 883.5c12.333 12.333 27.166 18.5 44.499 18.5c18.667 0 34 -6.16699 46 -18.5s18 -27.5 18 -45.5c0 -17.333 -6 -32.166 -18 -44.499s-27.333 -18.5 -46 -18.5
c-17.333 0 -32.166 6.16699 -44.499 18.5s-18.5 27.166 -18.5 44.499c0 18 6.16699 33.167 18.5 45.5zM372 883.5c12 12.333 27 18.5 45 18.5s33.167 -6.16699 45.5 -18.5s18.5 -27.5 18.5 -45.5c0 -17.333 -6.16699 -32.166 -18.5 -44.499s-27.5 -18.5 -45.5 -18.5
s-33 6.16699 -45 18.5s-18 27.166 -18 44.499c0 18 6 33.167 18 45.5z" />
    <glyph glyph-name="Zacute" unicode="&#x179;" horiz-adv-x="573" 
d="M200 114h329v-114h-485v108l322 485h-317v113h476v-108zM438 856l-230 -108v96l230 120v-108z" />
    <glyph glyph-name="zacute" unicode="&#x17a;" horiz-adv-x="474" 
d="M178 118h272v-118h-426v112l255 325h-249v117h410v-111zM388 704l-230 -108v96l230 120v-108z" />
    <glyph glyph-name="Zdotaccent" unicode="&#x17b;" horiz-adv-x="573" 
d="M200 114h329v-114h-485v108l322 485h-317v113h476v-108zM241.5 883.5c12.333 12.333 27.166 18.5 44.499 18.5c18 0 33.167 -6.16699 45.5 -18.5s18.5 -27.5 18.5 -45.5c0 -17.333 -6.16699 -32.166 -18.5 -44.499s-27.5 -18.5 -45.5 -18.5
c-17.333 0 -32.166 6.16699 -44.499 18.5s-18.5 27.166 -18.5 44.499c0 18 6.16699 33.167 18.5 45.5z" />
    <glyph glyph-name="zdotaccent" unicode="&#x17c;" horiz-adv-x="474" 
d="M178 118h272v-118h-426v112l255 325h-249v117h410v-111zM191.5 731.5c12.333 12.333 27.166 18.5 44.499 18.5c18 0 33.167 -6.16699 45.5 -18.5s18.5 -27.5 18.5 -45.5c0 -17.333 -6.16699 -32.166 -18.5 -44.499s-27.5 -18.5 -45.5 -18.5
c-17.333 0 -32.166 6.16699 -44.499 18.5s-18.5 27.166 -18.5 44.499c0 18 6.16699 33.167 18.5 45.5z" />
    <glyph glyph-name="Zcaron" unicode="&#x17d;" horiz-adv-x="573" 
d="M200 114h329v-114h-485v108l322 485h-317v113h476v-108zM435 837l-148 -83l-149 83v95l149 -85l148 85v-95z" />
    <glyph glyph-name="zcaron" unicode="&#x17e;" horiz-adv-x="474" 
d="M178 118h272v-118h-426v112l255 325h-249v117h410v-111zM385 685l-148 -83l-149 83v95l149 -85l148 85v-95z" />
    <glyph glyph-name="florin" unicode="&#x192;" horiz-adv-x="336" 
d="M280.5 639.5c-16.333 -11 -25.8311 -29.166 -28.498 -54.499l-3 -31h99l-12 -118h-100l-54 -508c-6 -60.667 -26.333 -103.834 -61 -129.501s-81.667 -38.5 -141 -38.5h-32l11 121h34c15.333 0 26.666 3.5 33.999 10.5s12 19.167 14 36.5l54 508h-59l12 118h60l3 31
c7.33301 66 31.666 114.5 72.999 145.5s101 46.5 179 46.5l-12 -121c-30.667 0 -54.167 -5.5 -70.5 -16.5z" />
    <glyph glyph-name="uni01FC" unicode="&#x1fc;" horiz-adv-x="926" 
d="M612 594v-181h244v-108h-244v-192h274v-113h-415v136h-241l-72 -136h-154l377 706h505v-112h-274zM471 243v346l-184 -346h184zM621 856l-230 -108v96l230 120v-108z" />
    <glyph glyph-name="uni01FD" unicode="&#x1fd;" horiz-adv-x="1086" 
d="M1046 250l-428.997 0.00292969c3.33301 -49.333 18.166 -85.833 44.499 -109.5s59.5 -35.5 99.5 -35.5c35.333 0 64.666 8 87.999 24s38.333 38 45 66h149c-10.667 -59.333 -37 -107.833 -79 -145.5s-94 -56.5 -156 -56.5c-47.333 0 -88.333 10.667 -123 32
s-59 51.666 -73 90.999v-116h-140v116c-14 -37.333 -37.667 -67.166 -71 -89.499s-73.333 -33.5 -120 -33.5s-88.667 11.333 -126 34s-66.5 55.5 -87.5 98.5s-31.5 93.5 -31.5 151.5s10.5 108.5 31.5 151.5s50.167 75.833 87.5 98.5s79.333 34 126 34s86.667 -11 120 -33
s57 -51.667 71 -89v115h140v-116c14 39.333 38.333 69.666 73 90.999s75.667 32 123 32c49.333 0 92.166 -11.333 128.499 -34s64.333 -53.834 84 -93.501s29.5 -84.834 29.5 -135.501c0 -18 -1.33301 -34 -4 -48zM869.003 415.003c-28 23.333 -62.667 35.002 -104 35.002
c-39.333 0 -72.833 -11.333 -100.5 -34s-43.5 -57.334 -47.5 -104.001h291c2 45.333 -11 79.666 -39 102.999zM430.503 160.505c27.667 29 41.5 67.833 41.5 116.5c0 49.333 -13.833 88.5 -41.5 117.5s-62.834 43.5 -105.501 43.5c-44 0 -79.333 -14.333 -106 -43
s-40 -68 -40 -118s13.333 -89.167 40 -117.5s62 -42.5 106 -42.5c42.667 0 77.834 14.5 105.501 43.5zM694.003 704.005l-230 -108v96l230 120v-108z" />
    <glyph glyph-name="uni0218" unicode="&#x218;" horiz-adv-x="625" 
d="M522 93.5c-18 -30.333 -44.667 -54.6631 -80 -72.9961s-78.333 -27.5 -129 -27.5c-50 0 -94.667 8.5 -134 25.5s-70.833 41.5 -94.5 73.5s-37.167 69.333 -40.5 112h150c3.33301 -28.667 14.833 -52.5 34.5 -71.5s45.834 -28.5 78.501 -28.5
c29.333 0 51.833 7.83301 67.5 23.5s23.5 35.834 23.5 60.501c0 22 -6.33301 40.167 -19 54.5s-28.667 25.833 -48 34.5s-46 18.667 -80 30c-44 14.667 -80 29.167 -108 43.5s-51.833 35.166 -71.5 62.499s-29.5 63 -29.5 107c0 60.667 21.833 108.5 65.5 143.5
s101.5 52.5 173.5 52.5c74.667 0 134.167 -18 178.5 -54s69.5 -84 75.5 -144h-152c-4 25.333 -14.667 46.166 -32 62.499s-41 24.5 -71 24.5c-26 0 -47 -6.83301 -63 -20.5s-24 -33.5 -24 -59.5c0 -20.667 6.16699 -37.834 18.5 -51.501s28 -24.834 47 -33.501
s44.833 -18.334 77.5 -29.001c45.333 -16 82.166 -31 110.499 -45s52.5 -35 72.5 -63s30 -64.667 30 -110c0 -36 -9 -69.167 -27 -99.5zM395 -137.997c0 -44 -10.667 -78.333 -32 -103s-52.333 -37 -93 -37v54c33.333 0 50 22.333 50 67v9h-55v103h114
c10.667 -30 16 -61 16 -93z" />
    <glyph glyph-name="uni0219" unicode="&#x219;" horiz-adv-x="541" 
d="M417 510c40.667 -34 65.998 -79.3389 75.998 -136.006h-132c-5.33301 26.667 -17.333 48 -36 64s-43 24 -73 24c-24 0 -42.667 -5.66699 -56 -17s-20 -26.666 -20 -45.999c0 -15.333 5.33301 -27.666 16 -36.999s24 -16.666 40 -21.999s39 -11.666 69 -18.999
c42 -9.33301 76.167 -19.166 102.5 -29.499s49 -26.666 68 -48.999s28.5 -52.5 28.5 -90.5c0 -47.333 -18.5 -85.666 -55.5 -114.999s-86.833 -44 -149.5 -44c-72 0 -129.667 16.167 -173 48.5s-69.666 78.5 -78.999 138.5h135c3.33301 -27.333 15.333 -48.833 36 -64.5
s47.667 -23.5 81 -23.5c24 0 42.333 5.83301 55 17.5s19 26.834 19 45.501c0 16 -5.5 29 -16.5 39s-24.667 17.667 -41 23s-39.5 11.666 -69.5 18.999c-41.333 9.33301 -74.833 18.833 -100.5 28.5s-47.667 25.167 -66 46.5s-27.5 50.666 -27.5 87.999
c0 48 18.333 87 55 117s87.334 45 152.001 45c67.333 0 121.333 -17 162 -51zM348.998 -138.006c0 -44 -10.667 -78.333 -32 -103s-52 -37 -92 -37v54c33.333 0 50 22.333 50 67v9h-55v103h114c10 -28 15 -59 15 -93z" />
    <glyph glyph-name="uni021A" unicode="&#x21a;" horiz-adv-x="558" 
d="M544 706v-112h-195v-594h-141v594h-194v112h530zM350 -138c0 -44 -10.667 -78.333 -32 -103s-52 -37 -92 -37v54c33.333 0 50 22.333 50 67v9h-56v103h114c10.667 -30 16 -61 16 -93z" />
    <glyph glyph-name="uni021B" unicode="&#x21b;" horiz-adv-x="397" 
d="M360 121v-120.999h-74c-62 0 -109.5 15 -142.5 45s-49.5 80 -49.5 150v240h-77v119h77v137h141v-137h124v-119h-124v-242c0 -26.667 5.33301 -45.334 16 -56.001s28.667 -16 54 -16h55zM273 -44.999c10.667 -30 16 -61 16 -93c0 -44 -10.667 -78.333 -32 -103
s-52.333 -37 -93 -37v54c34 0 51 22.333 51 67v9h-56v103h114z" />
    <glyph glyph-name="uni02BC" unicode="&#x2bc;" horiz-adv-x="217" 
d="M175 714c0 -43.333 -10.499 -77.167 -31.499 -101.5s-52.167 -36.5 -93.5 -36.5v56c17.333 0 30.166 5 38.499 15s12.5 25.667 12.5 47v19h-58v109h116c10.667 -35.333 16 -71.333 16 -108z" />
    <glyph glyph-name="circumflex" unicode="&#x2c6;" horiz-adv-x="341" 
d="M171 688l-149 -85v95l149 83l148 -83v-95z" />
    <glyph glyph-name="caron" unicode="&#x2c7;" horiz-adv-x="341" 
d="M319 685l-148 -83l-149 83v95l149 -85l148 85v-95z" />
    <glyph glyph-name="uni02C9" unicode="&#x2c9;" horiz-adv-x="426" 
d="M404 732v-95h-382v95h382z" />
    <glyph glyph-name="breve" unicode="&#x2d8;" horiz-adv-x="363" 
d="M65.5 650c-29 29.333 -43.5 69.333 -43.5 120v12h70c0 -49.333 30 -74 90 -74s90 24.667 90 74h70v-12c0 -50.667 -14.5 -90.667 -43.5 -120s-67.833 -44 -116.5 -44s-87.5 14.667 -116.5 44z" />
    <glyph glyph-name="dotaccent" unicode="&#x2d9;" horiz-adv-x="177" 
d="M43.5 731.5c12.333 12.333 27.166 18.5 44.499 18.5c18 0 33.167 -6.16699 45.5 -18.5s18.5 -27.5 18.5 -45.5c0 -17.333 -6.16699 -32.166 -18.5 -44.499s-27.5 -18.5 -45.5 -18.5c-17.333 0 -32.166 6.16699 -44.499 18.5s-18.5 27.166 -18.5 44.499
c0 18 6.16699 33.167 18.5 45.5z" />
    <glyph glyph-name="ring" unicode="&#x2da;" horiz-adv-x="274" 
d="M219 801c22 -20.667 33 -48.667 33 -84s-11 -63.333 -33 -84s-49.333 -31 -82 -31s-60 10.5 -82 31.5s-33 48.833 -33 83.5s11 62.5 33 83.5s49.333 31.5 82 31.5s60 -10.333 82 -31zM97.5 758.5c-10.333 -10.333 -15.5 -24.166 -15.5 -41.499
s5.16699 -31.166 15.5 -41.499s23.5 -15.5 39.5 -15.5s29.333 5.16699 40 15.5s16 24.166 16 41.499s-5.33301 31.166 -16 41.499s-24 15.5 -40 15.5s-29.167 -5.16699 -39.5 -15.5z" />
    <glyph glyph-name="ogonek" unicode="&#x2db;" horiz-adv-x="296" 
d="M237 1v-68.001h-71c-16.667 0 -29.834 -3.5 -39.501 -10.5s-14.5 -16.5 -14.5 -28.5c0 -12.667 4.83301 -22.5 14.5 -29.5s22.834 -10.5 39.501 -10.5h114v-76h-128c-38.667 0 -71 9.33301 -97 28s-39 46.334 -39 83.001s12.333 64.5 37 83.5s53.667 28.5 87 28.5h97z
" />
    <glyph glyph-name="tilde" unicode="&#x2dc;" horiz-adv-x="399" 
d="M174 734c10.667 -4.66699 23.333 -11.335 38 -20.002c12 -7.33301 21.833 -12.666 29.5 -15.999s15.834 -5 24.501 -5c12 0 21.833 4 29.5 12s12.5 19.667 14.5 35h73c-6.66699 -44 -20.5 -76.833 -41.5 -98.5s-47.833 -32.5 -80.5 -32.5c-14 0 -26.5 2.33301 -37.5 7
s-24.167 11.334 -39.5 20.001c-12 6.66699 -21.5 11.667 -28.5 15s-14.833 5 -23.5 5c-24.667 0 -39.334 -15.667 -44.001 -47h-72c14 88 54.333 132 121 132c14 0 26.333 -2.33301 37 -7z" />
    <glyph glyph-name="hungarumlaut" unicode="&#x2dd;" horiz-adv-x="420" 
d="M110 601h-88l72 188h110zM287 601h-88l89 188h110z" />
    <glyph glyph-name="pi" unicode="&#x3c0;" horiz-adv-x="713" 
d="M684 554v-106h-74v-448h-141v448h-222v-448h-141v448h-74v106h652z" />
    <glyph glyph-name="dvCandrabindu" unicode="&#x901;" horiz-adv-x="0" 
d="M-199.5 1000.5c-10.333 10.333 -15.5 22.833 -15.5 37.5s5.16699 27.167 15.5 37.5s22.833 15.5 37.5 15.5c15.333 0 28.166 -5 38.499 -15s15.5 -22.667 15.5 -38s-5.16699 -28 -15.5 -38s-23.166 -15 -38.499 -15c-14.667 0 -27.167 5.16699 -37.5 15.5zM-328.5 867.5
c-39 35.667 -58.5 83.834 -58.5 144.501h103c0 -29.333 10.833 -54.333 32.5 -75s51.834 -31 90.501 -31c38 0 67.667 10.333 89 31s32 45.667 32 75h104c0 -60.667 -19.333 -108.834 -58 -144.501s-94.334 -53.5 -167.001 -53.5s-128.5 17.833 -167.5 53.5z" />
    <glyph glyph-name="dvAnusvara" unicode="&#x902;" horiz-adv-x="0" 
d="M-211.5 844c-15 15.333 -22.5 33.666 -22.5 54.999c0 22 7.5 40.5 22.5 55.5s33.5 22.5 55.5 22.5s40.667 -7.5 56 -22.5s23 -33.5 23 -55.5c0 -21.333 -7.66699 -39.666 -23 -54.999s-34 -23 -56 -23s-40.5 7.66699 -55.5 23z" />
    <glyph glyph-name="dvVisarga" unicode="&#x903;" horiz-adv-x="262" 
d="M75.5 422.5c-15 15 -22.5 33.167 -22.5 54.5s7.5 39.666 22.5 54.999s33.5 23 55.5 23c21.333 0 39.666 -7.66699 54.999 -23s23 -33.666 23 -54.999s-7.66699 -39.5 -23 -54.5s-33.666 -22.5 -54.999 -22.5c-22 0 -40.5 7.5 -55.5 22.5zM75.5 127
c-15 14.667 -22.5 32.667 -22.5 54c0 22 7.5 40.5 22.5 55.5s33.5 22.5 55.5 22.5c21.333 0 39.666 -7.5 54.999 -22.5s23 -33.5 23 -55.5c0 -20.667 -7.66699 -38.5 -23 -53.5s-33.666 -22.5 -54.999 -22.5c-22 0 -40.5 7.33301 -55.5 22z" />
    <glyph glyph-name="dvA" unicode="&#x905;" horiz-adv-x="835" 
d="M855 740v-108.002h-111v-632h-129v287l-117 1c2 -12.667 3 -25 3 -37c0 -59.333 -18.833 -106.5 -56.5 -141.5s-87.5 -52.5 -149.5 -52.5c-45.333 0 -85.333 8.66699 -120 26s-61.667 41.833 -81 73.5s-29 67.834 -29 108.501h121c0 -28 9.33301 -51.167 28 -69.5
s43 -27.5 73 -27.5s53.667 8.83301 71 26.5s26 40.5 26 68.5c0 27.333 -9.33301 50.5 -28 69.5s-46.334 28.5 -83.001 28.5h-43v104h43c32 0 57 8.33301 75 25s27 37 27 61c0 27.333 -8.5 48.833 -25.5 64.5s-38.5 23.5 -64.5 23.5c-27.333 0 -49.833 -7.83301 -67.5 -23.5
s-26.5 -36.167 -26.5 -61.5h-119c0 38.667 9 72.834 27 102.501s43 52.5 75 68.5s69 24 111 24c61.333 0 110.833 -16.333 148.5 -49s56.5 -76.334 56.5 -131.001c0 -37.333 -9.66699 -69.166 -29 -95.499s-46.666 -44.833 -81.999 -55.5v-3
c16.667 -3.33301 33.667 -10.333 51 -21h185v346h240z" />
    <glyph glyph-name="dvAA" unicode="&#x906;" horiz-adv-x="1140" 
d="M855 740v-108.002h-111v-632h-129v287l-117 1c2 -12.667 3 -25 3 -37c0 -59.333 -18.833 -106.5 -56.5 -141.5s-87.5 -52.5 -149.5 -52.5c-45.333 0 -85.333 8.66699 -120 26s-61.667 41.833 -81 73.5s-29 67.834 -29 108.501h121c0 -28 9.33301 -51.167 28 -69.5
s43 -27.5 73 -27.5s53.667 8.83301 71 26.5s26 40.5 26 68.5c0 27.333 -9.33301 50.5 -28 69.5s-46.334 28.5 -83.001 28.5h-43v104h43c32 0 57 8.33301 75 25s27 37 27 61c0 27.333 -8.5 48.833 -25.5 64.5s-38.5 23.5 -64.5 23.5c-27.333 0 -49.833 -7.83301 -67.5 -23.5
s-26.5 -36.167 -26.5 -61.5h-119c0 38.667 9 72.834 27 102.501s43 52.5 75 68.5s69 24 111 24c61.333 0 110.833 -16.333 148.5 -49s56.5 -76.334 56.5 -131.001c0 -37.333 -9.66699 -69.166 -29 -95.499s-46.666 -44.833 -81.999 -55.5v-3
c16.667 -3.33301 33.667 -10.333 51 -21h185v346h240zM924 631.998h-111v108h351v-108h-110v-632h-130v632z" />
    <glyph glyph-name="dvI" unicode="&#x907;" horiz-adv-x="579" 
d="M223 435c-16.667 -9.33301 -25.001 -24.999 -25.001 -46.999c0 -20.667 7.33301 -35.667 22 -45s34 -14 58 -14h43c58.667 0 107.667 -13.833 147 -41.5s59 -72.5 59 -134.5c0 -49.333 -15.5 -89.833 -46.5 -121.5s-74.167 -47.5 -129.5 -47.5c-36 0 -65.833 7 -89.5 21
s-41.167 29.333 -52.5 46v-132h-123v256h116c2.66699 -29.333 13.834 -52.5 33.501 -69.5s45.834 -25.5 78.501 -25.5c29.333 0 51.833 7.33301 67.5 22s23.5 33 23.5 55c0 28.667 -10 49.167 -30 61.5s-46 18.5 -78 18.5c-25.333 0 -45 0.666992 -59 2
c-47.333 2 -87.5 15.167 -120.5 39.5s-49.5 61.166 -49.5 110.499c0 52 17.333 90.5 52 115.5s78.667 37.5 132 37.5h91v90h-370v108h633v-108h-138v-183h-183c-24.667 0 -45.334 -4.66699 -62.001 -14z" />
    <glyph glyph-name="dvII" unicode="&#x908;" horiz-adv-x="579" 
d="M223 435c-16.667 -9.33301 -25.001 -24.999 -25.001 -46.999c0 -20.667 7.33301 -35.667 22 -45s34 -14 58 -14h43c58.667 0 107.667 -13.833 147 -41.5s59 -72.5 59 -134.5c0 -49.333 -15.5 -89.833 -46.5 -121.5s-74.167 -47.5 -129.5 -47.5c-36 0 -65.833 7 -89.5 21
s-41.167 29.333 -52.5 46v-132h-123v256h116c2.66699 -29.333 13.834 -52.5 33.501 -69.5s45.834 -25.5 78.501 -25.5c29.333 0 51.833 7.33301 67.5 22s23.5 33 23.5 55c0 28.667 -10 49.167 -30 61.5s-46 18.5 -78 18.5c-25.333 0 -45 0.666992 -59 2
c-47.333 2 -87.5 15.167 -120.5 39.5s-49.5 61.166 -49.5 110.499c0 52 17.333 90.5 52 115.5s78.667 37.5 132 37.5h91v90h-370v108h633v-108h-138v-183h-183c-24.667 0 -45.334 -4.66699 -62.001 -14zM343.999 808.001c0 60.667 14.665 110.5 43.998 149.5
s77 58.5 143 58.5c59.333 0 104.833 -17.333 136.5 -52s46.167 -81.334 43.5 -140.001h-113c0.666992 26 -4.66602 46.5 -15.999 61.5s-27.666 22.5 -48.999 22.5c-24 0 -41.5 -8.16699 -52.5 -24.5s-16.5 -41.166 -16.5 -74.499v-90h-120v89z" />
    <glyph glyph-name="dvU" unicode="&#x909;" horiz-adv-x="569" 
d="M461.5 455c-18.333 -26.667 -42.167 -43.002 -71.5 -49.002v-2c38 -10 68.5 -31.833 91.5 -65.5s34.5 -73.167 34.5 -118.5c0 -42.667 -9 -80.167 -27 -112.5s-43.833 -57.666 -77.5 -75.999s-73.834 -27.5 -120.501 -27.5c-48 0 -90.667 9.33301 -128 28
s-66.5 45.5 -87.5 80.5s-31.5 75.5 -31.5 121.5h123c0 -33.333 11.167 -60.833 33.5 -82.5s50.5 -32.5 84.5 -32.5c33.333 0 59.833 10.333 79.5 31s29.5 47.334 29.5 80.001c0 31.333 -9.66699 58.333 -29 81s-48.333 34 -87 34h-55v112h37
c32.667 0 58.334 9.33301 77.001 28s28 44.334 28 77.001v70h-386v108h611v-108h-101v-76c0 -40.667 -9.16699 -74.334 -27.5 -101.001z" />
    <glyph glyph-name="dvUU" unicode="&#x90a;" horiz-adv-x="857" 
d="M461.5 455c-18.333 -26.667 -42.168 -43.001 -71.501 -49.001v-2h189c71.333 0 128 -16.333 170 -49s63 -82 63 -148c0 -58 -17.167 -103.333 -51.5 -136s-81.166 -49 -140.499 -49c-14.667 0 -32.667 1.66699 -54 5v98c7.33301 -0.666992 18 -1 32 -1
c27.333 0 49.166 7.16699 65.499 21.5s24.5 36.166 24.5 65.499c0 30.667 -9.83301 53.334 -29.5 68.001s-45.5 22 -77.5 22h-84c12 -26 18 -55.333 18 -88c0 -40 -9 -75.833 -27 -107.5s-43.833 -56.5 -77.5 -74.5s-73.5 -27 -119.5 -27c-48 0 -90.667 9.33301 -128 28
s-66.5 45.5 -87.5 80.5s-31.5 75.5 -31.5 121.5h123c0 -33.333 11.167 -60.833 33.5 -82.5s50.5 -32.5 84.5 -32.5c33.333 0 59.833 10.333 79.5 31s29.5 47.334 29.5 80.001c0 31.333 -9.66699 58.333 -29 81s-48.333 34 -87 34h-55v112h37
c32.667 0 58.334 9.33301 77.001 28s28 44.334 28 77.001v70h-386v108h898v-108h-388v-76c0 -40.667 -9.16699 -74.334 -27.5 -101.001z" />
    <glyph glyph-name="dvvR" unicode="&#x90b;" horiz-adv-x="1040" 
d="M604 632l-0.000976562 -185.999h158c47.333 0 71 20.667 71 62v45h111v-351h-23c-31.333 0 -55.166 -7.83301 -71.499 -23.5s-24.5 -35.834 -24.5 -60.501c0 -28 9.33301 -48.667 28 -62s43 -20 73 -20c16.667 0 35.667 2.66699 57 8v-103
c-26.667 -5.33301 -51.334 -8 -74.001 -8c-61.333 0 -111.333 15.167 -150 45.5s-58 72.833 -58 127.5c0 42.667 11.833 78.334 35.5 107.001s55.834 48.667 96.501 60v87c-28 -11.333 -58 -17 -90 -17h-139v-343h-119v209l-220 -209h-163v6l382 331
c-8 30 -24 53.833 -48 71.5s-53 26.5 -87 26.5c-46.667 0 -84 -14.333 -112 -43s-42 -67 -42 -115h-129c0 52.667 10 99.167 30 139.5s48.5 71.666 85.5 93.999s80.167 33.5 129.5 33.5c76.667 0 134.667 -26.667 174 -80v168h-506v108h1082v-108h-457z" />
    <glyph glyph-name="dvvL" unicode="&#x90c;" horiz-adv-x="903" 
d="M701 632l0.00488281 -107c43.333 -12.667 78.166 -38.667 104.499 -78s39.5 -88.666 39.5 -147.999c0 -34.667 -5.33301 -68 -16 -100h-7c-38.667 0 -67 -7.66699 -85 -23s-27 -36 -27 -62c0 -27.333 9.5 -47.5 28.5 -60.5s43.833 -19.5 74.5 -19.5
c22.667 0 42 2.33301 58 7v-103c-26.667 -4.66699 -51.334 -7 -74.001 -7c-62.667 0 -113.5 15.167 -152.5 45.5s-58.5 74.166 -58.5 131.499c0 38.667 12 72.334 36 101.001s54.667 47.667 92 57c1.33301 14.667 2 26 2 34c0 36 -8.83301 65.333 -26.5 88
s-42.5 34 -74.5 34c-35.333 0 -61.833 -13.167 -79.5 -39.5s-26.5 -60.833 -26.5 -103.5v-25h-108v25c0 42 -8.66699 76.333 -26 103s-43 40 -77 40c-34.667 0 -61.334 -11.5 -80.001 -34.5s-28 -53.167 -28 -90.5c0 -43.333 11.167 -76.833 33.5 -100.5
s53.5 -35.5 93.5 -35.5l28 2v-113c-9.33301 -0.666992 -21 -1 -35 -1c-80 0 -141.833 22.667 -185.5 68s-65.5 106 -65.5 182c0 50.667 9.66699 93.667 29 129s45.833 62 79.5 80s71.167 27 112.5 27c45.333 0 82.166 -11.833 110.499 -35.5s48.833 -53.834 61.5 -90.501h3
c9.33301 28 24.166 52.5 44.499 73.5s45.833 35.833 76.5 44.5v105h-597v108h945v-108h-223z" />
    <glyph glyph-name="dvEcandra" unicode="&#x90d;" horiz-adv-x="652" 
d="M673 632l-96.0029 -0.00195312v-93c0 -69.333 -13.833 -121.666 -41.5 -156.999s-72.834 -53 -135.501 -53c-15.333 0 -31.666 1 -48.999 3v115c4.66699 -0.666992 11.334 -1 20.001 -1c28 0 48.333 7.83301 61 23.5s19 39.834 19 72.501v90h-232v-366
c0 -44 10.333 -77.833 31 -101.5s49.667 -35.5 87 -35.5c35.333 0 63 10.333 83 31s30 49.334 30 86.001h126c0 -71.333 -21.167 -127 -63.5 -167s-100.166 -60 -173.499 -60c-81.333 0 -143.166 22.667 -185.499 68s-63.5 106.666 -63.5 183.999l-1 361h-110v108h694v-108z
M158.997 881.998c-38 36.667 -56.999 84.334 -56.999 143.001h111c0 -29.333 9.5 -53.666 28.5 -72.999s47.833 -29 86.5 -29c38 0 66.667 9.66699 86 29s29 43.666 29 72.999h110c0 -58.667 -18.833 -106.334 -56.5 -143.001s-93.834 -55 -168.501 -55s-131 18.333 -169 55
z" />
    <glyph glyph-name="dvE" unicode="&#x90f;" horiz-adv-x="652" 
d="M673 632l-96.0029 -0.00195312v-93c0 -69.333 -13.833 -121.666 -41.5 -156.999s-72.834 -53 -135.501 -53c-15.333 0 -31.666 1 -48.999 3v115c4.66699 -0.666992 11.334 -1 20.001 -1c28 0 48.333 7.83301 61 23.5s19 39.834 19 72.501v90h-232v-366
c0 -44 10.333 -77.833 31 -101.5s49.667 -35.5 87 -35.5c35.333 0 63 10.333 83 31s30 49.334 30 86.001h126c0 -71.333 -21.167 -127 -63.5 -167s-100.166 -60 -173.499 -60c-81.333 0 -143.166 22.667 -185.499 68s-63.5 106.666 -63.5 183.999l-1 361h-110v108h694v-108z
" />
    <glyph glyph-name="dvAI" unicode="&#x910;" horiz-adv-x="652" 
d="M673 632l-96.0029 -0.00195312v-93c0 -69.333 -13.833 -121.666 -41.5 -156.999s-72.834 -53 -135.501 -53c-15.333 0 -31.666 1 -48.999 3v115c4.66699 -0.666992 11.334 -1 20.001 -1c28 0 48.333 7.83301 61 23.5s19 39.834 19 72.501v90h-232v-366
c0 -44 10.333 -77.833 31 -101.5s49.667 -35.5 87 -35.5c35.333 0 63 10.333 83 31s30 49.334 30 86.001h126c0 -71.333 -21.167 -127 -63.5 -167s-100.166 -60 -173.499 -60c-81.333 0 -143.166 22.667 -185.499 68s-63.5 106.666 -63.5 183.999l-1 361h-110v108h694v-108z
M377.497 837.498c-19 21 -38.166 34.835 -57.499 41.502s-45.333 10 -78 10h-48v104h46c53.333 -0.666992 95.666 -6.33398 126.999 -17.001s62.333 -33.834 93 -69.501s68 -92.5 112 -170.5h-121c-30 46.667 -54.5 80.5 -73.5 101.5z" />
    <glyph glyph-name="dvOcandra" unicode="&#x911;" horiz-adv-x="1144" 
d="M855 740v-108.002h-111v-632h-129v287l-117 1c2 -12.667 3 -25 3 -37c0 -59.333 -18.833 -106.5 -56.5 -141.5s-87.5 -52.5 -149.5 -52.5c-45.333 0 -85.333 8.66699 -120 26s-61.667 41.833 -81 73.5s-29 67.834 -29 108.501h121c0 -28 9.33301 -51.167 28 -69.5
s43 -27.5 73 -27.5s53.667 8.83301 71 26.5s26 40.5 26 68.5c0 27.333 -9.33301 50.5 -28 69.5s-46.334 28.5 -83.001 28.5h-43v104h43c32 0 57 8.33301 75 25s27 37 27 61c0 27.333 -8.5 48.833 -25.5 64.5s-38.5 23.5 -64.5 23.5c-27.333 0 -49.833 -7.83301 -67.5 -23.5
s-26.5 -36.167 -26.5 -61.5h-119c0 38.667 9 72.834 27 102.501s43 52.5 75 68.5s69 24 111 24c61.333 0 110.833 -16.333 148.5 -49s56.5 -76.334 56.5 -131.001c0 -37.333 -9.66699 -69.166 -29 -95.499s-46.666 -44.833 -81.999 -55.5v-3
c16.667 -3.33301 33.667 -10.333 51 -21h185v346h240zM924 631.998h-111v108h351v-108h-110v-632h-130v632zM669 881.998c-38 36.667 -56.999 84.334 -56.999 143.001h111c0 -29.333 9.5 -53.666 28.5 -72.999s47.833 -29 86.5 -29c38 0 66.667 9.66699 86 29
s29 43.666 29 72.999h110c0 -58.667 -18.833 -106.334 -56.5 -143.001s-93.834 -55 -168.501 -55s-131 18.333 -169 55z" />
    <glyph glyph-name="dvO" unicode="&#x913;" horiz-adv-x="1144" 
d="M855.5 837.5c-19 21 -38.166 34.835 -57.499 41.502s-45.333 10 -78 10h-48v104h46c53.333 -0.666992 95.666 -6.33398 126.999 -17.001s62.333 -33.834 93 -69.501s68 -92.5 112 -170.5h-121c-30 46.667 -54.5 80.5 -73.5 101.5zM855.001 740.002v-108.002h-111v-632
h-129v287l-117 1c2 -12.667 3 -25 3 -37c0 -59.333 -18.833 -106.5 -56.5 -141.5s-87.5 -52.5 -149.5 -52.5c-45.333 0 -85.333 8.66699 -120 26s-61.667 41.833 -81 73.5s-29 67.834 -29 108.501h121c0 -28 9.33301 -51.167 28 -69.5s43 -27.5 73 -27.5
s53.667 8.83301 71 26.5s26 40.5 26 68.5c0 27.333 -9.33301 50.5 -28 69.5s-46.334 28.5 -83.001 28.5h-43v104h43c32 0 57 8.33301 75 25s27 37 27 61c0 27.333 -8.5 48.833 -25.5 64.5s-38.5 23.5 -64.5 23.5c-27.333 0 -49.833 -7.83301 -67.5 -23.5
s-26.5 -36.167 -26.5 -61.5h-119c0 38.667 9 72.834 27 102.501s43 52.5 75 68.5s69 24 111 24c61.333 0 110.833 -16.333 148.5 -49s56.5 -76.334 56.5 -131.001c0 -37.333 -9.66699 -69.166 -29 -95.499s-46.666 -44.833 -81.999 -55.5v-3
c16.667 -3.33301 33.667 -10.333 51 -21h185v346h240zM924.001 632h-111v108h351v-108h-110v-632h-130v632z" />
    <glyph glyph-name="dvAU" unicode="&#x914;" horiz-adv-x="1144" 
d="M832.5 1042.5c27.667 -11.667 57.001 -39.168 88.001 -82.501s73.5 -117.666 127.5 -222.999h-111c-42 28.667 -71.833 48 -89.5 58s-35.167 16.333 -52.5 19s-45.333 4 -84 4h-50v81h47c37.333 0 65 -1.16699 83 -3.5s36.167 -8 54.5 -17s41.166 -24.167 68.499 -45.5
c-25.333 45.333 -48.333 78.333 -69 99s-40.167 33.5 -58.5 38.5s-42.833 7.5 -73.5 7.5h-52v82h49c54 0 94.833 -5.83301 122.5 -17.5zM855.001 739.999v-108.002h-111v-632h-129v287l-117 1c2 -12.667 3 -25 3 -37c0 -59.333 -18.833 -106.5 -56.5 -141.5
s-87.5 -52.5 -149.5 -52.5c-45.333 0 -85.333 8.66699 -120 26s-61.667 41.833 -81 73.5s-29 67.834 -29 108.501h121c0 -28 9.33301 -51.167 28 -69.5s43 -27.5 73 -27.5s53.667 8.83301 71 26.5s26 40.5 26 68.5c0 27.333 -9.33301 50.5 -28 69.5
s-46.334 28.5 -83.001 28.5h-43v104h43c32 0 57 8.33301 75 25s27 37 27 61c0 27.333 -8.5 48.833 -25.5 64.5s-38.5 23.5 -64.5 23.5c-27.333 0 -49.833 -7.83301 -67.5 -23.5s-26.5 -36.167 -26.5 -61.5h-119c0 38.667 9 72.834 27 102.501s43 52.5 75 68.5s69 24 111 24
c61.333 0 110.833 -16.333 148.5 -49s56.5 -76.334 56.5 -131.001c0 -37.333 -9.66699 -69.166 -29 -95.499s-46.666 -44.833 -81.999 -55.5v-3c16.667 -3.33301 33.667 -10.333 51 -21h185v346h240zM924.001 631.997h-111v108h351v-108h-110v-632h-130v632z" />
    <glyph glyph-name="dvKA" unicode="&#x915;" horiz-adv-x="976" 
d="M557 632l-0.00195312 -173.999c14.667 25.333 35.167 45.5 61.5 60.5s57.5 22.5 93.5 22.5c41.333 0 77.5 -9.83301 108.5 -29.5s54.833 -46.834 71.5 -81.501s25 -73.667 25 -117c0 -47.333 -9 -88.166 -27 -122.499s-42.667 -60.666 -74 -78.999s-67 -27.5 -107 -27.5
c-20.667 0 -42.334 2.66699 -65.001 8v101c8.66699 -2 19.334 -3 32.001 -3c32 0 58.333 10.667 79 32s31 50.666 31 87.999c0 35.333 -10.667 64.333 -32 87s-48.666 34 -81.999 34c-37.333 0 -65.833 -12.667 -85.5 -38s-29.5 -56 -29.5 -92v-301h-124v162
c-15.333 -26.667 -37 -47.5 -65 -62.5s-61.333 -22.5 -100 -22.5c-42 0 -78.667 9.66699 -110 29s-55.666 46.666 -72.999 81.999s-26 76 -26 122s8.83301 86.5 26.5 121.5s42.667 62 75 81s69.833 28.5 112.5 28.5c37.333 0 69.5 -7.16699 96.5 -21.5
s48.167 -33.833 63.5 -58.5v171h-454v108h1018v-108h-440zM400.998 223.001c21.333 24.667 32 53.334 32 86.001c0 33.333 -10.5 62.166 -31.5 86.499s-50.833 36.5 -89.5 36.5c-35.333 0 -64.5 -11.167 -87.5 -33.5s-34.5 -51.833 -34.5 -88.5
c0 -38 11.333 -68.167 34 -90.5s51.667 -33.5 87 -33.5c38.667 0 68.667 12.333 90 37z" />
    <glyph glyph-name="dvKHA" unicode="&#x916;" horiz-adv-x="950" 
d="M970 740l-0.00195312 -107.999h-110v-632h-129v179c-29.333 -38.667 -72.666 -58 -129.999 -58c-7.33301 0 -18.333 0.666992 -33 2c-22.667 -38.667 -53.167 -69.667 -91.5 -93s-83.166 -35 -134.499 -35c-83.333 0 -149.166 23.5 -197.499 70.5
s-72.5 113.167 -72.5 198.5v137h29c45.333 0 79.666 10.667 102.999 32s35 56.666 35 105.999v93h-260v108h991zM468.998 170.001c-20 18.667 -35.334 41.5 -46.001 68.5s-16 56.833 -16 89.5c0 39.333 8.33301 74.333 25 105s39.834 54.667 69.501 72s62.834 26 99.501 26
c57.333 0 100.666 -19.667 129.999 -59v160h-362v-110c0 -66.667 -15.333 -117.667 -46 -153s-71.667 -55 -123 -59v-61c0 -42.667 12.833 -77.167 38.5 -103.5s61.167 -39.5 106.5 -39.5c56 0 97.333 21.333 124 64zM704.497 251.001
c17.667 21.333 26.498 46.668 26.498 76.001c0 28 -8.66699 52.667 -26 74s-42.666 32 -75.999 32c-30 0 -55.333 -9.33301 -76 -28s-31 -44.334 -31 -77.001c0 -34 10 -60.667 30 -80s45.667 -29 77 -29c32.667 0 57.834 10.667 75.501 32z" />
    <glyph glyph-name="dvGA" unicode="&#x917;" horiz-adv-x="789" 
d="M809 740v-108h-111v-632h-129v632h-146v-243c0 -59.333 -15.5 -107.333 -46.5 -144s-78.5 -55 -142.5 -55c-62 0 -109.833 17 -143.5 51s-50.5 81.333 -50.5 142c0 14 0.333008 24.333 1 31h125v-31c0 -24 5.16699 -43.833 15.5 -59.5s26.5 -23.5 48.5 -23.5
c42.667 0 64 28 64 84v248h-315v108h830z" />
    <glyph glyph-name="dvGHA" unicode="&#x918;" horiz-adv-x="703" 
d="M724 632l-110.001 -0.000976562v-632h-130v189c-21.333 -29.333 -48.5 -51.666 -81.5 -66.999s-70.167 -23 -111.5 -23c-64 0 -116.5 15.833 -157.5 47.5s-61.5 76.5 -61.5 134.5c0 38.667 11.333 71 34 97s50.334 42.667 83.001 50v3
c-31.333 7.33301 -56.333 22.5 -75 45.5s-28 55.5 -28 97.5v58h-107v108h745v-108zM483.999 631.999l-269 -0.00195312v-52c0 -32 8.33301 -56.167 25 -72.5s44 -24.5 82 -24.5h43v-104h-52c-36.667 0 -64.167 -7.83301 -82.5 -23.5s-27.5 -36.167 -27.5 -61.5
c0 -29.333 11 -51.666 33 -66.999s50.667 -23 86 -23c30 0 57.333 6.33301 82 19s44.167 30.834 58.5 54.501s21.5 50.5 21.5 80.5v274z" />
    <glyph glyph-name="dvNGA" unicode="&#x919;" horiz-adv-x="686" 
d="M706 740v-107.998h-235v-183h-182c-24.667 0 -45.334 -4.5 -62.001 -13.5s-25 -24.5 -25 -46.5c0 -20.667 7.16699 -35.834 21.5 -45.501s33.166 -14.5 56.499 -14.5h44c58.667 0 107.834 -13.667 147.501 -41s59.5 -71.333 59.5 -132
c0 -53.333 -19.167 -95.666 -57.5 -126.999s-92.5 -47 -162.5 -47c-74 0 -134 17.167 -180 51.5s-70.333 81.5 -73 141.5h129c0.666992 -29.333 11.834 -52.5 33.501 -69.5s50.5 -25.5 86.5 -25.5c32 0 56.833 7 74.5 21s26.5 32.667 26.5 56c0 28 -9.83301 48.333 -29.5 61
s-45.5 19 -77.5 19h-37c-50.667 0 -95.167 11.667 -133.5 35s-57.5 63.666 -57.5 120.999c0 49.333 17.167 86.166 51.5 110.499s77.833 36.5 130.5 36.5h91v92h-367v108h727zM651.5 428.502c13.667 -13.667 20.5 -30.5 20.5 -50.5c0 -19.333 -6.83301 -35.833 -20.5 -49.5
s-30.5 -20.5 -50.5 -20.5s-36.833 6.83301 -50.5 20.5s-20.5 30.167 -20.5 49.5c0 20 6.83301 36.833 20.5 50.5s30.5 20.5 50.5 20.5s36.833 -6.83301 50.5 -20.5z" />
    <glyph glyph-name="dvCA" unicode="&#x91a;" horiz-adv-x="746" 
d="M767 632l-111.003 0.000976562v-632h-129v176c-19.333 -27.333 -44.666 -48.666 -75.999 -63.999s-66.333 -23 -105 -23c-39.333 0 -74.666 7.66699 -105.999 23s-56.166 37.666 -74.499 66.999s-27.5 64 -27.5 104c0 27.333 5.33301 52.5 16 75.5s26 42.167 46 57.5
h-150v102h367v-102h-39c-35.333 0 -64 -10.333 -86 -31s-33 -47.334 -33 -80.001c0 -34 12 -60.667 36 -80s53.667 -29 89 -29c43.333 0.666992 78 16.5 104 47.5s39 70.167 39 117.5v271h-548v108h788v-108z" />
    <glyph glyph-name="dvCHA" unicode="&#x91b;" horiz-adv-x="821" 
d="M643 632v-96.001c41.333 -12 74 -35.667 98 -71s36 -80 36 -134c0 -62.667 -15.167 -117.167 -45.5 -163.5s-73.833 -82 -130.5 -107s-123.667 -37.5 -201 -37.5c-101.333 0 -182.333 18.833 -243 56.5s-91 92.5 -91 164.5c0 41.333 11 75.333 33 102
s51.333 45.334 88 56.001v3c-31.333 7.33301 -56.333 22.5 -75 45.5s-28 55.5 -28 97.5v84h-105v108h863v-108h-199zM523 631.999l-310.001 -0.00195312v-78c0 -31.333 8 -55.333 24 -72s41.333 -25 76 -25h21v-104h-19c-38.667 0 -68 -9 -88 -27s-30 -41.333 -30 -70
c0 -39.333 17.333 -69.666 52 -90.999s85.334 -32 152.001 -32c82 0 146.333 17.833 193 53.5s70 85.834 70 150.501c0 34 -7.83301 61 -23.5 81s-35.167 30 -58.5 30c-22 0 -40.667 -8 -56 -24s-23 -39 -23 -69c0 -26 4.66699 -53.667 14 -83h-106
c-10 30 -15 62.333 -15 97c0 46.667 11.5 84 34.5 112s53.833 46.667 92.5 56v95z" />
    <glyph glyph-name="dvJA" unicode="&#x91c;" horiz-adv-x="852" 
d="M873 632l-110.002 -0.000976562v-632h-130v382h-143v-55c0 -42 -8.66699 -79.167 -26 -111.5s-42.166 -57.666 -74.499 -75.999s-70.166 -27.5 -113.499 -27.5c-68.667 0 -121.667 19.667 -159 59s-56 91.333 -56 156v165h129v-161c0 -32.667 7.66699 -58.5 23 -77.5
s36.333 -28.5 63 -28.5c28 0 49.667 9.5 65 28.5s23 44.833 23 77.5v161h269v140h-654v108h894v-108z" />
    <glyph glyph-name="dvJHA" unicode="&#x91d;" horiz-adv-x="862" 
d="M882 632l-111.002 0.000976562v-632h-127v232h-147c18 -25.333 27 -56.333 27 -93c0 -44 -14.667 -80.167 -44 -108.5s-70.333 -42.5 -123 -42.5c-61.333 0 -109.666 20.667 -144.999 62v-132h-122v252h116c3.33301 -26 14.5 -47 33.5 -63s44.833 -24 77.5 -24
c28.667 0 50.5 7 65.5 21s22.5 31.667 22.5 53c0 25.333 -9.16699 45 -27.5 59s-45.166 21 -80.499 21c-25.333 0 -45 0.666992 -59 2c-47.333 2 -87.5 15.167 -120.5 39.5s-49.5 61.166 -49.5 110.499c0 52 17.333 90.5 52 115.5s78.667 37.5 132 37.5h91v90h-364v108h903
v-108zM643.998 329.001l0.000976562 303h-176v-183h-183c-24.667 0 -45.334 -4.66699 -62.001 -14s-25 -25 -25 -47c0 -20.667 7.33301 -35.667 22 -45s34 -14 58 -14h43h323z" />
    <glyph glyph-name="dvNYA" unicode="&#x91e;" horiz-adv-x="825" 
d="M846 632l-110.003 0.00195312v-632h-130v256h-90c-9.33301 -58 -34.166 -104 -74.499 -138s-91.5 -51 -153.5 -51c-64.667 0 -117.667 17.333 -159 52s-64.666 79.667 -69.999 135h122c6 -22.667 18.5 -41.334 37.5 -56.001s42.5 -22 70.5 -22c36.667 0 65 12.333 85 37
s30 55.667 30 93c0 36 -10.167 66.333 -30.5 91s-48.5 37 -84.5 37c-28.667 0 -52.334 -7.33301 -71.001 -22s-31 -33.334 -37 -56.001h-122c5.33301 56 28.5 101.333 69.5 136s94.167 52 159.5 52c60.667 0 110.834 -16.167 150.501 -48.5s64.834 -75.833 75.501 -130.5h92
v267h-627v108h867v-108z" />
    <glyph glyph-name="dvTTA" unicode="&#x91f;" horiz-adv-x="647" 
d="M235.5 393.5c-31.667 -25.667 -47.502 -62.5 -47.502 -110.5c0 -42 13.833 -76.333 41.5 -103s63.834 -40 108.501 -40c45.333 0 81.833 14 109.5 42s41.5 64 41.5 108h123c0 -52 -11.167 -97.833 -33.5 -137.5s-54 -70.334 -95 -92.001s-88.5 -32.5 -142.5 -32.5
c-54.667 0 -103.334 10.667 -146.001 32s-76 51.333 -100 90s-36 83 -36 133c0 53.333 11.833 99.333 35.5 138s57.334 68.334 101.001 89.001s94.834 31 153.501 31h4v91h-374v108h689v-108h-188v-200h-123c-49.333 0 -89.833 -12.833 -121.5 -38.5z" />
    <glyph glyph-name="dvTTHA" unicode="&#x920;" horiz-adv-x="673" 
d="M399 632v-94.002c62.667 -11.333 114.167 -38.666 154.5 -81.999s60.5 -98.666 60.5 -165.999c0 -50.667 -12.167 -95.167 -36.5 -133.5s-57.5 -67.833 -99.5 -88.5s-89.333 -31 -142 -31c-52 0 -99 10.333 -141 31s-75.167 50.167 -99.5 88.5s-36.5 82.833 -36.5 133.5
c0 67.333 20 122.5 60 165.5s91 70.5 153 82.5v94h-293v108h714v-108h-294zM444.5 394.498c-27.667 27 -63.834 40.5 -108.501 40.5c-44 0 -79.667 -13.5 -107 -40.5s-41 -61.833 -41 -104.5s13.667 -77.667 41 -105s63 -41 107 -41c44.667 0 80.834 13.667 108.501 41
s41.5 62.333 41.5 105s-13.833 77.5 -41.5 104.5z" />
    <glyph glyph-name="dvDDA" unicode="&#x921;" horiz-adv-x="569" 
d="M227 435.5c-16.667 -9 -25 -24.498 -25 -46.498c0 -20.667 7.16699 -35.834 21.5 -45.501s33.166 -14.5 56.499 -14.5h44c58.667 0 107.834 -13.667 147.501 -41s59.5 -71.333 59.5 -132c0 -53.333 -19.167 -95.666 -57.5 -126.999s-92.5 -47 -162.5 -47
c-74 0 -134 17.167 -180 51.5s-70.333 81.5 -73 141.5h129c0.666992 -29.333 11.834 -52.5 33.501 -69.5s50.5 -25.5 86.5 -25.5c32 0 56.833 7 74.5 21s26.5 32.667 26.5 56c0 28 -9.83301 48.333 -29.5 61s-45.5 19 -77.5 19h-37c-50.667 0 -95.167 11.667 -133.5 35
s-57.5 63.666 -57.5 120.999c0 49.333 17.167 86.166 51.5 110.499s77.833 36.5 130.5 36.5h87v92h-363v108h610v-108h-122v-183h-178c-24.667 0 -45.334 -4.5 -62.001 -13.5z" />
    <glyph glyph-name="dvDDHA" unicode="&#x922;" horiz-adv-x="650" 
d="M241.5 410c-38.333 -32 -57.502 -78 -57.502 -138c0 -53.333 16.833 -96.833 50.5 -130.5s80.5 -50.5 140.5 -50.5c42 0 76.5 9.66699 103.5 29s40.5 45.333 40.5 78c0 21.333 -6.83301 39 -20.5 53s-30.834 21 -51.501 21c-18 0 -33.5 -6 -46.5 -18s-19.5 -27 -19.5 -45
c0 -6.66699 1 -12.667 3 -18h-93c-2.66699 16 -4 27.667 -4 35c0 43.333 15.333 77.166 46 101.499s70.334 36.5 119.001 36.5c54.667 0 97.834 -15.167 129.501 -45.5s47.5 -70.5 47.5 -120.5c0 -62 -22.5 -110.833 -67.5 -146.5s-107.833 -53.5 -188.5 -53.5
c-59.333 0 -112.833 11.167 -160.5 33.5s-85.167 54.5 -112.5 96.5s-41 91.667 -41 149s12.667 106.333 38 147s60 71.334 104 92.001s94 31 150 31h27v85h-399v108h691v-108h-170v-174h-109c-61.333 0 -111.166 -16 -149.499 -48z" />
    <glyph glyph-name="dvNNA" unicode="&#x923;" horiz-adv-x="881" 
d="M901 632l-111.001 -0.000976562v-632h-129v632h-157v-260c0 -63.333 -18.167 -114.666 -54.5 -153.999s-88.166 -59 -155.499 -59c-66.667 0 -118.167 20 -154.5 60s-54.5 91 -54.5 153v260h-106v108h922v-108zM376.999 631.999h-165.999v-272
c0 -27.333 7.66699 -49.5 23 -66.5s35.666 -25.5 60.999 -25.5c26 0 46.167 8.33301 60.5 25s21.5 39 21.5 67v272z" />
    <glyph glyph-name="dvTA" unicode="&#x924;" horiz-adv-x="703" 
d="M723 632l-111.001 0.000976562v-632h-129v383h-133c-49.333 0 -88.333 -12 -117 -36s-43 -58.333 -43 -103c0 -44 12.667 -78.5 38 -103.5s62.333 -37.5 111 -37.5h19v-102h-39c-77.333 0 -140 20.667 -188 62s-72 102.666 -72 183.999c0 82 26.333 143.667 79 185
s121.334 62 206.001 62h139v138h-504v108h744v-108z" />
    <glyph glyph-name="dvTHA" unicode="&#x925;" horiz-adv-x="784" 
d="M804 740v-107.994h-111v-632h-129v205c-15.333 -32.667 -42.166 -60.167 -80.499 -82.5s-84.833 -33.5 -139.5 -33.5c-56.667 0 -106 11.333 -148 34s-74.5 55 -97.5 97s-34.5 91.667 -34.5 149c0 23.333 1.33301 44.666 4 63.999h92c58.667 0 105.5 9.16699 140.5 27.5
s52.5 50.166 52.5 95.499c0 24 -7 43.833 -21 59.5s-33 23.5 -57 23.5c-25.333 0 -45.333 -7.83301 -60 -23.5s-22 -36.834 -22 -63.501c0 -9.33301 1.33301 -22 4 -38h-117c-2.66699 17.333 -4 31 -4 41c0 40.667 8.83301 75.667 26.5 105s41.667 51.5 72 66.5
s64.166 22.5 101.499 22.5c38.667 0 73 -8.16699 103 -24.5s53.333 -39.5 70 -69.5s25 -64.333 25 -103c0 -67.333 -23.167 -119.5 -69.5 -156.5s-111.166 -55.5 -194.499 -55.5h-21c2 -42.667 17.5 -77.334 46.5 -104.001s71.5 -40 127.5 -40
c37.333 0 71.166 8.16699 101.499 24.5s54.5 40.166 72.5 71.499s27 68.666 27 111.999v336h240z" />
    <glyph glyph-name="dvDA" unicode="&#x926;" horiz-adv-x="611" 
d="M232 396.5c-27.333 -22.333 -41 -53.834 -41 -94.501c0 -37.333 11 -67 33 -89s51.333 -33 88 -33c30 0 55.833 9.5 77.5 28.5s32.5 45.833 32.5 80.5h119v-315h-126v164c-14.667 -19.333 -34 -34.166 -58 -44.499s-51.333 -15.5 -82 -15.5
c-40 0 -76.333 8.66699 -109 26s-58.667 43 -78 77s-29 75.333 -29 124c0 50 11.5 92.833 34.5 128.5s54.667 62.5 95 80.5s85.833 27 136.5 27h51v91h-397v108h652v-108h-125v-202h-167c-44 0 -79.667 -11.167 -107 -33.5z" />
    <glyph glyph-name="dvDHA" unicode="&#x927;" horiz-adv-x="724" 
d="M751 632l-108.001 0.000976562v-632h-130v185c-21.333 -32 -50.166 -56.667 -86.499 -74s-78.5 -26 -126.5 -26c-64 0 -117 15.667 -159 47s-63 75.333 -63 132c0 40 11.833 72.5 35.5 97.5s51.167 40.5 82.5 46.5v4c-35.333 8.66699 -65.166 27.167 -89.499 55.5
s-36.5 64.833 -36.5 109.5c0 52 16.833 93.667 50.5 125s77.167 47 130.5 47c54.667 0 97.5 -15.167 128.5 -45.5s46.5 -70.166 46.5 -119.499c0 -10.667 -0.666992 -23.334 -2 -38.001h-96l1 22c0 21.333 -6.5 38.833 -19.5 52.5s-30.833 20.5 -53.5 20.5
c-23.333 0 -41.833 -7.33301 -55.5 -22s-20.5 -33.334 -20.5 -56.001c0 -32 12.833 -56.333 38.5 -73s58.167 -25 97.5 -25h59v-105h-53c-36 0 -63.833 -7.16699 -83.5 -21.5s-29.5 -34.5 -29.5 -60.5c0 -28 11.333 -49.5 34 -64.5s52.334 -22.5 89.001 -22.5
c35.333 0 66.666 7.83301 93.999 23.5s48.666 37.5 63.999 65.5s23 60.333 23 97v363h238v-108z" />
    <glyph glyph-name="dvNA" unicode="&#x928;" horiz-adv-x="810" 
d="M831 632h-111v-632h-129v392h-152c24 -33.333 36 -71.666 36 -114.999c0 -40 -9 -74.333 -27 -103s-42.5 -50.334 -73.5 -65.001s-65.5 -22 -103.5 -22c-39.333 0 -75.5 8.33301 -108.5 25s-59.167 40.5 -78.5 71.5s-29 67.5 -29 109.5c0 44 10 81.5 30 112.5
s47.167 54.333 81.5 70s72.833 23.5 115.5 23.5h309v133h-612v108h852v-108zM344 223.5c18.667 18.333 27.999 41.833 27.999 70.5c0 28 -9.33301 51.167 -28 69.5s-42.334 27.5 -71.001 27.5c-30 0 -54.5 -9.16699 -73.5 -27.5s-28.5 -41.833 -28.5 -70.5
s9.33301 -52 28 -70s43.334 -27 74.001 -27c28.667 0 52.334 9.16699 71.001 27.5z" />
    <glyph glyph-name="dvPA" unicode="&#x92a;" horiz-adv-x="669" 
d="M689 632h-110v-632h-129v242c-35.333 -45.333 -87.333 -68 -156 -68c-70.667 0 -125 23.167 -163 69.5s-57 107.833 -57 184.5v204h-95v108h710v-108zM450 632h-247.001v-204c0 -45.333 10.333 -80.833 31 -106.5s51.667 -38.5 93 -38.5
c38.667 0 68.834 12.5 90.501 37.5s32.5 56.167 32.5 93.5v218z" />
    <glyph glyph-name="dvPHA" unicode="&#x92b;" horiz-adv-x="985" 
d="M561 632l0.00195312 -173.002c15.333 25.333 36.666 45.333 63.999 60s59.666 22 96.999 22c40.667 0 76.5 -9.66699 107.5 -29s55 -46.166 72 -80.499s25.5 -72.833 25.5 -115.5c0 -48 -8.83301 -89.5 -26.5 -124.5s-42.334 -61.667 -74.001 -80
s-67.5 -27.5 -107.5 -27.5c-26 0 -49.333 3.33301 -70 10v99c16 -2.66699 28.333 -4 37 -4c32.667 0 59.167 11.167 79.5 33.5s30.5 51.5 30.5 87.5c0 35.333 -10.667 64.333 -32 87s-48.666 34 -81.999 34c-40 0 -70.167 -13.667 -90.5 -41s-30.5 -61.666 -30.5 -102.999
v-287h-129v239c-33.333 -43.333 -82.333 -65 -147 -65c-67.333 0 -119.333 22.667 -156 68s-55 105.333 -55 180v210h-95v108h1026v-108h-444zM432.002 631.998h-229v-210c0 -43.333 9.5 -77.333 28.5 -102s47.833 -37 86.5 -37c36 0 64 11.833 84 35.5s30 53.5 30 89.5v224
z" />
    <glyph glyph-name="dvBA" unicode="&#x92c;" horiz-adv-x="688" 
d="M709 740l0.00195312 -108.001h-111v-632h-124v152c-16.667 -25.333 -39.834 -45.166 -69.501 -59.499s-63.834 -21.5 -102.501 -21.5c-45.333 0 -86.5 10.167 -123.5 30.5s-66.167 49 -87.5 86s-32 79.167 -32 126.5c0 46.667 10.5 88 31.5 124s49.833 64 86.5 84
s78 30 124 30c38 0 71.5 -7 100.5 -21s53.167 -33 72.5 -57v158h-495v108h730zM226.002 432.999l238 -190.999c11.333 24 17 48.333 17 73c0 26.667 -6 51.667 -18 75s-29.5 42.166 -52.5 56.499s-50.5 21.5 -82.5 21.5c-39.333 0 -73.333 -11.667 -102 -35zM193.002 234
c14 -22.667 33 -39.999 57 -51.999s50.333 -18 79 -18c40.667 0 74 11.333 100 34l-239 192c-12 -24 -18 -49.333 -18 -76c0 -30.667 7 -57.334 21 -80.001z" />
    <glyph glyph-name="dvBHA" unicode="&#x92d;" horiz-adv-x="831" 
d="M852 740l-0.00195312 -107.999h-112v-632h-129v355h-139v-59c0 -70 -17.333 -124.167 -52 -162.5s-84.667 -57.5 -150 -57.5c-40.667 0 -76.667 8 -108 24s-55.666 38.667 -72.999 68s-26 63 -26 101c0 61.333 20 108.666 60 141.999s91.333 50 154 50h74v82
c0 30 -5.66699 53.333 -17 70s-28.666 25 -51.999 25c-20 0 -36.333 -7.16699 -49 -21.5s-19 -33.5 -19 -57.5c0 -12 1.33301 -23.333 4 -34h-130c-2.66699 16 -4 29 -4 39c0 55.333 16.833 100 50.5 134s81.5 51 143.5 51c68 0 117.333 -20.667 148 -62s46 -97 46 -167v-59
h139v279h241zM350.998 355.001h-71c-28.667 0 -52 -7.66699 -70 -23s-27 -36 -27 -62s8 -46.5 24 -61.5s36.333 -22.5 61 -22.5c26.667 0 47.167 9.16699 61.5 27.5s21.5 43.5 21.5 75.5v66z" />
    <glyph glyph-name="dvMA" unicode="&#x92e;" horiz-adv-x="821" 
d="M842 632l-111 0.000976562v-632h-130v355h-149v-59c0 -69.333 -17.5 -123.333 -52.5 -162s-85.167 -58 -150.5 -58c-62 0 -111.833 17.667 -149.5 53s-56.5 82 -56.5 140c0 61.333 20 108.666 60 141.999s91 50 153 50h75v171h-352v108h863v-108zM601 632.001h-149v-171
h149v171zM331 355.001h-71c-28.667 0 -52 -7.66699 -70 -23s-27 -36 -27 -62s7.83301 -46.5 23.5 -61.5s35.834 -22.5 60.501 -22.5c27.333 0 48.166 9.16699 62.499 27.5s21.5 43.5 21.5 75.5v66z" />
    <glyph glyph-name="dvYA" unicode="&#x92f;" horiz-adv-x="749" 
d="M770 632l-111 -0.000976562v-632h-129v179c-20.667 -26.667 -48 -47.667 -82 -63s-73.667 -23 -119 -23c-84.667 0 -150.667 25.333 -198 76s-71 119.334 -71 206.001c0 12.667 1.33301 31 4 55h12c56 0 96.5 12.167 121.5 36.5s37.5 61.5 37.5 111.5v54h-256v108h791
v-108zM530 631.999l-167.001 -0.000976562v-77c0 -119.333 -58.333 -183.666 -175 -192.999c0 -48.667 14.833 -87.667 44.5 -117s70.834 -44 123.501 -44c52 0 94 16 126 48s48 73 48 123v260z" />
    <glyph glyph-name="dvRA" unicode="&#x930;" horiz-adv-x="532" 
d="M198 315v-113.999c0 -30 6.83301 -54.167 20.5 -72.5s33.834 -27.5 60.501 -27.5c25.333 0 45 8.66699 59 26s21 40 21 68v24h124c0.666992 -6 1 -12.667 1 -20c0 -63.333 -18 -113.833 -54 -151.5s-85.667 -56.5 -149 -56.5c-67.333 0 -119.333 20 -156 60
s-55 92 -55 156v212h103c53.333 0 92.166 12.167 116.499 36.5s36.5 60.166 36.5 107.499v69h-347v108h574v-108h-98v-69c0 -165.333 -78.333 -248 -235 -248h-22z" />
    <glyph glyph-name="dvRxA" unicode="&#x931;" horiz-adv-x="532" 
d="M198 315v-113.999c0 -30 6.83301 -54.167 20.5 -72.5s33.834 -27.5 60.501 -27.5c25.333 0 45 8.66699 59 26s21 40 21 68v24h124c0.666992 -6 1 -12.667 1 -20c0 -63.333 -18 -113.833 -54 -151.5s-85.667 -56.5 -149 -56.5c-67.333 0 -119.333 20 -156 60
s-55 92 -55 156v212h103c53.333 0 92.166 12.167 116.499 36.5s36.5 60.166 36.5 107.499v69h-347v108h574v-108h-98v-69c0 -165.333 -78.333 -248 -235 -248h-22zM55.5 -169.499c-15 15 -22.5 33.167 -22.5 54.5c0 22 7.5 40.5 22.5 55.5s33.5 22.5 55.5 22.5
s40.5 -7.5 55.5 -22.5s22.5 -33.5 22.5 -55.5c0 -21.333 -7.5 -39.5 -22.5 -54.5s-33.5 -22.5 -55.5 -22.5s-40.5 7.5 -55.5 22.5z" />
    <glyph glyph-name="dvLA" unicode="&#x932;" horiz-adv-x="910" 
d="M717 632v-115c40.667 -15.333 73.167 -42.166 97.5 -80.499s36.5 -85.5 36.5 -141.5c0 -48.667 -9.66699 -91.834 -29 -129.501s-47.833 -67.167 -85.5 -88.5s-83.167 -32 -136.5 -32c-14 0 -25.667 0.333008 -35 1v113l28 -2c39.333 0 70.333 12.333 93 37
s34 57.667 34 99c0 36.667 -9.16699 66.5 -27.5 89.5s-44.166 34.5 -77.499 34.5c-35.333 0 -61.833 -13 -79.5 -39s-26.5 -60.333 -26.5 -103v-21h-108v21c0 42 -8.66699 76.167 -26 102.5s-43 39.5 -77 39.5c-34.667 0 -61.334 -11.333 -80.001 -34s-28 -52.667 -28 -90
c0 -41.333 11.333 -74.333 34 -99s53.667 -37 93 -37l28 2v-113c-9.33301 -0.666992 -21 -1 -35 -1c-53.333 0 -98.833 10.667 -136.5 32s-66.167 50.833 -85.5 88.5s-29 80.834 -29 129.501c0 50.667 9.66699 93.667 29 129s45.833 62 79.5 80s71.167 27 112.5 27
c46 0 83.167 -11.667 111.5 -35s49.166 -53.333 62.499 -90h2c11.333 30.667 27.833 56.667 49.5 78s49.834 35.666 84.501 42.999v105h-611v108h952v-108h-214z" />
    <glyph glyph-name="dvLLA" unicode="&#x933;" horiz-adv-x="975" 
d="M767 632l0.000976562 -114.998c44.667 -14.667 80.667 -41.334 108 -80.001s41 -85 41 -139c0 -45.333 -10 -85.333 -30 -120s-47.333 -61.5 -82 -80.5s-73.334 -28.5 -116.001 -28.5c-46.667 0 -87.5 11.167 -122.5 33.5s-60.167 52.833 -75.5 91.5h-5
c-15.333 -38.667 -40.5 -69.167 -75.5 -91.5s-75.833 -33.5 -122.5 -33.5c-42.667 0 -81.334 9.5 -116.001 28.5s-62 45.833 -82 80.5s-30 74.667 -30 120c0 46 10 86.667 30 122s47.333 62.5 82 81.5s73.334 28.5 116.001 28.5c44.667 0 84 -10.5 118 -31.5
s61 -51.833 81 -92.5h3c16 33.333 37 60.166 63 80.499s56 33.5 90 39.5v106h-663v108h1016v-108h-228zM391.001 212.502c22 22.333 32.999 50.833 32.999 85.5c0 36 -11 65.333 -33 88s-50.667 34 -86 34s-64.166 -11.333 -86.499 -34s-33.5 -52 -33.5 -88
c0 -35.333 11.333 -64 34 -86s51.667 -33 87 -33c34.667 0 63 11.167 85 33.5zM755 212.002c22.667 22 33.999 50.667 33.999 86c0 36 -11.167 65.333 -33.5 88s-50.833 34 -85.5 34c-35.333 0 -64 -11.333 -86 -34s-33 -52 -33 -88c0 -35.333 11 -64 33 -86
s50.333 -33 85 -33s63.334 11 86.001 33z" />
    <glyph glyph-name="dvVA" unicode="&#x935;" horiz-adv-x="670" 
d="M690 740l-0.00195312 -107.999h-110v-632h-126v159c-17.333 -26.667 -40.333 -47.334 -69 -62.001s-62 -22 -100 -22c-45.333 0 -85.166 10.167 -119.499 30.5s-60.666 48.5 -78.999 84.5s-27.5 77.333 -27.5 124c0 44.667 9.33301 84.5 28 119.5s45.167 62.333 79.5 82
s73.833 29.5 118.5 29.5c38 0 71.5 -7.16699 100.5 -21.5s51.833 -34.5 68.5 -60.5v169h-475v108h711zM392.998 197.001c20 12.667 35.167 29.167 45.5 49.5s15.5 41.5 15.5 63.5c0 36 -11.667 67 -35 93s-56.333 39 -99 39c-38.667 0 -70.667 -12.167 -96 -36.5
s-38 -55.833 -38 -94.5c0 -40 12.5 -72.167 37.5 -96.5s57.167 -36.5 96.5 -36.5c28.667 0 53 6.33301 73 19z" />
    <glyph glyph-name="dvSHA" unicode="&#x936;" horiz-adv-x="840" 
d="M206 300v-85.002c0 -33.333 7.66699 -60.166 23 -80.499s39.666 -30.5 72.999 -30.5c28 0 50 9.16699 66 27.5s24 42.833 24 73.5v14h126v-16c0 -65.333 -19.167 -116.666 -57.5 -153.999s-90.166 -56 -155.499 -56c-72 0 -128.333 20.667 -169 62s-61 97 -61 167v186
h142c52 0 95 10.5 129 31.5s51 53.833 51 98.5c0 30 -8 54 -24 72s-38 27 -66 27s-50 -9 -66 -27s-24 -42.333 -24 -73c0 -16 0.666992 -28.333 2 -37h-129c-2 14 -3 28 -3 42c0 40.667 9 76.667 27 108s43.667 55.666 77 72.999s72 26 116 26
c67.333 0 121 -19.167 161 -57.5s60 -92.166 60 -161.499c0 -75.333 -24.5 -132.5 -73.5 -171.5s-112.5 -58.5 -190.5 -58.5h-58zM861 739.998v-108h-111v-632h-131v740h242z" />
    <glyph glyph-name="dvSSA" unicode="&#x937;" horiz-adv-x="680" 
d="M701 632l-111 0.000976562v-632h-127v235c-34.667 -47.333 -88.334 -71 -161.001 -71c-73.333 0 -129.666 24.167 -168.999 72.5s-59 112.166 -59 191.499v204h-95v108h722v-108zM463 632.001h-262l262 -191v191zM407.5 295.001c21 14.667 36.167 34.667 45.5 60
l-254 184v-114c0 -46.667 10.833 -83.667 32.5 -111s54.167 -41 97.5 -41c31.333 0 57.5 7.33301 78.5 22z" />
    <glyph glyph-name="dvSA" unicode="&#x938;" horiz-adv-x="825" 
d="M845 632l-111.001 0.000976562v-632h-129v319h-407v-117c0 -30 7 -54.333 21 -73s35 -28 63 -28c26 0 46.333 8.66699 61 26s22 40 22 68v12h124c0.666992 -5.33301 1 -12 1 -20c0 -60 -18.333 -107.667 -55 -143s-87 -53 -151 -53c-68 0 -120.667 20.167 -158 60.5
s-56 92.833 -56 157.5v203h82c52.667 0 91.334 12.667 116.001 38s37 60.666 37 105.999v76h-326v108h866v-108zM604.999 632.001h-171v-76c0 -50 -11.667 -93.667 -35 -131h206v207z" />
    <glyph glyph-name="dvHA" unicode="&#x939;" horiz-adv-x="585" 
d="M238 438c-14.667 -9.33301 -22.001 -24.668 -22.001 -46.001c0 -13.333 3.66699 -25 11 -35s17.666 -17.667 30.999 -23c14 2.66699 31 4 51 4c68 0 121.333 -16.667 160 -50s61.334 -76 68.001 -128h-124c-4.66699 20 -16.334 37.5 -35.001 52.5s-42.667 22.5 -72 22.5
c-34.667 0 -62.5 -11 -83.5 -33s-31.5 -50.333 -31.5 -85c0 -36 10.5 -64.833 31.5 -86.5s48.833 -32.5 83.5 -32.5c28 0 51.5 7.16699 70.5 21.5s31.167 31.5 36.5 51.5h124c-6 -53.333 -29.833 -96.666 -71.5 -129.999s-94.834 -50 -159.501 -50
c-49.333 0 -92.166 9.66699 -128.499 29s-64.166 46.166 -83.499 80.499s-29 73.833 -29 118.5c0 39.333 8.33301 74.5 25 105.5s40.334 56.167 71.001 75.5c-22.667 12.667 -40.5 28.834 -53.5 48.501s-19.5 42.5 -19.5 68.5c0 40 14.667 71.333 44 94s69 34 119 34h98v87
h-370v108h627v-108h-133v-180h-177c-24 0 -43.333 -4.66699 -58 -14z" />
    <glyph glyph-name="dvNukta" unicode="&#x93c;" horiz-adv-x="0" 
d="M-367.5 -196.5c-15 15 -22.5 33.167 -22.5 54.5c0 22 7.5 40.5 22.5 55.5s33.5 22.5 55.5 22.5s40.5 -7.5 55.5 -22.5s22.5 -33.5 22.5 -55.5c0 -21.333 -7.5 -39.5 -22.5 -54.5s-33.5 -22.5 -55.5 -22.5s-40.5 7.5 -55.5 22.5z" />
    <glyph glyph-name="dvAvagraha" unicode="&#x93d;" horiz-adv-x="589" 
d="M64 161l235 -0.00195312c20.667 0 36.5 4.33301 47.5 13s16.5 20.334 16.5 35.001c0 17.333 -7.33301 34 -22 50s-37.667 36.333 -69 61c-30.667 24.667 -55.834 46.5 -75.501 65.5s-36.5 41.5 -50.5 67.5s-21 54 -21 84c0 44.667 14.833 78.334 44.5 101.001
s68.834 34 117.501 34h219v-109h-187c-41.333 0 -62 -15 -62 -45c0 -17.333 7.66699 -34.333 23 -51s38.333 -37 69 -61c30.667 -24.667 55.667 -46.5 75 -65.5s36 -41.333 50 -67s21 -53.5 21 -83.5c0 -42 -14.833 -75.5 -44.5 -100.5s-69.5 -37.5 -119.5 -37.5h-267v109z
" />
    <glyph glyph-name="dvmAA" unicode="&#x93e;" 
d="M90 632h-111v108h351v-108h-110v-632h-130v632z" />
    <glyph glyph-name="dvmI" unicode="&#x93f;" 
d="M704 983c61.333 -23.333 109.333 -57.002 144 -101.002s52 -95.333 52 -154v-17h-129v15c0 42 -13.167 76.833 -39.5 104.5s-60.5 48.167 -102.5 61.5s-86.667 20 -134 20c-74.667 0 -138.667 -13.833 -192 -41.5s-81.666 -71.167 -84.999 -130.5h112v-108h-110v-632
h-130v632h-111v108h111c2 58.667 20.667 108.834 56 150.501s83.166 73.334 143.499 95.001s128.833 32.5 205.5 32.5c78 0 147.667 -11.667 209 -35z" />
    <glyph glyph-name="dvmII" unicode="&#x940;" 
d="M330 740l0.00195312 -108h-110v-632h-130v632h-111v108h115v39c0 86.667 -30.667 130 -92 130c-36.667 0 -61.834 -12.5 -75.501 -37.5s-20.5 -55.833 -20.5 -92.5v-68h-126v62c0 75.333 17.667 135 53 179s91.666 66 168.999 66s133 -22.167 167 -66.5
s51 -103.833 51 -178.5v-33h110z" />
    <glyph glyph-name="dvmU" unicode="&#x941;" horiz-adv-x="0" 
d="M-384 -270c-47.333 36.667 -70.334 93 -69.001 169h114c-1.33301 -41.333 10 -72 34 -92s56 -30 96 -30c32.667 0 58.334 7.33301 77.001 22s28 35 28 61c0 22 -7.33301 40.333 -22 55s-35.334 22 -62.001 22h-32v101h32c62.667 0 110.667 -16.167 144 -48.5
s50 -75.833 50 -130.5c0 -56.667 -19 -101.5 -57 -134.5s-89.667 -49.5 -155 -49.5c-71.333 0 -130.666 18.333 -177.999 55z" />
    <glyph glyph-name="dvmUU" unicode="&#x942;" horiz-adv-x="0" 
d="M-314.5 -268.5c-34.333 29 -51.5 70.498 -51.5 124.498c0 54.667 19 97.834 57 129.501s88 47.5 150 47.5c88.667 0 153.834 -27.333 195.501 -82s62.5 -124.334 62.5 -209.001l-1 -48h-106v54c0 60.667 -13.167 107.334 -39.5 140.001s-63.833 49 -112.5 49
c-30 0 -54.5 -7 -73.5 -21s-28.5 -34 -28.5 -60c0 -23.333 8.16699 -41.666 24.5 -54.999s36.5 -20 60.5 -20c12.667 0 22.667 0.333008 30 1v-93c-8.66699 -0.666992 -21.334 -1 -38.001 -1c-52 0 -95.167 14.5 -129.5 43.5z" />
    <glyph glyph-name="dvmvR" unicode="&#x943;" horiz-adv-x="0" 
d="M-285 -281.5c-40.667 29.667 -61.002 75.499 -61.002 137.499c0 53.333 18.333 96.5 55 129.5s87.334 49.5 152.001 49.5c26.667 0 43 -0.333008 49 -1v-88h-38c-29.333 0 -52.166 -8 -68.499 -24s-24.5 -36.333 -24.5 -61c0 -29.333 9.83301 -50.666 29.5 -63.999
s44.834 -20 75.501 -20c25.333 0 51.666 4 78.999 12v-100c-30 -10 -63.333 -15 -100 -15c-58 0 -107.333 14.833 -148 44.5z" />
    <glyph glyph-name="dvmvRR" unicode="&#x944;" horiz-adv-x="0" 
d="M-262.5 -432.5c-37.667 23.667 -56.5 60.501 -56.5 110.501c0 30 8.83301 55.5 26.5 76.5s40.834 34.833 69.501 41.5v3c-28.667 7.33301 -51.834 20 -69.501 38s-26.5 42.667 -26.5 74c0 42.667 15.5 74 46.5 94s67.167 30 108.5 30h74v-71h-25
c-53.333 0 -80 -19.667 -80 -59c0 -20 7.66699 -34.5 23 -43.5s35.333 -13.5 60 -13.5h53v-96h-48c-59.333 0 -89 -20.333 -89 -61c0 -21.333 8.66699 -36.5 26 -45.5s39 -13.5 65 -13.5c18.667 0 37.167 1.66699 55.5 5s33.166 6.66602 44.499 9.99902v-96
c-13.333 -6 -31.166 -10.667 -53.499 -14s-44.166 -5 -65.499 -5c-54.667 0 -100.834 11.833 -138.501 35.5z" />
    <glyph glyph-name="dvmEcandra" unicode="&#x945;" horiz-adv-x="0" 
d="M-330 869c-38 36.667 -56.999 84.334 -56.999 143.001h111c0 -29.333 9.5 -53.666 28.5 -72.999s47.833 -29 86.5 -29c38 0 66.667 9.66699 86 29s29 43.666 29 72.999h110c0 -58.667 -18.833 -106.334 -56.5 -143.001s-93.834 -55 -168.501 -55s-131 18.333 -169 55z
" />
    <glyph glyph-name="dvmE" unicode="&#x947;" horiz-adv-x="0" 
d="M-285.5 837.5c-19 21 -38.166 34.835 -57.499 41.502s-45.333 10 -78 10h-48v104h46c53.333 -0.666992 95.666 -6.33398 126.999 -17.001s62.333 -33.834 93 -69.501s68 -92.5 112 -170.5h-121c-30 46.667 -54.5 80.5 -73.5 101.5z" />
    <glyph glyph-name="dvmAI" unicode="&#x948;" horiz-adv-x="0" 
d="M-307.5 1042.5c27.667 -11.667 57.001 -39.168 88.001 -82.501s73.5 -117.666 127.5 -222.999h-111c-42 28.667 -71.833 48 -89.5 58s-35.167 16.333 -52.5 19s-45.333 4 -84 4h-50v81h47c37.333 0 65 -1.16699 83 -3.5s36.167 -8 54.5 -17s41.166 -24.167 68.499 -45.5
c-25.333 45.333 -48.333 78.333 -69 99s-40.167 33.5 -58.5 38.5s-42.833 7.5 -73.5 7.5h-52v82h49c54 0 94.833 -5.83301 122.5 -17.5z" />
    <glyph glyph-name="dvmOcandra" unicode="&#x949;" horiz-adv-x="311" 
d="M91 632h-111v108h351v-108h-110v-632h-130v632zM-14 869c-38 36.667 -56.999 84.334 -56.999 143.001h111c0 -29.333 9.5 -53.666 28.5 -72.999s47.833 -29 86.5 -29c38 0 66.667 9.66699 86 29s29 43.666 29 72.999h110c0 -58.667 -18.833 -106.334 -56.5 -143.001
s-93.834 -55 -168.501 -55s-131 18.333 -169 55z" />
    <glyph glyph-name="dvmO" unicode="&#x94b;" horiz-adv-x="310" 
d="M90 632h-111v108h351v-108h-110v-632h-130v632zM24.5 837.5c-19 21 -38.166 34.835 -57.499 41.502s-45.333 10 -78 10h-48v104h46c53.333 -0.666992 95.666 -6.33398 126.999 -17.001s62.333 -33.834 93 -69.501s68 -92.5 112 -170.5h-121
c-30 46.667 -54.5 80.5 -73.5 101.5z" />
    <glyph glyph-name="dvmAU" unicode="&#x94c;" 
d="M90 632h-111v108h351v-108h-110v-632h-130v632zM-1.5 1042.5c27.667 -11.667 57.001 -39.168 88.001 -82.501s73.5 -117.666 127.5 -222.999h-111c-42 28.667 -71.833 48 -89.5 58s-35.167 16.333 -52.5 19s-45.333 4 -84 4h-50v81h47c37.333 0 65 -1.16699 83 -3.5
s36.167 -8 54.5 -17s41.166 -24.167 68.499 -45.5c-25.333 45.333 -48.333 78.333 -69 99s-40.167 33.5 -58.5 38.5s-42.833 7.5 -73.5 7.5h-52v82h49c54 0 94.833 -5.83301 122.5 -17.5z" />
    <glyph glyph-name="dvVirama" unicode="&#x94d;" horiz-adv-x="0" 
d="M-216 -57h128l130 -214h-132z" />
    <glyph glyph-name="dvOm" unicode="&#x950;" horiz-adv-x="1066" 
d="M529.5 919.5c-10.333 10.333 -15.5 22.833 -15.5 37.5c0 15.333 5.16699 28.166 15.5 38.499s22.833 15.5 37.5 15.5c15.333 0 28 -5.16699 38 -15.5s15 -23.166 15 -38.499s-5 -28 -15 -38s-22.667 -15 -38 -15c-14.667 0 -27.167 5.16699 -37.5 15.5zM399.5 786.5
c-39 35.667 -58.501 83.834 -58.501 144.501h103c0 -29.333 10.833 -54.166 32.5 -74.499s51.834 -30.5 90.501 -30.5c38 0 67.833 10.167 89.5 30.5s32.5 45.166 32.5 74.499h104c0 -60.667 -19.5 -108.834 -58.5 -144.501s-94.833 -53.5 -167.5 -53.5
s-128.5 17.833 -167.5 53.5zM939.499 621.5c33 -41.667 49.5029 -103.165 49.5029 -184.498v-128c0 -95.333 -22 -167.5 -66 -216.5s-110 -73.5 -198 -73.5c-26 0 -59.667 3.33301 -101 10v107c34.667 -4.66699 60.667 -7 78 -7c60 0 102 15.5 126 46.5s36 77.167 36 138.5
v139c0 39.333 -6.5 69.333 -19.5 90s-34.833 31 -65.5 31c-54.667 0 -82 -33.667 -82 -101c0 -48.667 -6.33301 -87.667 -19 -117s-33.167 -50.833 -61.5 -64.5s-66.5 -21.167 -114.5 -22.5c6 -18.667 9 -38.667 9 -60c0 -40 -8.83301 -74.833 -26.5 -104.5
s-42.334 -52.667 -74.001 -69s-67.834 -24.5 -108.501 -24.5c-45.333 0 -85.333 8.66699 -120 26s-61.5 41.666 -80.5 72.999s-28.5 67.333 -28.5 108h120c0 -27.333 9.5 -50.166 28.5 -68.499s43.167 -27.5 72.5 -27.5c30 0 53.833 9.16699 71.5 27.5
s26.5 42.166 26.5 71.499c0 28 -9.33301 51.667 -28 71s-46.334 29 -83.001 29h-43v109h43c32 0 57 8.66699 75 26s27 39 27 65c0 28 -8.66699 50.167 -26 66.5s-39.333 24.5 -66 24.5s-48.667 -7.66699 -66 -23s-26 -36 -26 -62h-120c0 38.667 9 72.834 27 102.501
s43.333 52.667 76 69s70 24.5 112 24.5c62 0 111.833 -16.833 149.5 -50.5s56.5 -78.5 56.5 -134.5c0 -38.667 -9.66699 -71.834 -29 -99.501s-47 -46.834 -83 -57.501v-2c10 -2 19 -5 27 -9h58c36.667 0 63 7.5 79 22.5s24 42.5 24 82.5c0 67.333 15.833 119 47.5 155
s83.5 54 155.5 54c74 0 127.5 -20.833 160.5 -62.5z" />
    <glyph glyph-name="dvKxA" unicode="&#x958;" horiz-adv-x="976" 
d="M557 632l-0.00195312 -173.999c14.667 25.333 35.167 45.5 61.5 60.5s57.5 22.5 93.5 22.5c41.333 0 77.5 -9.83301 108.5 -29.5s54.833 -46.834 71.5 -81.501s25 -73.667 25 -117c0 -47.333 -9 -88.166 -27 -122.499s-42.667 -60.666 -74 -78.999s-67 -27.5 -107 -27.5
c-20.667 0 -42.334 2.66699 -65.001 8v101c8.66699 -2 19.334 -3 32.001 -3c32 0 58.333 10.667 79 32s31 50.666 31 87.999c0 35.333 -10.667 64.333 -32 87s-48.666 34 -81.999 34c-37.333 0 -65.833 -12.667 -85.5 -38s-29.5 -56 -29.5 -92v-301h-124v162
c-15.333 -26.667 -37 -47.5 -65 -62.5s-61.333 -22.5 -100 -22.5c-42 0 -78.667 9.66699 -110 29s-55.666 46.666 -72.999 81.999s-26 76 -26 122s8.83301 86.5 26.5 121.5s42.667 62 75 81s69.833 28.5 112.5 28.5c37.333 0 69.5 -7.16699 96.5 -21.5
s48.167 -33.833 63.5 -58.5v171h-454v108h1018v-108h-440zM400.998 223.001c21.333 24.667 32 53.334 32 86.001c0 33.333 -10.5 62.166 -31.5 86.499s-50.833 36.5 -89.5 36.5c-35.333 0 -64.5 -11.167 -87.5 -33.5s-34.5 -51.833 -34.5 -88.5
c0 -38 11.333 -68.167 34 -90.5s51.667 -33.5 87 -33.5c38.667 0 68.667 12.333 90 37zM193.498 -122.499c-15 15 -22.5 33.167 -22.5 54.5c0 22 7.5 40.5 22.5 55.5s33.5 22.5 55.5 22.5s40.5 -7.5 55.5 -22.5s22.5 -33.5 22.5 -55.5c0 -21.333 -7.5 -39.5 -22.5 -54.5
s-33.5 -22.5 -55.5 -22.5s-40.5 7.5 -55.5 22.5z" />
    <glyph glyph-name="dvKHxA" unicode="&#x959;" horiz-adv-x="950" 
d="M970 740l-0.00195312 -107.999h-110v-632h-129v179c-29.333 -38.667 -72.666 -58 -129.999 -58c-7.33301 0 -18.333 0.666992 -33 2c-22.667 -38.667 -53.167 -69.667 -91.5 -93s-83.166 -35 -134.499 -35c-83.333 0 -149.166 23.5 -197.499 70.5
s-72.5 113.167 -72.5 198.5v137h29c45.333 0 79.666 10.667 102.999 32s35 56.666 35 105.999v93h-260v108h991zM468.998 170.001c-20 18.667 -35.334 41.5 -46.001 68.5s-16 56.833 -16 89.5c0 39.333 8.33301 74.333 25 105s39.834 54.667 69.501 72s62.834 26 99.501 26
c57.333 0 100.666 -19.667 129.999 -59v160h-362v-110c0 -66.667 -15.333 -117.667 -46 -153s-71.667 -55 -123 -59v-61c0 -42.667 12.833 -77.167 38.5 -103.5s61.167 -39.5 106.5 -39.5c56 0 97.333 21.333 124 64zM704.497 251.001
c17.667 21.333 26.498 46.668 26.498 76.001c0 28 -8.66699 52.667 -26 74s-42.666 32 -75.999 32c-30 0 -55.333 -9.33301 -76 -28s-31 -44.334 -31 -77.001c0 -34 10 -60.667 30 -80s45.667 -29 77 -29c32.667 0 57.834 10.667 75.501 32zM265.495 -201.497
c-15 15 -22.5 33.167 -22.5 54.5c0 22 7.5 40.5 22.5 55.5s33.5 22.5 55.5 22.5s40.5 -7.5 55.5 -22.5s22.5 -33.5 22.5 -55.5c0 -21.333 -7.5 -39.5 -22.5 -54.5s-33.5 -22.5 -55.5 -22.5s-40.5 7.5 -55.5 22.5z" />
    <glyph glyph-name="dvGxA" unicode="&#x95a;" horiz-adv-x="788" 
d="M809 740v-108h-111v-632h-129v632h-146v-243c0 -59.333 -15.5 -107.333 -46.5 -144s-78.5 -55 -142.5 -55c-62 0 -109.833 17 -143.5 51s-50.5 81.333 -50.5 142c0 14 0.333008 24.333 1 31h125v-31c0 -24 5.16699 -43.833 15.5 -59.5s26.5 -23.5 48.5 -23.5
c42.667 0 64 28 64 84v248h-315v108h830zM180.5 -11.5c-15 15 -22.5 33.167 -22.5 54.5c0 22 7.5 40.5 22.5 55.5s33.5 22.5 55.5 22.5s40.5 -7.5 55.5 -22.5s22.5 -33.5 22.5 -55.5c0 -21.333 -7.5 -39.5 -22.5 -54.5s-33.5 -22.5 -55.5 -22.5s-40.5 7.5 -55.5 22.5z" />
    <glyph glyph-name="dvJxA" unicode="&#x95b;" horiz-adv-x="852" 
d="M873 632l-110.002 -0.000976562v-632h-130v382h-143v-55c0 -42 -8.66699 -79.167 -26 -111.5s-42.166 -57.666 -74.499 -75.999s-70.166 -27.5 -113.499 -27.5c-68.667 0 -121.667 19.667 -159 59s-56 91.333 -56 156v165h129v-161c0 -32.667 7.66699 -58.5 23 -77.5
s36.333 -28.5 63 -28.5c28 0 49.667 9.5 65 28.5s23 44.833 23 77.5v161h269v140h-654v108h894v-108zM222.498 -86.501c-15 15 -22.5 33.167 -22.5 54.5c0 22 7.5 40.5 22.5 55.5s33.5 22.5 55.5 22.5s40.5 -7.5 55.5 -22.5s22.5 -33.5 22.5 -55.5
c0 -21.333 -7.5 -39.5 -22.5 -54.5s-33.5 -22.5 -55.5 -22.5s-40.5 7.5 -55.5 22.5z" />
    <glyph glyph-name="dvDDxA" unicode="&#x95c;" horiz-adv-x="569" 
d="M227 435.5c-16.667 -9 -25 -24.498 -25 -46.498c0 -20.667 7.16699 -35.834 21.5 -45.501s33.166 -14.5 56.499 -14.5h44c58.667 0 107.834 -13.667 147.501 -41s59.5 -71.333 59.5 -132c0 -53.333 -19.167 -95.666 -57.5 -126.999s-92.5 -47 -162.5 -47
c-74 0 -134 17.167 -180 51.5s-70.333 81.5 -73 141.5h129c0.666992 -29.333 11.834 -52.5 33.501 -69.5s50.5 -25.5 86.5 -25.5c32 0 56.833 7 74.5 21s26.5 32.667 26.5 56c0 28 -9.83301 48.333 -29.5 61s-45.5 19 -77.5 19h-37c-50.667 0 -95.167 11.667 -133.5 35
s-57.5 63.666 -57.5 120.999c0 49.333 17.167 86.166 51.5 110.499s77.833 36.5 130.5 36.5h87v92h-363v108h610v-108h-122v-183h-178c-24.667 0 -45.334 -4.5 -62.001 -13.5zM252.5 -216.498c-15 15 -22.5 33.167 -22.5 54.5c0 22 7.5 40.5 22.5 55.5s33.5 22.5 55.5 22.5
s40.5 -7.5 55.5 -22.5s22.5 -33.5 22.5 -55.5c0 -21.333 -7.5 -39.5 -22.5 -54.5s-33.5 -22.5 -55.5 -22.5s-40.5 7.5 -55.5 22.5z" />
    <glyph glyph-name="dvDDHxA" unicode="&#x95d;" horiz-adv-x="650" 
d="M241.5 410c-38.333 -32 -57.502 -78 -57.502 -138c0 -53.333 16.833 -96.833 50.5 -130.5s80.5 -50.5 140.5 -50.5c42 0 76.5 9.66699 103.5 29s40.5 45.333 40.5 78c0 21.333 -6.83301 39 -20.5 53s-30.834 21 -51.501 21c-18 0 -33.5 -6 -46.5 -18s-19.5 -27 -19.5 -45
c0 -6.66699 1 -12.667 3 -18h-93c-2.66699 16 -4 27.667 -4 35c0 43.333 15.333 77.166 46 101.499s70.334 36.5 119.001 36.5c54.667 0 97.834 -15.167 129.501 -45.5s47.5 -70.5 47.5 -120.5c0 -62 -22.5 -110.833 -67.5 -146.5s-107.833 -53.5 -188.5 -53.5
c-59.333 0 -112.833 11.167 -160.5 33.5s-85.167 54.5 -112.5 96.5s-41 91.667 -41 149s12.667 106.333 38 147s60 71.334 104 92.001s94 31 150 31h27v85h-399v108h691v-108h-170v-174h-109c-61.333 0 -111.166 -16 -149.499 -48zM295.498 -199.5
c-15 15 -22.5 33.167 -22.5 54.5c0 22 7.5 40.5 22.5 55.5s33.5 22.5 55.5 22.5s40.5 -7.5 55.5 -22.5s22.5 -33.5 22.5 -55.5c0 -21.333 -7.5 -39.5 -22.5 -54.5s-33.5 -22.5 -55.5 -22.5s-40.5 7.5 -55.5 22.5z" />
    </font>
</defs>
</svg>
